<svg xmlns="http://www.w3.org/2000/svg" width="24" height="24" viewBox="0 0 128 128"><linearGradient id="a" x1="11.85" x2="116.15" y1="116.15" y2="11.85" gradientTransform="matrix(1 0 0 -1 0 128)" gradientUnits="userSpaceOnUse"><stop offset="0" stop-color="#6E75B8"/><stop offset="1" stop-color="#495B9D"/></linearGradient><path fill="url(#a)" d="M87.5 128h-47C18.1 128 0 109.9 0 87.5v-47C0 18.1 18.1 0 40.5 0h47C109.9 0 128 18.1 128 40.5v47c0 22.4-18.1 40.5-40.5 40.5z"/><path d="M67.2 89.2v22.7l28.2-39.5zM94.3 65.1l-27.1-45v32.7zM67.2 55.3v28l26.9-15.7zM37.8 65.1l27.1-45v32.7zM64.9 55.3v28L38 67.6zM64.8 89.2v22.7L36.7 72.4z" opacity=".2"/><path fill="#fff" d="M65.2 87.2v22.7l28.2-39.5zM92.3 63.1l-27.1-45v32.7zM65.2 53.3v28l26.9-15.7zM35.8 63.1l27.1-45v32.7zM62.9 53.3v28L36 65.6zM62.8 87.2v22.7L34.7 70.4z"/></svg>