<?xml version="1.0" encoding="UTF-8"?>
<svg xmlns="http://www.w3.org/2000/svg" xmlns:xlink="http://www.w3.org/1999/xlink" width="96px" height="96px" viewBox="0 0 96 96" version="1.1">
<defs>
<radialGradient id="radial0" gradientUnits="userSpaceOnUse" cx="-109.7066" cy="-1.1131" fx="-109.7066" fy="-1.1131" r="1.0001" gradientTransform="matrix(0.000000000000003301,53.914655,-53.914655,0.000000000000003301,-12.010552,5967.808293)">
<stop offset="0.1667" style="stop-color:rgb(2.745098%,19.215686%,51.372549%);stop-opacity:1;"/>
<stop offset="1" style="stop-color:rgb(0%,32.941176%,97.647059%);stop-opacity:1;"/>
</radialGradient>
<clipPath id="clip1">
  <path d="M 96 48 C 96 21.464844 74.484375 0 48 0 C 21.464844 0 0 21.464844 0 48 C 0 74.484375 21.464844 96 48 96 C 74.484375 96 96 74.484375 96 48 Z M 96 48 "/>
</clipPath>
<filter id="alpha" filterUnits="objectBoundingBox" x="0%" y="0%" width="100%" height="100%">
  <feColorMatrix type="matrix" in="SourceGraphic" values="0 0 0 0 1 0 0 0 0 1 0 0 0 0 1 0 0 0 1 0"/>
</filter>
<mask id="mask0">
  <g filter="url(#alpha)">
<rect x="0" y="0" width="96" height="96" style="fill:rgb(0%,0%,0%);fill-opacity:0.8;stroke:none;"/>
  </g>
</mask>
<mask id="mask1">
  <g filter="url(#alpha)">
<rect x="0" y="0" width="96" height="96" style="fill:rgb(0%,0%,0%);fill-opacity:0.8;stroke:none;"/>
  </g>
</mask>
<linearGradient id="linear0" gradientUnits="userSpaceOnUse" x1="-12.9962" y1="635.1351" x2="199.6316" y2="858.3003" gradientTransform="matrix(1,0,0,1,0,-656)">
<stop offset="0.2057" style="stop-color:rgb(53.72549%,81.568627%,100%);stop-opacity:1;"/>
<stop offset="0.3984" style="stop-color:rgb(92.156863%,74.901961%,60.392157%);stop-opacity:1;"/>
<stop offset="0.6015" style="stop-color:rgb(92.156863%,50.980392%,50.196078%);stop-opacity:1;"/>
<stop offset="0.8411" style="stop-color:rgb(63.529412%,50.588235%,100%);stop-opacity:1;"/>
</linearGradient>
<clipPath id="clip3">
  <rect x="0" y="0" width="96" height="96"/>
</clipPath>
<g id="surface6" clip-path="url(#clip3)">
<path style="fill:none;stroke-width:1.0554;stroke-linecap:butt;stroke-linejoin:miter;stroke:url(#linear0);stroke-miterlimit:10;" d="M 76.396875 196.497656 C 69.6 196.497656 63.203385 196.097396 57.803646 195.697135 L 56.300781 195.598958 L 54.797917 195.402604 C 54.103125 195.296875 53.302604 195.198698 52.396354 195.100521 C 47.200521 194.496354 37.503646 193.499479 26.802344 188.5 L 25.103125 187.699479 L 23.60026 186.800781 C 2.998177 175.200781 -4.599219 157.898958 -8.798177 148.602344 C -9.10026 147.998177 -9.402344 147.303385 -9.696875 146.601042 C -11.796354 142.296354 -13.102865 138.497656 -14.197917 134.902865 L -14.401823 134.102344 L -14.598177 133.301823 C -17.596354 122.698698 -18.298698 113.598437 -16.99974 104.498177 C -15.602604 95.397917 -12.302344 87.196354 -6.396615 78.496354 L -3.398437 73.602604 C -2.801823 72.598177 -2.401562 71.503125 -2.099479 70.400521 C 0.196354 58.996875 5.39974 50.901042 7.997656 46.996615 C 8.7 42.299219 9.900781 37.7 11.501823 33.198958 L 11.698177 32.496615 L 12.00026 31.801823 C 12.00026 31.703646 12.098437 31.49974 12.196615 31.197656 C 13.397396 27.701042 16.101042 19.597656 23.003646 11.003385 L 25.601562 7.997656 L 28.297656 5.603646 C 35.102083 -0.596615 43.303646 -5.203385 52.101823 -7.801302 C 57.003125 -9.296615 62.100781 -10.202865 67.296615 -10.497396 L 68.497396 -10.497396 C 69.403646 -10.497396 70.302344 -10.603125 71.102865 -10.603125 C 74.297396 -10.603125 77.499479 -10.301042 80.701562 -9.802604 C 82.702865 -9.500521 84.696615 -9.696875 86.59974 -10.497396 C 92.097656 -12.800781 97.799479 -14.303646 103.697656 -15.096615 C 104.203646 -15.202344 104.596354 -15.202344 104.996615 -15.300521 C 105.902865 -15.398698 107.398177 -15.602604 109.203125 -15.798958 C 112.299479 -16.101042 117.102604 -16.501302 122.20026 -16.501302 C 132.297396 -16.501302 140.997396 -15.202344 148.798698 -12.498698 L 149.501042 -12.302344 L 150.097656 -12.098437 C 167.301302 -5.603646 176.001302 3.496615 182.29974 11.403646 L 182.601823 11.796354 L 183.500521 12.596875 C 189.202344 16.99974 193.997917 22.497656 197.796615 28.59974 L 198.997396 30.502865 L 200.001823 32.496615 C 208.39974 49.602083 205.703646 65.499219 204.699219 71.397396 L 204.601042 71.699479 C 203.898698 76.102344 202.697917 80.399479 201.202604 84.598437 C 200.598437 88.601042 199.69974 92.603646 198.400781 96.402344 C 196.203125 103.199219 192.902865 109.701562 188.696354 115.501562 C 186.302344 118.9 183.500521 122.20026 180.502344 125.10026 C 179.39974 126.097135 178.697396 127.501823 178.501042 128.997135 C 178.402865 129.903385 178.198958 130.802083 178.100781 131.700781 C 175.601042 144.901823 169.899219 154.10026 167.497656 157.800781 L 160.398698 168.003646 C 151.796875 178.697396 141.601562 185.698177 129.299219 189.496875 L 126.301042 190.403125 L 123.098958 190.99974 C 119.398437 191.702083 115.697917 191.996615 111.899219 191.996615 C 111.400781 191.996615 110.902344 191.996615 110.298177 191.996615 L 108.802865 191.996615 C 107.398177 191.996615 106.001042 192.298698 104.596354 192.698958 C 96.402344 195.296875 87.40026 196.497656 76.396875 196.497656 Z M 76.396875 196.497656 " transform="matrix(0.517241,0,0,0.517241,0,0)"/>
</g>
<mask id="mask2">
  <g filter="url(#alpha)">
<rect x="0" y="0" width="96" height="96" style="fill:rgb(0%,0%,0%);fill-opacity:0.8;stroke:none;"/>
  </g>
</mask>
<linearGradient id="linear1" gradientUnits="userSpaceOnUse" x1="-4.751" y1="644.7373" x2="191.2685" y2="851.3126" gradientTransform="matrix(1,0,0,1,0,-656)">
<stop offset="0.2057" style="stop-color:rgb(53.72549%,81.568627%,100%);stop-opacity:1;"/>
<stop offset="0.3984" style="stop-color:rgb(92.156863%,74.901961%,60.392157%);stop-opacity:1;"/>
<stop offset="0.6015" style="stop-color:rgb(92.156863%,50.196078%,85.490196%);stop-opacity:1;"/>
<stop offset="0.8411" style="stop-color:rgb(63.529412%,50.588235%,100%);stop-opacity:1;"/>
</linearGradient>
<clipPath id="clip4">
  <rect x="0" y="0" width="96" height="96"/>
</clipPath>
<g id="surface9" clip-path="url(#clip4)">
<path style="fill:none;stroke-width:1.0554;stroke-linecap:butt;stroke-linejoin:miter;stroke:url(#linear1);stroke-miterlimit:10;" d="M 76.396875 189.398698 C 69.902083 189.398698 63.603646 188.998437 58.40026 188.598177 L 57.199479 188.5 L 55.998698 188.303646 C 55.198177 188.197917 54.299479 188.09974 53.400781 188.001562 C 48.303125 187.503125 39.897656 186.498698 30.502865 182.103385 L 29.098177 181.401042 L 27.799219 180.698698 C 9.500521 170.601562 2.801823 155.497396 -1.200781 146.502865 C -1.502865 145.898698 -1.797396 145.098177 -2.197656 144.403385 C -4.100781 140.597135 -5.301562 137.002344 -6.298437 133.80026 L -6.502344 133.097917 L -6.698698 132.501302 C -9.296615 123.000781 -9.998958 115.003125 -8.798177 107.103646 C -7.597396 99.302344 -4.599219 91.999479 0.596615 84.402083 L 4.501042 78.103646 C 5.203385 77.001042 5.701823 75.702083 5.898177 74.403125 C 7.801302 63.603646 12.898958 55.998698 15.202344 52.502083 L 15.496875 52.101823 L 15.602604 51.897917 C 15.602604 51.79974 15.700781 51.701562 15.700781 51.603385 C 15.798958 51.097396 16.002865 50.697135 16.101042 50.296875 C 16.697656 45.901562 17.80026 41.498698 19.303125 37.29974 L 19.499479 36.703125 L 19.703385 36.098958 C 19.801562 35.902604 19.801562 35.698698 19.997917 35.102083 C 21.100521 31.801823 23.396354 24.899219 29.40026 17.498177 L 31.597917 14.90026 L 33.803125 12.898958 C 39.701302 7.499219 46.80026 3.496615 54.397656 1.298958 C 58.800521 0 63.203385 -0.800521 67.802604 -0.996875 L 68.799479 -0.996875 C 69.6 -0.996875 70.302344 -1.102604 70.997135 -1.102604 C 74.297396 -1.102604 77.499479 -2.001302 80.701562 -1.397135 C 83.201302 -0.898698 85.701042 -1.200781 87.996875 -2.197656 C 92.301562 -4.100781 98.101562 -4.803125 104.702083 -5.701823 C 105.200521 -5.8 105.600781 -5.8 105.902865 -5.898177 C 106.801562 -5.996354 108.198698 -6.20026 109.79974 -6.298437 C 112.69974 -6.600521 117.200781 -6.902604 122.102083 -6.902604 C 131.300521 -6.902604 139.101823 -5.701823 145.996875 -3.398437 L 146.601042 -3.202083 L 147.099479 -2.998177 C 162.301823 2.801823 169.801042 10.399219 175.699219 17.898437 C 176.001302 18.298698 176.401562 18.698958 176.49974 18.902865 L 176.597917 19.001042 L 177.700521 19.997917 L 177.798698 20.201823 C 182.896354 24.098698 187.201042 28.901823 190.501302 34.301562 L 191.498177 35.902604 L 192.298698 37.601823 C 199.503385 52.298177 197.298177 65.801302 196.301302 71.503125 L 196.203125 71.797656 C 195.500781 75.996615 194.398177 79.999219 192.902865 84.001823 C 192.396875 87.800521 191.498177 91.599219 190.297396 95.201562 C 188.303646 101.197917 185.403646 106.89974 181.703125 112.103125 C 179.203385 115.697917 176.197656 118.998177 173.003125 121.898177 C 171.50026 123.302865 170.503385 125.10026 170.299479 127.19974 C 170.103125 128.702604 169.899219 130.09974 169.702865 131.602604 C 167.497656 143.300781 162.498177 151.298437 160.096615 154.900781 L 154.296615 163.298698 C 146.601042 173.199479 137.500781 179.603646 126.497396 183.002083 L 123.997656 183.802604 L 121.301562 184.301042 C 118.099479 184.897656 114.799219 185.19974 111.597135 185.101562 C 111.098698 185.101562 110.60026 185.101562 110.101823 185.101562 L 109.701562 185.101562 C 109.701562 185.101562 109.603385 185.101562 109.399479 185.101562 L 107.103646 185.101562 C 105.600781 185.19974 104.097917 185.403646 102.602604 185.902083 C 95.29974 188.303646 86.803646 189.398698 76.396875 189.398698 Z M 76.396875 189.398698 " transform="matrix(0.517241,0,0,0.517241,0,0)"/>
</g>
<mask id="mask3">
  <g filter="url(#alpha)">
<rect x="0" y="0" width="96" height="96" style="fill:rgb(0%,0%,0%);fill-opacity:0.8;stroke:none;"/>
  </g>
</mask>
<linearGradient id="linear2" gradientUnits="userSpaceOnUse" x1="3.5765" y1="653.0396" x2="182.9841" y2="843.0211" gradientTransform="matrix(1,0,0,1,0,-656)">
<stop offset="0.2057" style="stop-color:rgb(53.72549%,81.568627%,100%);stop-opacity:1;"/>
<stop offset="0.3984" style="stop-color:rgb(92.156863%,74.901961%,60.392157%);stop-opacity:1;"/>
<stop offset="0.6015" style="stop-color:rgb(92.156863%,50.980392%,50.196078%);stop-opacity:1;"/>
<stop offset="0.8411" style="stop-color:rgb(63.529412%,50.588235%,100%);stop-opacity:1;"/>
</linearGradient>
<clipPath id="clip5">
  <rect x="0" y="0" width="96" height="96"/>
</clipPath>
<g id="surface12" clip-path="url(#clip5)">
<path style="fill:none;stroke-width:0.9894;stroke-linecap:butt;stroke-linejoin:miter;stroke:url(#linear2);stroke-miterlimit:10;" d="M 76.396875 181.098958 C 70.196615 181.098958 64.102083 180.698698 58.996875 180.298437 L 57.003125 180.102083 C 56.096875 179.996354 55.1 179.898177 54.103125 179.8 C 49.3 179.301562 41.997135 178.501042 33.803125 174.596615 L 32.700521 174.098177 L 31.703646 173.501562 C 16.002865 164.703385 10.202865 151.698698 6.396615 143.096875 C 6.102083 142.402083 5.701823 141.503385 5.39974 140.801042 C 3.700521 137.402604 2.597917 134.200521 1.699219 131.202344 L 1.502865 130.696354 L 1.397135 130.197917 C -0.898698 121.996354 -1.502865 115.003125 -0.498437 108.402604 C 0.498437 101.696354 3.202083 95.397917 7.801302 88.699219 L 8.397917 87.898698 L 9.002083 87.098177 C 9.402344 86.59974 9.696875 86.101302 10.097135 85.701042 L 12.400521 81.396354 C 13.201042 79.999219 13.699479 78.496354 13.903385 76.902865 C 15.398698 67.296615 19.997917 60.401562 22.097396 57.199479 C 22.203125 57.003125 22.399479 56.799219 22.497656 56.701042 L 23.003646 55.998698 C 23.2 55.598437 23.396354 55.1 23.60026 54.503385 C 23.796615 53.899219 24.098698 53.000521 24.302604 52.2 C 24.801042 48.099219 25.797917 44.096615 27.202604 40.19974 L 27.398958 39.701302 L 27.602865 39.202865 C 27.701042 38.802604 27.897396 38.500521 28.101302 37.798177 C 29.098177 34.701823 31.001302 29 36.098958 22.79974 L 37.798177 20.70026 L 39.603125 19.099219 C 44.602604 14.5 50.598958 11.19974 57.101302 9.198437 C 60.9 8.103385 64.698698 7.401042 68.701302 7.197135 L 69.501823 7.197135 C 70.098437 7.197135 70.702604 7.197135 71.397396 7.197135 C 74.803385 7.197135 78.103646 7.597396 81.396354 8.503646 C 84.198177 9.198437 87.196354 8.896354 89.801823 7.597396 C 94.000781 5.603646 99.596875 3.398437 106.099219 2.597917 C 106.499479 2.49974 106.89974 2.49974 107.201823 2.401562 C 108.002344 2.303385 109.301302 2.099479 110.902344 2.001302 C 113.598437 1.699219 117.903125 1.397135 122.396615 1.397135 C 130.598177 1.397135 137.500781 2.401562 143.602865 4.501042 L 144.003125 4.697396 L 144.403385 4.901302 C 158.397396 10.202865 164.597656 17.097917 169.400781 23.2 C 170.503385 24.498958 170.601562 24.702865 171.296354 25.397656 L 172.202604 26.198177 L 172.497135 26.598437 C 174.800521 28.403385 179.497917 32.096354 183.598698 38.802604 L 184.399219 40.101562 L 185.101562 41.400521 C 191.203646 53.702865 189.300521 64.902604 188.401823 70.302344 L 188.303646 70.596875 C 187.699479 74.501302 186.596875 78.398177 185.003385 82.098698 L 185.003385 82.400781 C 184.603125 85.897396 183.802604 89.401562 182.7 92.701823 C 181.000781 98.003385 178.501042 102.897135 175.200781 107.398177 C 172.497135 111.302604 169.196875 114.799219 165.496354 117.797396 C 164.597656 118.49974 163.902865 119.398437 163.396875 120.402865 C 162.898437 121.39974 162.596354 122.502344 162.498177 123.597396 C 162.4 125.802604 162.097917 128.00026 161.697656 130.197917 C 159.802083 140.302604 155.399219 147.303385 153.201562 150.8 L 148.700521 157.400521 C 142.001823 166.402604 133.996615 172.202604 124.29974 175.200781 L 122.298437 175.797396 L 120.100781 176.197656 C 117.397135 176.703646 114.602865 176.9 111.801042 176.9 C 111.400781 176.9 110.902344 176.9 110.396354 176.9 L 109.79974 176.9 C 109.701562 176.9 109.497656 176.9 108.999219 176.9 L 108.100521 176.9 L 105.797135 176.998177 C 104.203646 177.096354 102.602604 177.30026 101.09974 177.896875 C 94.197135 180.102083 86.297656 181.098958 76.396875 181.098958 Z M 76.396875 181.098958 " transform="matrix(0.517241,0,0,0.517241,0,0)"/>
</g>
<mask id="mask4">
  <g filter="url(#alpha)">
<rect x="0" y="0" width="96" height="96" style="fill:rgb(0%,0%,0%);fill-opacity:0.8;stroke:none;"/>
  </g>
</mask>
<linearGradient id="linear3" gradientUnits="userSpaceOnUse" x1="11.8926" y1="661.3707" x2="174.6515" y2="834.707" gradientTransform="matrix(1,0,0,1,0,-656)">
<stop offset="0.2057" style="stop-color:rgb(53.72549%,81.568627%,100%);stop-opacity:1;"/>
<stop offset="0.3984" style="stop-color:rgb(92.156863%,74.901961%,60.392157%);stop-opacity:1;"/>
<stop offset="0.6015" style="stop-color:rgb(92.156863%,50.196078%,90.588235%);stop-opacity:1;"/>
<stop offset="0.8411" style="stop-color:rgb(63.529412%,50.588235%,100%);stop-opacity:1;"/>
</linearGradient>
<clipPath id="clip6">
  <rect x="0" y="0" width="96" height="96"/>
</clipPath>
<g id="surface15" clip-path="url(#clip6)">
<path style="fill:none;stroke-width:0.9235;stroke-linecap:butt;stroke-linejoin:miter;stroke:url(#linear3);stroke-miterlimit:10;" d="M 76.396875 172.799219 C 70.498698 172.799219 64.600521 172.398958 59.699219 171.998698 L 58.996875 171.900521 L 58.302083 171.802344 C 57.297656 171.696615 56.202604 171.50026 55.198177 171.402083 C 50.697135 170.903646 44.496875 170.201302 37.503646 166.999219 L 35.902604 166.198698 C 22.603385 158.699479 17.702083 147.703646 14.09974 139.698437 C 13.699479 138.897917 13.299219 137.999219 12.997135 137.198698 C 11.501823 134.102344 10.497396 131.202344 9.696875 128.702604 L 9.598698 128.302344 L 9.296615 128.00026 C 5.39974 114.202604 6.902604 104.498177 14.5 93.396615 L 15.300521 92.203385 C 15.798958 91.599219 16.297396 90.896875 16.803385 90.30026 C 17.498177 89.401562 18.200521 88.397135 19.001042 87.498437 C 19.499479 86.901823 19.89974 86.199479 20.201823 85.497135 L 21.100521 83.299479 C 21.500781 82.302604 21.697135 81.298177 21.802865 80.301302 C 22.603385 71.397396 26.900521 65.000781 29 61.798698 C 29.196354 61.602344 29.40026 61.202083 29.498437 61.096354 L 29.996875 60.303385 L 30.200781 60.099479 C 30.502865 59.601042 31.001302 58.40026 31.401562 57.199479 C 31.597917 56.398958 31.998177 55.1 32.398438 53.997396 L 32.398438 53.899219 C 32.798698 50.198698 33.697396 46.498177 34.996354 43.001562 L 35.102083 42.699479 L 35.20026 42.397396 C 35.396615 41.800781 35.600521 41.302344 35.796875 40.6 C 36.703125 37.896354 38.198437 33.297135 42.299219 28.199479 L 43.598177 26.598437 L 44.897135 25.397656 C 54.601562 16.599479 65.401042 15.897135 69.003385 15.602604 L 69.6 15.602604 C 70.098437 15.602604 70.596875 15.602604 71.102865 15.602604 C 75.4 15.602604 79.598958 16.501302 83.601562 18.200521 C 84.296354 18.502604 85.096875 18.600781 85.799219 18.600781 C 86.59974 18.600781 87.302083 18.396875 87.996875 17.996615 C 91.697396 15.897135 98.403646 12.00026 106.997917 11.003385 C 107.398177 10.897656 107.798437 10.897656 108.100521 10.897656 C 108.901042 10.799479 110.101823 10.701302 111.498958 10.497396 C 114.096875 10.301042 118.001302 9.998958 122.20026 9.998958 C 129.503125 9.998958 135.499479 10.897656 140.597135 12.596875 L 140.899219 12.702604 L 141.201302 12.800781 C 153.201562 17.301823 158.299219 23.003646 162.596354 28.403385 C 163.698958 29.898698 164.303125 30.502865 165.496354 31.703646 L 166.198698 32.30026 L 166.697135 32.896875 L 167.097396 33.198958 C 169.098698 34.8 172.897396 37.7 176.303385 43.197917 L 176.9 44.202344 L 177.398437 45.199219 C 182.29974 55.198177 180.698698 64.20026 179.898177 69.003385 L 179.898177 69.297917 C 179.301562 72.802083 178.297135 76.298698 176.9 79.598958 L 176.801823 79.901042 C 176.801823 79.999219 176.801823 79.999219 176.703646 80.203125 C 176.597917 80.497656 176.597917 80.79974 176.597917 81.101823 L 176.49974 81.502083 C 176.197656 84.50026 175.502865 87.40026 174.498437 90.202083 C 173.003125 94.703125 170.903646 98.902083 168.101823 102.700781 C 165.398177 106.597656 162.301823 109.79974 158.903385 112.299479 C 157.400521 113.402083 156.19974 114.799219 155.301042 116.498437 C 154.402344 118.197656 154.002083 120.002604 154.002083 121.898177 C 154.002083 124.201562 153.7 126.603125 153.29974 128.898958 C 151.698698 137.500781 148.096354 143.300781 145.800521 146.797396 L 142.50026 151.698698 C 136.70026 159.802083 129.797656 164.997917 121.497917 167.603385 L 121.097656 167.701562 C 120.402865 167.897917 119.700521 168.101823 118.998177 168.2 L 118.49974 168.298177 C 116.196354 168.698437 113.900521 168.902344 111.597135 168.902344 C 111.196875 168.902344 110.796615 168.902344 110.396354 168.902344 L 110.298177 168.902344 C 110.101823 168.902344 109.897917 168.902344 109.701562 168.902344 C 109.497656 168.902344 109.097396 168.902344 108.296875 168.902344 L 107.70026 168.902344 C 106.597656 168.902344 105.200521 169.000521 103.99974 169.000521 C 102.300521 169.098698 100.699479 169.400781 99.098437 169.997396 C 93.102083 171.802344 85.799219 172.799219 76.396875 172.799219 Z M 76.396875 172.799219 " transform="matrix(0.517241,0,0,0.517241,0,0)"/>
</g>
<mask id="mask5">
  <g filter="url(#alpha)">
<rect x="0" y="0" width="96" height="96" style="fill:rgb(0%,0%,0%);fill-opacity:0.8;stroke:none;"/>
  </g>
</mask>
<linearGradient id="linear4" gradientUnits="userSpaceOnUse" x1="20.1602" y1="669.7178" x2="166.3016" y2="826.3961" gradientTransform="matrix(1,0,0,1,0,-656)">
<stop offset="0.2057" style="stop-color:rgb(53.72549%,81.568627%,100%);stop-opacity:1;"/>
<stop offset="0.3984" style="stop-color:rgb(92.156863%,74.901961%,60.392157%);stop-opacity:1;"/>
<stop offset="0.6015" style="stop-color:rgb(92.156863%,50.196078%,82.745098%);stop-opacity:1;"/>
<stop offset="0.8411" style="stop-color:rgb(63.529412%,50.588235%,100%);stop-opacity:1;"/>
</linearGradient>
<clipPath id="clip7">
  <rect x="0" y="0" width="96" height="96"/>
</clipPath>
<g id="surface18" clip-path="url(#clip7)">
<path style="fill:none;stroke-width:0.8575;stroke-linecap:butt;stroke-linejoin:miter;stroke:url(#linear4);stroke-miterlimit:10;" d="M 76.396875 164.499479 C 70.702604 164.499479 65.098958 164.099219 60.303385 163.698958 L 59.797396 163.698958 L 59.298958 163.600781 C 58.196354 163.396875 57.003125 163.298698 55.900521 163.200521 C 51.701562 162.702083 46.498177 162.203646 40.902083 159.5 L 40.297917 159.197917 L 39.799479 158.903385 C 28.901823 152.801302 24.801042 143.602865 21.598958 136.201823 C 21.198698 135.303125 20.798437 134.396875 20.398177 133.4 C 19.099219 130.802083 18.200521 128.196615 17.498177 125.998958 L 17.4 125.696875 L 17.301823 125.402344 C 14.09974 113.998698 15.202344 106.801562 21.402604 97.799479 L 21.697135 97.399219 L 21.999219 96.998958 C 22.497656 96.296615 23.003646 95.7 23.502083 94.997656 C 25.103125 92.898177 26.696615 90.798698 29 88.298958 C 29.498437 87.800521 29.800521 87 29.898698 86.297656 L 29.996875 84.001823 L 29.898698 83.103125 L 29.898698 82.196875 C 30.102604 74.803385 33.803125 69.297917 35.796875 66.29974 C 36.000781 65.997656 36.302865 65.597396 36.401042 65.401042 L 36.703125 64.902604 L 36.997656 64.502344 C 37.397917 63.898177 38.296615 61.798698 39.097135 59.903125 C 39.399219 59.102604 39.799479 57.501562 40.297917 56.202604 C 40.403646 55.802344 40.403646 55.696615 40.501823 54.797917 C 40.796354 51.701562 41.596875 48.597656 42.601302 45.697656 L 42.699479 45.501302 L 42.797656 45.297396 C 43.09974 44.496875 43.303646 43.90026 43.598177 43.09974 C 44.398698 40.698177 45.599479 37.201562 48.703385 33.297135 L 49.602083 32.202083 L 50.500781 31.401562 C 57.297656 25.299479 64.600521 24.098698 69.6 23.796615 L 70.00026 23.796615 C 70.400521 23.796615 70.702604 23.796615 71.102865 23.796615 C 75.301823 23.796615 80.399479 25.797917 83.103125 27.096875 C 83.69974 27.398958 84.402083 27.602865 85.096875 27.602865 C 85.799219 27.602865 86.501562 27.497135 87.196354 27.300781 C 88.903125 26.696615 90.496615 26.001823 91.999479 25.201302 C 95.397917 23.2 101.001562 19.997917 108.002344 19.197396 C 108.402604 19.099219 108.697135 19.099219 108.999219 19.099219 C 109.701562 19.001042 110.796615 18.902865 112.201302 18.698958 C 114.602865 18.502604 118.197656 18.200521 122.102083 18.200521 C 128.400521 18.200521 133.596354 18.902865 137.802865 20.398177 L 137.999219 20.496354 L 138.203125 20.602083 C 148.202083 24.400781 152.197135 28.697917 156.003385 33.599219 C 157.196615 35.20026 158.102865 36.302865 159.90026 37.896354 L 160.700781 38.696875 C 161.101042 39.097135 161.501302 39.399219 161.901562 39.701302 C 163.600781 41.00026 166.500781 43.303646 169.000521 47.502604 L 169.400781 48.099219 L 169.702865 48.801562 C 173.403385 56.300781 172.202604 63.39974 171.50026 67.598698 L 171.50026 67.900781 C 171.001823 70.800781 170.201302 73.602604 169.000521 76.298698 C 168.698437 77.001042 168.502083 77.703385 168.298177 78.496354 C 168.2 79.002344 168.101823 79.500781 168.101823 79.901042 L 168.003646 80.301302 C 167.701562 82.702865 167.203125 85.096875 166.402604 87.40026 C 165.201823 91.100781 163.396875 94.597396 161.199219 97.701302 C 157.800781 102.496875 153.896354 105.902865 149.198958 108.100521 C 148.096354 108.598958 147.099479 109.399479 146.397135 110.502083 C 145.702344 111.498958 145.302083 112.797917 145.196354 113.998698 C 145.196354 114.497135 145.196354 114.897396 145.196354 115.199479 C 145.40026 118.801823 145.702344 122.902604 144.901823 127.19974 C 143.602865 134.200521 140.597135 138.897917 138.399479 142.402083 C 138.399479 142.402083 128.196615 156.6 118.9 159.5 L 117.903125 159.802083 L 116.800521 159.998437 C 115.003125 160.300521 113.198177 160.496875 111.302604 160.496875 C 111.000521 160.496875 110.60026 160.496875 110.2 160.496875 C 110.003646 160.496875 109.701562 160.496875 109.399479 160.496875 C 108.999219 160.496875 108.402604 160.496875 107.496354 160.602604 L 107.103646 160.602604 C 103.501302 160.700781 100.201042 160.798958 99.196615 161.002865 C 98.698177 161.101042 98.19974 161.199219 97.701302 161.403125 C 92.8 163.502604 85.897396 164.499479 76.396875 164.499479 Z M 76.396875 164.499479 " transform="matrix(0.517241,0,0,0.517241,0,0)"/>
</g>
<mask id="mask6">
  <g filter="url(#alpha)">
<rect x="0" y="0" width="96" height="96" style="fill:rgb(0%,0%,0%);fill-opacity:0.8;stroke:none;"/>
  </g>
</mask>
<linearGradient id="linear5" gradientUnits="userSpaceOnUse" x1="28.5352" y1="677.9645" x2="158.045" y2="818.0479" gradientTransform="matrix(1,0,0,1,0,-656)">
<stop offset="0.2057" style="stop-color:rgb(53.72549%,81.568627%,100%);stop-opacity:1;"/>
<stop offset="0.3984" style="stop-color:rgb(92.156863%,74.901961%,60.392157%);stop-opacity:1;"/>
<stop offset="0.6015" style="stop-color:rgb(63.529412%,50.196078%,92.156863%);stop-opacity:1;"/>
<stop offset="0.8411" style="stop-color:rgb(63.529412%,50.588235%,100%);stop-opacity:1;"/>
</linearGradient>
<clipPath id="clip8">
  <rect x="0" y="0" width="96" height="96"/>
</clipPath>
<g id="surface21" clip-path="url(#clip8)">
<path style="fill:none;stroke-width:0.8575;stroke-linecap:butt;stroke-linejoin:miter;stroke:url(#linear5);stroke-miterlimit:10;" d="M 76.396875 156.297917 C 70.997135 156.297917 65.597396 155.897656 60.998177 155.603125 L 60.597917 155.603125 C 59.298958 155.399219 58.098177 155.301042 57.003125 155.202865 C 53.098698 154.802604 48.997917 154.296615 44.602604 152.302865 L 44.300521 152.197135 L 43.998437 152.098958 C 35.502344 147.303385 32.30026 140.196875 29.302083 133.301823 C 28.901823 132.297396 28.403385 131.300521 27.897396 130.303646 C 26.900521 128.302344 26.1 126.097135 25.503385 123.997656 L 25.503385 123.801302 C 22.897917 114.701042 23.60026 110.101823 28.403385 103.101042 L 28.501562 102.897135 L 28.59974 102.700781 C 29.196354 101.998437 29.702344 101.303646 30.200781 100.699479 C 32.496615 97.701302 34.497917 95.103385 38.998958 90.896875 C 39.301042 90.602344 39.603125 90.202083 39.701302 89.703646 C 39.799479 89.303385 39.799479 88.797396 39.603125 88.397135 L 38.802604 86.101302 C 38.598698 85.398958 38.500521 84.598437 38.500521 83.903646 L 38.500521 82.801042 C 38.696875 77.801562 41.302344 73.897135 43.001562 71.299219 C 43.303646 70.898958 43.5 70.498698 43.696354 70.196615 L 43.90026 69.902083 L 44.096615 69.6 C 45.002865 68.399219 46.498177 64.902604 47.298698 62.803125 C 47.502604 62.100781 48.001042 60.401562 48.499479 59.102604 C 48.801562 58.098177 48.997917 57.101302 49.103646 56.096875 C 49.398177 53.597135 49.896615 51.097396 50.802865 48.801562 L 50.802865 48.597656 C 51.203125 47.600781 51.497656 46.80026 51.701562 45.99974 C 52.396354 43.90026 53.196875 41.498698 55.402083 38.802604 L 55.802344 38.296615 L 56.202604 37.896354 C 60.998177 33.501042 66.29974 32.700521 70.302344 32.398438 L 70.498698 32.398438 C 70.702604 32.398438 70.997135 32.398438 71.201042 32.398438 C 75.203646 32.398438 78.201823 33.999479 80.203125 35.102083 L 80.701562 35.298437 L 80.79974 35.298437 C 81.396354 35.600521 81.796615 35.902604 82.302604 36.098958 C 83.503385 36.703125 84.998698 36.899479 86.297656 36.499219 C 89.099479 35.796875 93.396615 34.097656 96.198437 32.496615 L 96.296615 32.496615 C 99.302344 30.699219 103.901562 28.101302 109.301302 27.497135 C 109.603385 27.398958 110.003646 27.398958 110.298177 27.398958 C 110.902344 27.300781 111.997396 27.202604 113.198177 27.096875 C 115.403385 26.900521 118.801823 26.598437 122.298437 26.598437 C 127.698177 26.598437 132.002865 27.202604 135.303125 28.297656 L 135.499479 28.297656 C 143.497135 31.303385 146.502865 34.497917 149.697396 38.696875 C 150.996354 40.403646 152.302865 41.997135 154.696875 44.096615 L 155.097135 44.496875 C 155.701302 45.101042 156.403646 45.697656 157.196615 46.301823 C 158.601302 47.396875 160.602604 48.89974 162.301823 51.79974 L 162.498177 52.101823 L 162.702083 52.396354 C 165.201823 57.59974 164.401302 62.501042 163.797135 66.201562 L 163.797135 66.503646 C 163.396875 68.799479 162.80026 70.997135 161.803385 73.202344 C 161.297396 74.403125 160.897135 75.702083 160.700781 77.001042 C 160.602604 77.801562 160.496875 78.398177 160.398698 78.896615 L 160.300521 79.296875 C 160.096615 81.2 159.696354 82.997396 159.09974 84.802344 C 158.201042 87.702344 156.796354 90.398437 154.998958 92.898177 C 152.000781 97.301042 148.602344 99.997135 144.101302 101.401823 C 141.903646 102.096615 140.098698 103.501302 138.897917 105.396875 L 138.497656 105.902865 L 138.097396 106.401302 C 137.002344 107.70026 137.296875 112.69974 137.500781 115.697917 C 137.697135 118.998177 137.901042 122.396615 137.296875 125.598698 C 136.3 131.096615 133.898437 134.797135 131.798958 137.999219 C 131.798958 137.999219 123.997656 149.297135 116.898698 151.396615 L 116.40026 151.600521 L 115.901823 151.698698 C 114.602865 151.902604 113.198177 152.098958 111.801042 152.098958 C 111.498958 152.098958 111.196875 152.098958 110.796615 152.098958 C 110.502083 152.098958 110.2 152.098958 109.79974 152.098958 C 109.301302 152.098958 108.598958 152.098958 107.398177 152.197135 L 107.201823 152.197135 C 102.496875 152.401042 99.596875 152.499219 98.003385 152.801302 C 96.900781 152.997656 95.896354 153.29974 94.899479 153.7 C 90.602344 155.399219 84.802344 156.297917 76.396875 156.297917 Z M 76.396875 156.297917 " transform="matrix(0.517241,0,0,0.517241,0,0)"/>
</g>
<clipPath id="clip2">
  <rect x="0" y="0" width="96" height="96"/>
</clipPath>
<g id="surface23" clip-path="url(#clip2)">
<use xlink:href="#surface6" mask="url(#mask1)"/>
<use xlink:href="#surface9" mask="url(#mask2)"/>
<use xlink:href="#surface12" mask="url(#mask3)"/>
<use xlink:href="#surface15" mask="url(#mask4)"/>
<use xlink:href="#surface18" mask="url(#mask5)"/>
<use xlink:href="#surface21" mask="url(#mask6)"/>
</g>
</defs>
<g id="surface1">
<path style=" stroke:none;fill-rule:nonzero;fill:url(#radial0);" d="M 96 48 C 96 21.464844 74.484375 0 48 0 C 21.464844 0 0 21.464844 0 48 C 0 74.484375 21.464844 96 48 96 C 74.484375 96 96 74.484375 96 48 Z M 96 48 "/>
<path style=" stroke:none;fill-rule:nonzero;fill:rgb(100%,100%,100%);fill-opacity:1;" d="M 80.636719 33 C 80.429688 34.191406 80.222656 34.757812 79.914062 35.378906 C 79.601562 36.101562 79.292969 36.878906 78.984375 38.535156 C 78.878906 39.15625 78.777344 39.671875 78.722656 40.085938 L 78.722656 40.136719 C 78.621094 40.808594 78.570312 41.277344 78.308594 42.050781 C 78.101562 42.722656 77.742188 43.808594 76.863281 44.949219 C 76.136719 45.878906 74.949219 47.484375 73.34375 47.691406 C 73.191406 47.691406 72.929688 47.691406 72.777344 47.636719 C 68.222656 45.308594 64.34375 43.601562 63 43.242188 C 61.449219 42.777344 61.65625 39.363281 61.808594 36.363281 C 61.914062 35.015625 61.964844 33.722656 61.914062 32.636719 C 61.707031 28.808594 61.035156 24.671875 57.722656 22.65625 C 55.757812 21.464844 53.171875 21.101562 50.742188 21.101562 C 51.207031 20.898438 51.671875 20.585938 52.242188 20.277344 C 53.691406 19.449219 55.449219 18.414062 57.257812 18.207031 C 57.828125 18.15625 58.398438 18.101562 58.964844 18 C 62.535156 17.585938 65.636719 17.222656 68.898438 18.363281 C 70.398438 18.878906 73.398438 20.535156 74.171875 22.136719 C 74.742188 23.222656 75.671875 24.101562 77.484375 25.808594 C 78.464844 26.691406 79.085938 27.207031 79.550781 27.621094 C 80.222656 28.136719 80.328125 28.292969 80.535156 28.65625 C 81.15625 29.898438 80.949219 31.191406 80.636719 33 Z M 80.636719 33 "/>
<path style=" stroke:none;fill-rule:nonzero;fill:rgb(100%,100%,100%);fill-opacity:1;" d="M 64.136719 48.671875 C 64.34375 48.722656 64.449219 48.984375 64.292969 49.191406 C 63.828125 49.914062 63.257812 50.949219 62.585938 52.136719 C 62.277344 52.707031 61.964844 53.277344 61.707031 53.691406 C 60.828125 55.191406 60.777344 56.484375 60.722656 57.464844 C 60.671875 58.550781 60.621094 59.015625 59.949219 59.429688 C 59.429688 59.792969 58.863281 59.898438 55.136719 60.464844 C 54.464844 60.570312 54.207031 60.671875 53.949219 60.828125 C 53.898438 60.878906 53.792969 60.878906 53.742188 60.929688 C 53.535156 61.035156 53.328125 60.828125 53.328125 60.621094 C 53.378906 60.101562 53.378906 59.429688 53.378906 58.550781 L 53.378906 58.398438 C 53.378906 57.671875 53.378906 57.050781 53.328125 56.585938 C 53.277344 55.65625 53.277344 55.242188 53.535156 54.828125 C 53.84375 54.308594 54.101562 54.15625 54.464844 53.898438 C 55.035156 53.535156 55.808594 53.070312 56.898438 51.515625 C 57.515625 50.691406 57.621094 50.222656 57.722656 49.863281 C 57.777344 49.707031 57.777344 49.65625 58.242188 49.292969 C 58.707031 48.929688 60.207031 47.792969 62.121094 48.101562 C 62.742188 48.207031 63.414062 48.414062 64.136719 48.671875 Z M 64.136719 48.671875 "/>
<path style=" stroke:none;fill-rule:nonzero;fill:rgb(100%,100%,100%);fill-opacity:1;" d="M 49.292969 65.84375 C 49.191406 65.949219 49.136719 66 48.984375 66 C 48.570312 66 48.308594 65.898438 48.15625 65.691406 C 47.792969 65.222656 47.84375 64.292969 47.898438 63.722656 L 49.5 63.308594 C 49.601562 64.191406 49.65625 65.378906 49.292969 65.84375 Z M 49.292969 65.84375 "/>
<path style=" stroke:none;fill-rule:nonzero;fill:rgb(100%,100%,100%);fill-opacity:1;" d="M 49.398438 60.15625 C 49.34375 60.363281 49.34375 60.621094 49.34375 60.929688 C 49.34375 61.035156 49.34375 61.136719 49.34375 61.242188 C 49.34375 61.5 49.34375 61.914062 49.34375 62.121094 C 48.828125 62.277344 48.414062 62.277344 47.898438 62.277344 C 47.898438 62.121094 47.898438 61.863281 47.898438 61.707031 C 47.898438 61.601562 47.898438 61.449219 47.898438 61.34375 C 47.898438 61.191406 47.898438 61.085938 47.898438 60.929688 C 47.898438 60.621094 47.898438 60.15625 47.949219 60 C 48.101562 60 48.257812 59.949219 48.414062 59.898438 C 48.722656 59.84375 49.191406 59.742188 49.449219 59.792969 C 49.449219 59.898438 49.449219 60.050781 49.398438 60.15625 Z M 49.398438 60.15625 "/>
<path style=" stroke:none;fill-rule:nonzero;fill:rgb(100%,100%,100%);fill-opacity:1;" d="M 46.5 65.378906 C 46.449219 66.207031 46.191406 67.191406 45.414062 67.34375 C 45.050781 67.398438 44.898438 67.292969 44.792969 67.191406 C 44.277344 66.722656 44.222656 65.277344 44.277344 64.242188 C 44.636719 64.242188 45.050781 64.191406 45.570312 64.085938 C 45.878906 64.035156 46.191406 63.929688 46.449219 63.878906 C 46.5 64.292969 46.550781 64.808594 46.5 65.378906 Z M 46.5 65.378906 "/>
<path style=" stroke:none;fill-rule:nonzero;fill:rgb(100%,100%,100%);fill-opacity:1;" d="M 46.136719 62.484375 L 44.429688 63.101562 C 44.535156 62.429688 44.636719 61.5 44.691406 60.878906 C 44.742188 60.464844 44.84375 60.308594 44.898438 60.257812 C 44.898438 60.257812 44.949219 60.207031 45 60.207031 C 45 60.207031 45 60.207031 45.050781 60.207031 L 45.101562 60.207031 L 46.191406 60.15625 C 46.136719 60.671875 46.136719 61.808594 46.136719 62.484375 Z M 46.136719 62.484375 "/>
<path style=" stroke:none;fill-rule:nonzero;fill:rgb(100%,100%,100%);fill-opacity:1;" d="M 43.34375 61.964844 C 43.242188 62.222656 43.136719 62.949219 43.085938 63.464844 L 40.964844 63.414062 C 41.070312 62.742188 41.277344 62.070312 41.429688 61.550781 C 41.636719 61.035156 41.792969 60.621094 42 60.515625 C 42.207031 60.414062 42.671875 60.363281 42.984375 60.621094 C 43.449219 60.929688 43.550781 61.398438 43.34375 61.964844 Z M 43.34375 61.964844 "/>
<path style=" stroke:none;fill-rule:nonzero;fill:rgb(100%,100%,100%);fill-opacity:1;" d="M 42.570312 68.535156 C 42.414062 68.742188 42.207031 68.898438 42 68.898438 C 41.742188 68.949219 41.585938 68.84375 41.429688 68.742188 C 40.757812 68.121094 40.808594 66.101562 40.863281 65.121094 C 41.742188 64.914062 42.722656 64.757812 43.191406 64.707031 C 43.191406 65.484375 43.242188 67.601562 42.570312 68.535156 Z M 42.570312 68.535156 "/>
<path style=" stroke:none;fill-rule:nonzero;fill:rgb(100%,100%,100%);fill-opacity:1;" d="M 39.777344 63.308594 C 39.671875 63.570312 39.570312 63.828125 39.515625 64.085938 C 39.257812 64.191406 38.484375 64.085938 37.707031 63.929688 L 38.222656 60.570312 C 39.101562 60.308594 40.136719 60.257812 40.34375 60.515625 C 40.707031 60.878906 40.035156 62.585938 39.777344 63.308594 Z M 39.777344 63.308594 "/>
<path style=" stroke:none;fill-rule:nonzero;fill:rgb(100%,100%,100%);fill-opacity:1;" d="M 38.792969 69 C 38.378906 69.515625 37.757812 69.777344 36.878906 69.722656 C 36.257812 69.722656 36.050781 69.464844 35.949219 69.308594 C 35.484375 68.535156 35.949219 66.722656 36.414062 65.585938 L 39.308594 65.742188 C 39.363281 65.949219 39.363281 66.207031 39.363281 66.464844 C 39.414062 67.34375 39.308594 68.378906 38.792969 69 Z M 38.792969 69 "/>
<path style=" stroke:none;fill-rule:nonzero;fill:rgb(100%,100%,100%);fill-opacity:1;" d="M 62.792969 44.535156 C 60.15625 43.808594 60.414062 39.984375 60.621094 36.257812 C 60.671875 34.964844 60.777344 33.722656 60.722656 32.691406 C 60.515625 29.222656 59.949219 25.449219 57.15625 23.742188 C 54.15625 21.929688 49.242188 22.34375 46.242188 22.707031 C 45.15625 23.015625 44.121094 23.277344 43.292969 23.222656 C 41.535156 23.121094 40.136719 22.398438 38.898438 21.722656 C 37.964844 21.207031 37.136719 20.742188 36.308594 20.742188 C 36.257812 20.742188 36.207031 20.742188 36.207031 20.742188 C 33.878906 20.898438 32.792969 21.464844 31.808594 22.34375 C 31.550781 22.550781 31.242188 23.171875 30.257812 26.015625 C 29.742188 27.464844 29.691406 28.242188 29.585938 28.964844 C 29.484375 29.636719 29.429688 30.363281 29.070312 31.449219 C 28.808594 32.171875 28.601562 32.792969 28.449219 33.414062 C 27.984375 35.015625 27.570312 36.308594 26.429688 37.863281 C 26.277344 38.015625 26.121094 38.328125 25.914062 38.585938 C 25.65625 39 25.34375 39.515625 24.878906 40.085938 C 24.570312 40.5 23.898438 42.050781 23.949219 42.515625 C 24 43.292969 24.257812 43.757812 24.515625 44.277344 C 24.777344 44.792969 25.136719 45.414062 25.191406 46.292969 L 25.191406 46.449219 C 25.292969 47.792969 25.085938 48.464844 22.550781 50.742188 C 20.949219 52.191406 19.757812 53.585938 18.984375 54.621094 C 18.929688 54.722656 18.984375 54.828125 19.136719 54.828125 C 19.191406 54.828125 19.191406 54.828125 19.191406 54.828125 C 19.242188 54.828125 19.292969 54.828125 19.34375 54.828125 C 19.398438 54.828125 19.449219 54.828125 19.5 54.828125 C 19.550781 54.828125 19.601562 54.828125 19.65625 54.828125 C 20.277344 54.878906 20.898438 55.136719 21.308594 55.601562 C 21.363281 55.707031 21.515625 55.707031 21.621094 55.65625 C 22.035156 55.5 22.5 55.5 22.914062 55.550781 C 23.429688 55.601562 24 55.757812 24.363281 56.121094 C 24.464844 56.222656 24.621094 56.277344 24.777344 56.222656 C 25.191406 56.121094 25.65625 56.121094 26.070312 56.277344 C 26.378906 56.378906 26.691406 56.585938 26.898438 56.84375 C 27.050781 57 27.308594 57.050781 27.515625 56.949219 C 27.621094 56.898438 27.777344 56.792969 27.929688 56.742188 C 28.5 56.535156 29.121094 56.636719 29.636719 56.84375 C 29.898438 56.949219 30.15625 57 30.414062 57.207031 C 30.828125 57.515625 31.136719 57.929688 31.292969 58.398438 C 31.398438 58.65625 31.757812 58.757812 31.964844 58.550781 C 32.378906 58.242188 32.691406 58.191406 33 58.292969 C 33.15625 58.34375 33.257812 58.449219 33.363281 58.601562 C 33.515625 58.808594 33.777344 59.015625 33.984375 58.914062 C 34.863281 58.65625 35.898438 58.808594 36.671875 59.222656 C 36.929688 59.378906 37.242188 59.585938 37.398438 59.898438 L 37.398438 59.742188 C 37.398438 59.691406 37.449219 59.636719 37.5 59.585938 L 37.65625 59.535156 C 38.070312 59.378906 40.242188 58.757812 41.070312 59.636719 C 41.121094 59.691406 41.171875 59.691406 41.222656 59.636719 C 41.328125 59.535156 41.429688 59.429688 41.484375 59.429688 C 42.050781 59.121094 42.984375 59.070312 43.601562 59.636719 C 43.707031 59.742188 43.914062 59.691406 44.015625 59.585938 C 44.070312 59.484375 44.121094 59.429688 44.222656 59.378906 C 44.429688 59.171875 44.742188 59.121094 45.050781 59.121094 L 46.242188 59.070312 C 46.550781 59.070312 47.484375 58.964844 47.742188 58.914062 L 47.792969 58.914062 C 47.898438 58.914062 48.050781 58.863281 48.207031 58.808594 C 48.777344 58.707031 49.449219 58.550781 49.964844 58.808594 C 50.484375 59.070312 50.429688 59.636719 50.378906 60.15625 C 50.378906 60.363281 50.328125 60.570312 50.328125 60.777344 C 50.328125 60.878906 50.328125 60.984375 50.328125 61.085938 C 50.328125 61.550781 50.328125 61.964844 50.277344 62.277344 L 50.328125 62.535156 C 50.328125 62.535156 50.328125 62.535156 50.328125 62.585938 C 50.378906 62.792969 50.636719 62.949219 50.792969 62.792969 C 51.207031 62.535156 51.621094 62.222656 51.777344 62.015625 L 51.777344 61.964844 C 51.777344 61.914062 51.828125 61.808594 51.878906 61.601562 C 51.929688 61.136719 52.035156 60.257812 52.035156 58.449219 C 52.035156 58.34375 52.035156 58.292969 52.035156 58.242188 C 52.035156 57.570312 52.035156 57 51.984375 56.535156 C 51.929688 55.550781 51.878906 54.777344 52.398438 54 C 52.863281 53.222656 53.328125 52.964844 53.792969 52.65625 C 54.308594 52.34375 54.878906 51.984375 55.863281 50.636719 C 56.328125 49.964844 56.378906 49.707031 56.429688 49.5 C 56.535156 48.984375 56.691406 48.671875 57.464844 48.15625 C 58.085938 47.691406 59.898438 46.292969 62.378906 46.707031 C 63.207031 46.863281 64.5 47.277344 65.84375 47.792969 C 65.898438 47.792969 65.949219 47.84375 66 47.84375 L 66.050781 47.84375 C 67.242188 48.308594 68.328125 48.828125 69.101562 49.242188 C 69.257812 49.34375 69.464844 49.292969 69.621094 49.136719 C 69.878906 48.828125 70.136719 48.671875 70.398438 48.464844 C 70.5 48.414062 70.601562 48.363281 70.65625 48.308594 C 70.707031 48.308594 70.707031 48.257812 70.707031 48.257812 C 70.914062 48.101562 70.914062 47.691406 70.65625 47.585938 C 67.191406 45.878906 63.878906 44.84375 62.792969 44.535156 Z M 37.863281 45.308594 C 37.035156 48.828125 31.550781 52.757812 29.070312 52.757812 L 29.015625 52.757812 C 28.964844 52.757812 28.914062 52.757812 28.914062 52.757812 C 28.863281 52.757812 28.808594 52.757812 28.757812 52.707031 C 28.707031 52.707031 28.707031 52.707031 28.65625 52.707031 C 28.191406 52.550781 27.570312 52.242188 27.101562 51.777344 C 26.792969 51.464844 26.535156 51.050781 26.429688 50.691406 C 26.429688 50.636719 26.378906 50.535156 26.378906 50.484375 C 26.222656 49.863281 26.070312 49.136719 26.585938 47.898438 C 26.636719 47.742188 26.742188 47.585938 26.792969 47.429688 C 26.792969 47.378906 26.84375 47.328125 26.84375 47.277344 C 26.898438 47.121094 26.949219 47.015625 27 46.914062 C 27.050781 46.707031 27.15625 46.550781 27.207031 46.449219 C 27.207031 46.398438 27.257812 46.34375 27.257812 46.292969 C 27.414062 45.878906 27.414062 45.722656 27.464844 45.570312 C 27.464844 45.464844 27.515625 45.257812 27.570312 45.050781 C 27.722656 44.378906 27.828125 43.808594 27.878906 43.34375 C 27.984375 42.464844 28.136719 41.691406 28.601562 40.964844 C 28.707031 40.863281 28.757812 40.757812 28.863281 40.65625 C 28.914062 40.601562 28.914062 40.601562 28.964844 40.550781 C 29.015625 40.5 29.015625 40.5 29.070312 40.449219 C 29.171875 40.34375 29.328125 40.292969 29.429688 40.242188 C 29.484375 40.242188 29.535156 40.191406 29.585938 40.191406 C 29.691406 40.136719 29.792969 40.136719 29.898438 40.085938 C 30.363281 39.984375 30.878906 39.984375 31.5 40.035156 C 32.171875 40.085938 32.792969 40.191406 33.308594 40.34375 C 33.777344 40.449219 34.191406 40.601562 34.5 40.757812 C 34.550781 40.757812 34.550781 40.808594 34.601562 40.808594 C 34.65625 40.863281 34.707031 40.863281 34.808594 40.914062 C 34.914062 40.964844 34.964844 40.964844 35.070312 41.015625 C 35.171875 41.070312 35.277344 41.121094 35.378906 41.171875 L 35.484375 41.222656 C 35.84375 41.378906 36.207031 41.585938 36.464844 41.792969 C 36.621094 41.898438 36.722656 42 36.828125 42.101562 C 36.878906 42.15625 36.929688 42.15625 36.929688 42.207031 C 36.984375 42.257812 36.984375 42.257812 37.035156 42.308594 C 38.121094 43.242188 38.070312 44.535156 37.863281 45.308594 Z M 40.449219 31.914062 L 40.34375 32.535156 C 40.085938 33.984375 39.515625 35.949219 37.449219 36.464844 C 35.429688 36.929688 34.964844 37.035156 33.570312 37.136719 C 33.515625 37.136719 33.515625 37.136719 33.464844 37.136719 C 32.429688 37.136719 30.414062 36.464844 30.050781 34.863281 C 29.84375 33.828125 30.308594 33.050781 31.035156 31.808594 C 31.136719 31.601562 31.292969 31.398438 31.449219 31.136719 C 32.484375 29.429688 32.84375 28.191406 33.15625 27.207031 C 33.464844 26.222656 33.722656 25.449219 34.398438 24.777344 C 34.550781 24.621094 34.707031 24.464844 34.914062 24.363281 C 35.015625 24.257812 35.171875 24.207031 35.328125 24.101562 C 35.535156 24 35.742188 23.949219 35.949219 23.84375 C 36.414062 23.691406 36.929688 23.636719 37.398438 23.636719 C 38.378906 23.636719 39.363281 23.898438 40.035156 24.464844 C 40.34375 24.722656 40.808594 25.191406 41.070312 26.691406 C 41.171875 27.464844 40.964844 28.863281 40.449219 31.914062 Z M 55.292969 36.050781 C 54.570312 37.292969 54.207031 37.964844 53.585938 38.484375 C 52.34375 39.515625 50.949219 39.722656 49.757812 39.722656 C 48.929688 39.722656 48.207031 39.570312 47.742188 39.515625 C 46.5 39.308594 44.277344 38.898438 43.5 37.085938 C 43.34375 36.722656 43.34375 36.515625 43.34375 36.207031 C 43.34375 35.949219 43.34375 35.429688 43.191406 34.34375 L 43.191406 34.292969 C 43.136719 33.777344 43.085938 33.207031 43.191406 32.484375 L 43.191406 32.378906 C 43.601562 30.207031 43.757812 29.898438 43.808594 29.691406 C 44.015625 29.277344 44.535156 29.070312 45 29.328125 C 45.414062 29.535156 45.570312 30.050781 45.414062 30.464844 C 45.363281 30.570312 45.257812 31.035156 44.898438 32.742188 L 44.898438 32.84375 C 44.792969 33.308594 44.84375 33.671875 44.898438 34.136719 L 44.898438 34.191406 C 45.050781 35.429688 45.050781 35.949219 45.050781 36.257812 C 45.050781 36.308594 45.050781 36.363281 45.050781 36.414062 L 45.050781 36.464844 C 45.207031 36.828125 45.515625 37.035156 45.878906 37.242188 C 46.136719 37.34375 46.398438 37.136719 46.34375 36.878906 C 45.984375 34.964844 45.984375 32.742188 46.707031 31.34375 C 46.964844 30.878906 47.378906 30.15625 47.792969 29.429688 C 47.84375 29.378906 47.898438 29.277344 47.898438 29.222656 C 47.949219 29.171875 47.949219 29.121094 48 29.070312 C 48.207031 28.757812 48.363281 28.5 48.515625 28.242188 C 48.515625 28.191406 48.570312 28.191406 48.570312 28.136719 L 48.621094 28.085938 C 48.671875 28.035156 48.671875 27.984375 48.722656 27.929688 C 48.722656 27.929688 48.722656 27.878906 48.777344 27.878906 L 48.828125 27.828125 C 48.828125 27.777344 48.878906 27.777344 48.878906 27.722656 C 49.035156 27.515625 49.191406 27.308594 49.292969 27.101562 C 49.5 26.84375 49.242188 26.535156 48.984375 26.636719 C 48.257812 26.949219 47.792969 27.308594 47.691406 27.363281 C 47.328125 27.671875 46.757812 27.621094 46.449219 27.207031 C 46.136719 26.84375 46.191406 26.277344 46.601562 25.964844 C 47.070312 25.601562 49.449219 23.898438 52.292969 24.671875 C 54.363281 25.242188 55.398438 26.84375 55.808594 27.414062 C 56.121094 27.878906 57.15625 29.328125 57.101562 31.398438 C 57.101562 32.898438 56.484375 34.035156 55.292969 36.050781 Z M 55.292969 36.050781 "/>
<path style=" stroke:none;fill-rule:nonzero;fill:rgb(100%,100%,100%);fill-opacity:1;" d="M 36.777344 25.449219 C 36.621094 25.808594 36.464844 26.222656 36.257812 26.691406 C 35.84375 27.777344 35.328125 29.015625 35.070312 29.484375 C 34.65625 30.257812 34.34375 30.777344 34.085938 31.136719 C 33.777344 31.601562 33.570312 31.964844 33.363281 32.484375 C 33.050781 33.363281 33 34.34375 33.207031 35.429688 C 32.636719 35.378906 31.757812 35.015625 31.65625 34.5 C 31.601562 34.136719 31.808594 33.777344 32.429688 32.691406 C 32.535156 32.484375 32.691406 32.222656 32.84375 32.015625 C 33.929688 30.15625 34.398438 28.757812 34.707031 27.722656 C 35.070312 26.636719 35.222656 26.171875 35.792969 25.757812 C 36.15625 25.601562 36.464844 25.5 36.777344 25.449219 Z M 36.777344 25.449219 "/>
<path style=" stroke:none;fill-rule:nonzero;fill:rgb(100%,100%,100%);fill-opacity:1;" d="M 35.691406 64.550781 C 35.070312 65.792969 34.34375 66.929688 33.878906 67.5 C 33.464844 66.464844 32.792969 64.035156 33 62.121094 C 33 62.070312 33 62.015625 33 61.964844 C 33.050781 61.34375 33.207031 60.828125 33.515625 60.363281 C 33.722656 60.050781 34.242188 59.898438 34.808594 59.898438 C 35.222656 59.898438 35.691406 60 36.101562 60.207031 C 36.308594 60.308594 36.621094 60.570312 36.621094 61.242188 C 36.722656 62.171875 36.257812 63.414062 35.691406 64.550781 Z M 35.691406 64.550781 "/>
<path style=" stroke:none;fill-rule:nonzero;fill:rgb(100%,100%,100%);fill-opacity:1;" d="M 68.792969 50.742188 C 68.84375 50.792969 68.84375 50.84375 68.84375 50.898438 C 68.691406 51.257812 68.429688 51.515625 68.171875 51.828125 C 67.863281 52.191406 67.5 52.601562 67.191406 53.277344 C 66.722656 54.207031 66.570312 55.035156 66.515625 57.207031 C 66.414062 59.742188 66.515625 61.136719 66.621094 62.171875 C 66.671875 63.15625 66.722656 63.777344 66.570312 64.757812 C 66.207031 66.722656 65.378906 68.015625 64.292969 69.671875 C 62.949219 71.742188 61.601562 73.863281 59.328125 74.535156 C 59.121094 74.585938 59.121094 74.585938 58.5 74.585938 C 57.984375 74.585938 57.101562 74.585938 55.5 74.636719 C 52.5 74.742188 51 74.792969 49.757812 75.050781 C 48.414062 75.308594 47.742188 75.621094 47.015625 75.878906 C 46.398438 76.136719 45.828125 76.34375 44.742188 76.601562 C 44.070312 76.757812 43.085938 76.863281 39.722656 76.914062 C 36.207031 76.914062 34.085938 76.914062 31.34375 76.601562 C 27.515625 76.191406 25.601562 75.929688 24.308594 75.257812 C 21.308594 73.65625 20.015625 70.757812 17.949219 66 C 17.949219 65.949219 18 65.898438 18.050781 65.898438 C 18.15625 65.949219 18.257812 66 18.363281 66.050781 C 18.464844 66.101562 18.570312 66.101562 18.621094 66.101562 C 18.828125 66.15625 19.035156 66.15625 19.242188 66.101562 C 19.292969 66.101562 19.292969 66.101562 19.34375 66.050781 C 19.398438 66.050781 19.449219 66.050781 19.449219 66.101562 C 19.601562 66.464844 19.808594 66.777344 20.171875 66.984375 C 20.535156 67.191406 20.949219 67.191406 21.308594 67.191406 C 21.722656 67.191406 22.136719 67.136719 22.550781 67.085938 C 22.757812 67.085938 22.964844 67.191406 23.070312 67.34375 C 23.429688 68.277344 23.898438 68.898438 24.621094 69 C 24.671875 69 24.722656 69 24.777344 69 C 24.929688 69 25.191406 68.949219 25.5 68.742188 C 25.757812 68.535156 26.171875 68.691406 26.378906 68.949219 C 26.535156 69.207031 26.742188 69.363281 26.949219 69.515625 C 27.671875 70.242188 29.429688 70.601562 30.878906 70.601562 C 31.65625 70.601562 32.378906 70.5 32.792969 70.292969 C 33.414062 69.984375 33.414062 69.570312 33.363281 69.363281 C 33.308594 69.050781 33.257812 68.691406 33.207031 68.378906 C 33.207031 68.328125 33.257812 68.328125 33.257812 68.378906 C 33.363281 68.585938 33.464844 68.792969 33.722656 68.84375 C 33.777344 68.84375 33.777344 68.84375 33.828125 68.84375 C 34.242188 68.84375 34.863281 69 34.964844 69.363281 C 35.015625 69.570312 35.121094 69.722656 35.222656 69.929688 C 35.484375 70.292969 35.949219 70.757812 36.929688 70.808594 L 36.984375 70.808594 C 38.121094 70.808594 39 70.449219 39.570312 69.722656 C 39.621094 69.671875 39.621094 69.621094 39.671875 69.570312 C 39.878906 69.257812 40.5 69.257812 40.757812 69.515625 C 41.070312 69.777344 41.429688 69.929688 41.84375 69.929688 C 41.898438 69.929688 42 69.929688 42.050781 69.929688 C 42.570312 69.878906 42.984375 69.621094 43.34375 69.15625 C 43.550781 68.84375 43.707031 68.484375 43.808594 68.070312 C 43.863281 67.964844 44.015625 67.914062 44.121094 68.015625 C 44.328125 68.222656 44.691406 68.429688 45.207031 68.429688 C 45.308594 68.429688 45.464844 68.429688 45.621094 68.378906 C 46.601562 68.171875 47.121094 67.34375 47.328125 66.464844 C 47.328125 66.414062 47.378906 66.414062 47.378906 66.464844 C 47.636719 66.777344 48.101562 67.136719 48.878906 67.136719 C 48.929688 67.136719 48.984375 67.136719 48.984375 67.136719 C 49.398438 67.136719 49.757812 66.929688 50.015625 66.621094 C 50.328125 66.207031 50.429688 65.585938 50.484375 65.015625 C 50.484375 64.863281 50.585938 64.707031 50.792969 64.601562 C 51.621094 64.242188 52.65625 63.464844 52.964844 62.949219 C 52.964844 62.949219 52.964844 62.898438 53.015625 62.898438 C 53.070312 62.742188 53.222656 62.636719 53.328125 62.636719 C 54 62.535156 54.257812 62.378906 54.515625 62.277344 C 54.722656 62.171875 54.878906 62.121094 55.398438 62.015625 C 59.171875 61.449219 59.898438 61.292969 60.722656 60.777344 C 61.964844 59.949219 62.015625 58.808594 62.070312 57.722656 C 62.121094 56.792969 62.171875 55.757812 62.898438 54.515625 C 63.15625 54.050781 63.464844 53.535156 63.777344 52.914062 C 64.34375 51.878906 65.121094 50.429688 65.691406 49.65625 C 65.792969 49.5 66 49.449219 66.15625 49.550781 C 67.449219 50.015625 68.585938 50.535156 68.792969 50.742188 Z M 68.792969 50.742188 "/>
<path style=" stroke:none;fill-rule:nonzero;fill:rgb(100%,100%,100%);fill-opacity:1;" d="M 32.070312 62.015625 C 31.914062 63.308594 31.808594 65.070312 32.015625 67.34375 C 32.070312 67.964844 32.171875 68.636719 32.277344 69.308594 C 32.121094 69.414062 31.550781 69.570312 30.621094 69.515625 C 29.277344 69.464844 27.929688 69.15625 27.515625 68.691406 L 27.464844 68.636719 C 27.15625 68.378906 26.898438 68.171875 26.898438 67.707031 C 26.898438 67.550781 26.949219 67.398438 27.101562 67.136719 C 27.207031 67.035156 27.308594 66.878906 27.414062 66.671875 C 27.621094 66.363281 27.929688 66 28.242188 65.484375 C 29.121094 64.035156 29.429688 63.570312 29.84375 63 C 29.898438 62.949219 29.898438 62.898438 29.949219 62.84375 C 30.207031 62.535156 30.464844 62.121094 30.929688 61.449219 C 31.242188 60.984375 31.5 60.570312 31.757812 60.257812 C 32.121094 59.742188 32.378906 59.484375 32.535156 59.328125 C 32.535156 59.535156 32.484375 59.84375 32.429688 60.15625 C 32.222656 60.777344 32.121094 61.34375 32.070312 62.015625 Z M 32.070312 62.015625 "/>
<path style=" stroke:none;fill-rule:nonzero;fill:rgb(100%,100%,100%);fill-opacity:1;" d="M 31.398438 41.636719 C 31.398438 41.691406 31.398438 41.691406 31.398438 41.636719 C 31.191406 41.898438 30.984375 42.207031 30.722656 42.722656 C 30.050781 44.171875 30.050781 45 30.050781 45.671875 C 30.050781 46.035156 30.050781 46.292969 29.949219 46.601562 C 29.898438 46.808594 29.792969 47.070312 29.636719 47.328125 C 29.277344 48.207031 28.757812 49.34375 28.964844 50.898438 C 28.65625 50.742188 28.191406 50.378906 28.085938 50.222656 C 28.085938 50.121094 28.035156 50.070312 28.035156 49.964844 C 27.929688 49.5 27.878906 49.191406 28.136719 48.464844 C 28.964844 46.601562 29.070312 46.136719 29.121094 45.621094 C 29.121094 45.515625 29.171875 45.414062 29.171875 45.257812 C 29.328125 44.535156 29.429688 43.914062 29.484375 43.398438 C 29.585938 42.621094 29.691406 42.101562 29.949219 41.742188 C 30.050781 41.585938 30.308594 41.535156 30.671875 41.535156 C 30.828125 41.535156 30.984375 41.535156 31.191406 41.585938 L 31.242188 41.585938 C 31.398438 41.636719 31.398438 41.636719 31.398438 41.636719 Z M 31.398438 41.636719 "/>
<path style=" stroke:none;fill-rule:nonzero;fill:rgb(100%,100%,100%);fill-opacity:1;" d="M 30.363281 60.101562 C 30.308594 59.636719 30.257812 59.222656 30.050781 58.757812 C 30.050781 58.757812 30 58.65625 30 58.601562 C 29.949219 58.550781 29.949219 58.5 29.898438 58.449219 L 29.84375 58.398438 C 29.792969 58.34375 29.792969 58.34375 29.742188 58.34375 L 29.691406 58.292969 C 29.636719 58.292969 29.636719 58.242188 29.585938 58.242188 L 29.535156 58.242188 C 29.277344 58.136719 29.015625 58.035156 28.707031 57.984375 C 28.65625 57.984375 28.601562 57.984375 28.601562 57.984375 C 28.550781 57.984375 28.550781 57.984375 28.5 57.984375 L 28.449219 57.984375 C 28.398438 57.984375 28.34375 58.035156 28.242188 58.035156 C 28.191406 58.035156 28.191406 58.085938 28.136719 58.085938 L 28.085938 58.136719 C 28.035156 58.191406 28.035156 58.191406 27.984375 58.242188 L 27.929688 58.292969 L 27.929688 58.34375 C 27.828125 58.5 27.722656 58.65625 27.621094 58.808594 C 27.363281 59.171875 27.101562 59.585938 26.84375 59.949219 C 26.585938 60.308594 26.378906 60.621094 26.121094 60.984375 C 25.964844 61.191406 25.863281 61.34375 25.707031 61.550781 C 25.707031 61.601562 25.65625 61.601562 25.65625 61.65625 C 25.808594 61.707031 25.964844 61.707031 26.121094 61.757812 C 26.484375 61.808594 26.84375 61.863281 27.15625 61.914062 C 27.878906 62.015625 28.65625 62.070312 29.378906 62.015625 C 29.429688 62.015625 29.429688 62.015625 29.484375 62.015625 C 29.636719 61.757812 29.898438 61.449219 30.15625 61.035156 C 30.308594 60.828125 30.464844 60.621094 30.570312 60.414062 C 30.414062 60.363281 30.363281 60.207031 30.363281 60.101562 Z M 30.363281 60.101562 "/>
<path style=" stroke:none;fill-rule:nonzero;fill:rgb(100%,100%,100%);fill-opacity:1;" d="M 27.722656 63.15625 C 27.671875 63.722656 27.050781 65.171875 26.070312 66.570312 C 25.242188 67.707031 24.722656 68.015625 24.621094 68.015625 C 24.207031 67.964844 23.84375 66.984375 23.535156 66 C 23.429688 65.585938 23.277344 65.222656 23.222656 64.863281 C 23.015625 64.136719 22.964844 63.101562 23.015625 62.484375 C 23.84375 62.949219 25.292969 63.050781 27.363281 63.050781 C 27.464844 63.101562 27.621094 63.101562 27.722656 63.15625 Z M 27.722656 63.15625 "/>
<path style=" stroke:none;fill-rule:nonzero;fill:rgb(100%,100%,100%);fill-opacity:1;" d="M 26.277344 58.5 C 25.914062 59.070312 25.550781 59.585938 25.191406 60.101562 C 24.984375 60.363281 24.828125 60.621094 24.621094 60.878906 C 24.515625 61.035156 24.363281 61.191406 24.257812 61.34375 C 23.949219 61.292969 23.691406 61.191406 23.378906 61.136719 C 23.121094 61.085938 22.914062 60.984375 22.65625 60.878906 C 22.601562 60.878906 22.550781 60.828125 22.5 60.828125 C 22.449219 60.777344 22.398438 60.671875 22.34375 60.621094 C 22.449219 60.464844 22.5 60.257812 22.601562 60.101562 C 22.757812 59.792969 22.914062 59.484375 23.121094 59.171875 C 23.429688 58.65625 23.792969 58.085938 24.363281 57.722656 C 24.414062 57.722656 24.414062 57.671875 24.464844 57.671875 C 24.671875 57.570312 24.878906 57.464844 25.136719 57.414062 C 25.191406 57.414062 25.34375 57.414062 25.449219 57.414062 L 25.5 57.414062 C 25.5 57.414062 25.5 57.414062 25.550781 57.414062 C 25.601562 57.414062 25.65625 57.464844 25.757812 57.464844 C 25.757812 57.464844 25.808594 57.464844 25.808594 57.515625 C 25.863281 57.570312 25.914062 57.570312 25.964844 57.621094 C 25.863281 57.570312 26.070312 57.777344 26.070312 57.722656 C 26.171875 58.035156 26.222656 58.191406 26.277344 58.5 Z M 26.277344 58.5 "/>
<path style=" stroke:none;fill-rule:nonzero;fill:rgb(100%,100%,100%);fill-opacity:1;" d="M 23.484375 57 C 22.808594 57.515625 22.34375 58.242188 21.984375 59.015625 C 21.777344 59.429688 21.570312 59.84375 21.363281 60.257812 C 21.363281 60.308594 21.308594 60.363281 21.308594 60.363281 C 21.101562 60.308594 20.898438 60.257812 20.742188 60.207031 C 20.535156 60.15625 20.328125 60.050781 20.121094 60 C 20.015625 59.949219 19.964844 59.898438 19.863281 59.84375 C 20.070312 59.484375 20.277344 59.121094 20.535156 58.757812 C 20.84375 58.292969 21.207031 57.777344 21.570312 57.363281 C 21.722656 57.207031 21.878906 57 22.035156 56.898438 C 22.242188 56.792969 22.449219 56.792969 22.707031 56.84375 C 22.964844 56.84375 23.222656 56.84375 23.429688 56.949219 C 23.378906 56.949219 23.429688 57 23.484375 57 Z M 23.484375 57 "/>
<path style=" stroke:none;fill-rule:nonzero;fill:rgb(100%,100%,100%);fill-opacity:1;" d="M 22.449219 65.792969 C 22.398438 65.84375 22.398438 65.84375 22.34375 65.898438 L 22.292969 65.898438 C 22.136719 65.898438 21.984375 65.949219 21.828125 65.949219 C 21.515625 65.949219 21.207031 66 20.898438 65.949219 C 20.742188 65.949219 20.585938 65.898438 20.484375 65.792969 C 20.378906 65.636719 20.328125 65.328125 20.277344 65.121094 C 20.070312 63.984375 20.070312 62.84375 20.171875 61.707031 C 20.742188 61.914062 21.363281 62.070312 21.984375 62.171875 C 21.828125 63.207031 22.085938 64.707031 22.191406 65.121094 C 22.34375 65.328125 22.398438 65.585938 22.449219 65.792969 Z M 22.449219 65.792969 "/>
<path style=" stroke:none;fill-rule:nonzero;fill:rgb(100%,100%,100%);fill-opacity:1;" d="M 20.585938 56.636719 C 20.070312 57.257812 19.601562 57.929688 19.191406 58.65625 C 19.035156 58.914062 18.828125 59.222656 18.671875 59.535156 C 18.464844 59.484375 18.257812 59.378906 18.101562 59.277344 C 17.949219 59.171875 17.792969 59.070312 17.691406 58.964844 C 17.636719 58.914062 17.535156 58.863281 17.484375 58.808594 C 17.484375 58.808594 17.429688 58.808594 17.429688 58.757812 C 17.484375 58.601562 17.585938 58.5 17.585938 58.398438 C 17.691406 58.136719 17.792969 57.929688 17.949219 57.722656 C 18.207031 57.308594 18.464844 56.898438 18.777344 56.484375 C 18.878906 56.328125 18.984375 56.171875 19.191406 56.121094 C 19.34375 56.070312 19.550781 56.121094 19.707031 56.121094 C 20.015625 56.171875 20.328125 56.378906 20.585938 56.636719 Z M 20.585938 56.636719 "/>
<path style=" stroke:none;fill-rule:nonzero;fill:rgb(100%,100%,100%);fill-opacity:1;" d="M 16.601562 59.378906 C 16.601562 59.328125 16.65625 59.328125 16.601562 59.378906 C 16.808594 59.585938 16.964844 59.742188 17.171875 59.898438 C 17.277344 59.949219 17.328125 60.050781 17.429688 60.101562 C 17.429688 60.101562 17.429688 60.101562 17.429688 60.15625 C 17.222656 61.035156 17.070312 61.964844 17.070312 62.898438 C 17.070312 62.949219 17.015625 62.949219 17.015625 62.898438 C 16.757812 61.808594 16.449219 60.050781 16.601562 59.378906 Z M 16.601562 59.378906 "/>
<path style=" stroke:none;fill-rule:nonzero;fill:rgb(100%,100%,100%);fill-opacity:1;" d="M 19.136719 61.292969 C 19.035156 62.070312 18.984375 62.84375 19.035156 63.621094 C 19.035156 64.035156 19.085938 64.449219 19.136719 64.914062 C 19.035156 64.914062 18.929688 64.914062 18.828125 64.914062 L 18.722656 64.914062 C 18.621094 64.863281 18.621094 64.863281 18.515625 64.808594 C 18.414062 64.757812 18.308594 64.601562 18.207031 64.449219 C 18 64.085938 17.949219 63.671875 17.949219 63.257812 C 17.898438 62.484375 18 61.65625 18.15625 60.878906 C 18.257812 60.929688 18.414062 60.984375 18.570312 61.035156 C 18.777344 61.136719 18.929688 61.242188 19.136719 61.292969 Z M 19.136719 61.292969 "/>
<g clip-path="url(#clip1)" clip-rule="nonzero">
<use xlink:href="#surface23" mask="url(#mask0)"/>
</g>
</g>
</svg>
