<?xml version="1.0" encoding="UTF-8"?>
<svg xmlns="http://www.w3.org/2000/svg" xmlns:xlink="http://www.w3.org/1999/xlink" width="30px" height="30px" viewBox="0 0 30 30" version="1.1">
<defs>
<radialGradient id="radial0" gradientUnits="userSpaceOnUse" cx="-109.7066" cy="-1.1131" fx="-109.7066" fy="-1.1131" r="1.0001" gradientTransform="matrix(0.000000000000001032,16.84833,-16.84833,0.000000000000001032,-3.753297,1864.940092)">
<stop offset="0.1667" style="stop-color:rgb(2.745098%,19.215686%,51.372549%);stop-opacity:1;"/>
<stop offset="1" style="stop-color:rgb(0%,32.941176%,97.647059%);stop-opacity:1;"/>
</radialGradient>
<clipPath id="clip1">
  <path d="M 30 15 C 30 6.707031 23.277344 0 15 0 C 6.707031 0 0 6.707031 0 15 C 0 23.277344 6.707031 30 15 30 C 23.277344 30 30 23.277344 30 15 Z M 30 15 "/>
</clipPath>
<filter id="alpha" filterUnits="objectBoundingBox" x="0%" y="0%" width="100%" height="100%">
  <feColorMatrix type="matrix" in="SourceGraphic" values="0 0 0 0 1 0 0 0 0 1 0 0 0 0 1 0 0 0 1 0"/>
</filter>
<mask id="mask0">
  <g filter="url(#alpha)">
<rect x="0" y="0" width="30" height="30" style="fill:rgb(0%,0%,0%);fill-opacity:0.8;stroke:none;"/>
  </g>
</mask>
<mask id="mask1">
  <g filter="url(#alpha)">
<rect x="0" y="0" width="30" height="30" style="fill:rgb(0%,0%,0%);fill-opacity:0.8;stroke:none;"/>
  </g>
</mask>
<linearGradient id="linear0" gradientUnits="userSpaceOnUse" x1="-12.9962" y1="635.1351" x2="199.6316" y2="858.3003" gradientTransform="matrix(1,0,0,1,0,-656)">
<stop offset="0.2057" style="stop-color:rgb(53.72549%,81.568627%,100%);stop-opacity:1;"/>
<stop offset="0.3984" style="stop-color:rgb(92.156863%,74.901961%,60.392157%);stop-opacity:1;"/>
<stop offset="0.6015" style="stop-color:rgb(92.156863%,50.980392%,50.196078%);stop-opacity:1;"/>
<stop offset="0.8411" style="stop-color:rgb(63.529412%,50.588235%,100%);stop-opacity:1;"/>
</linearGradient>
<clipPath id="clip3">
  <rect x="0" y="0" width="30" height="30"/>
</clipPath>
<g id="surface6" clip-path="url(#clip3)">
<path style="fill:none;stroke-width:1.0554;stroke-linecap:butt;stroke-linejoin:miter;stroke:url(#linear0);stroke-miterlimit:10;" d="M 76.390833 196.499167 C 69.6 196.499167 63.195833 196.088333 57.806667 195.701667 L 56.308333 195.605 L 54.81 195.411667 C 54.109167 195.290833 53.311667 195.194167 52.393333 195.0975 C 47.1975 194.493333 37.506667 193.5025 26.800833 188.5 L 25.109167 187.7025 L 23.610833 186.808333 C 2.996667 175.208333 -4.591667 157.905 -8.796667 148.600833 C -9.110833 147.996667 -9.400833 147.295833 -9.690833 146.595 C -11.793333 142.293333 -13.098333 138.499167 -14.21 134.898333 L -14.596667 133.303333 C -17.593333 122.694167 -18.294167 113.6075 -16.989167 104.496667 C -15.611667 95.41 -12.300833 87.193333 -6.404167 78.493333 L -3.4075 73.611667 C -2.803333 72.596667 -2.3925 71.509167 -2.1025 70.3975 C 0.193333 58.990833 5.389167 50.895 7.999167 47.004167 C 8.7 42.291667 9.908333 37.7 11.503333 33.205 L 11.696667 32.504167 L 12.010833 31.803333 C 12.010833 31.706667 12.1075 31.489167 12.204167 31.199167 C 13.388333 27.695 16.095 19.599167 23.006667 10.995833 L 25.5925 7.999167 L 28.299167 5.606667 C 35.09 -0.604167 43.306667 -5.195833 52.103333 -7.805833 C 57.009167 -9.304167 62.108333 -10.198333 67.304167 -10.488333 L 68.488333 -10.488333 C 69.406667 -10.488333 70.300833 -10.609167 71.098333 -10.609167 C 74.288333 -10.609167 77.5025 -10.295 80.6925 -9.811667 C 82.698333 -9.4975 84.704167 -9.690833 86.589167 -10.488333 C 92.099167 -12.808333 97.8025 -14.306667 103.699167 -15.104167 C 104.206667 -15.200833 104.593333 -15.200833 105.004167 -15.2975 C 105.898333 -15.394167 107.396667 -15.611667 109.209167 -15.805 C 112.3025 -16.095 117.111667 -16.505833 122.210833 -16.505833 C 132.288333 -16.505833 140.988333 -15.200833 148.794167 -12.494167 L 149.495 -12.300833 L 150.099167 -12.1075 C 167.305833 -5.606667 176.005833 3.504167 182.289167 11.406667 L 182.603333 11.793333 L 183.4975 12.590833 C 189.200833 16.989167 194.01 22.499167 197.804167 28.589167 L 198.988333 30.498333 L 200.003333 32.504167 C 208.389167 49.59 205.706667 65.491667 204.691667 71.388333 L 204.595 71.7025 C 203.894167 76.100833 202.71 80.4025 201.211667 84.6075 C 200.6075 88.595 199.689167 92.606667 198.408333 96.400833 C 196.209167 103.191667 192.898333 109.6925 188.693333 115.4925 C 186.300833 118.9 183.4975 122.210833 180.500833 125.110833 C 179.389167 126.101667 178.688333 127.503333 178.495 129.001667 C 178.398333 129.895833 178.205 130.79 178.108333 131.708333 C 175.595 144.903333 169.891667 154.110833 167.499167 157.808333 L 160.394167 168.006667 C 151.790833 178.688333 141.5925 185.696667 129.291667 189.490833 L 126.295 190.409167 L 123.105 190.989167 C 119.4075 191.69 115.71 192.004167 111.891667 192.004167 C 111.408333 192.004167 110.900833 192.004167 110.296667 192.004167 L 108.798333 192.004167 C 107.396667 192.004167 105.995 192.294167 104.593333 192.705 C 96.400833 195.290833 87.410833 196.499167 76.390833 196.499167 Z M 76.390833 196.499167 " transform="matrix(0.161638,0,0,0.161638,0,0)"/>
</g>
<mask id="mask2">
  <g filter="url(#alpha)">
<rect x="0" y="0" width="30" height="30" style="fill:rgb(0%,0%,0%);fill-opacity:0.8;stroke:none;"/>
  </g>
</mask>
<linearGradient id="linear1" gradientUnits="userSpaceOnUse" x1="-4.751" y1="644.7373" x2="191.2685" y2="851.3126" gradientTransform="matrix(1,0,0,1,0,-656)">
<stop offset="0.2057" style="stop-color:rgb(53.72549%,81.568627%,100%);stop-opacity:1;"/>
<stop offset="0.3984" style="stop-color:rgb(92.156863%,74.901961%,60.392157%);stop-opacity:1;"/>
<stop offset="0.6015" style="stop-color:rgb(92.156863%,50.196078%,85.490196%);stop-opacity:1;"/>
<stop offset="0.8411" style="stop-color:rgb(63.529412%,50.588235%,100%);stop-opacity:1;"/>
</linearGradient>
<clipPath id="clip4">
  <rect x="0" y="0" width="30" height="30"/>
</clipPath>
<g id="surface9" clip-path="url(#clip4)">
<path style="fill:none;stroke-width:1.0554;stroke-linecap:butt;stroke-linejoin:miter;stroke:url(#linear1);stroke-miterlimit:10;" d="M 76.390833 189.394167 C 69.89 189.394167 63.606667 189.0075 58.410833 188.596667 L 57.2025 188.5 L 55.994167 188.306667 C 55.196667 188.21 54.3025 188.089167 53.408333 187.9925 C 48.309167 187.509167 39.899167 186.494167 30.498333 182.095833 L 29.096667 181.395 L 27.791667 180.694167 C 9.4975 170.5925 2.803333 155.488333 -1.208333 146.498333 C -1.498333 145.894167 -1.788333 145.096667 -2.199167 144.395833 C -4.108333 140.601667 -5.2925 137.000833 -6.3075 133.810833 L -6.500833 133.11 L -6.694167 132.505833 C -9.304167 123.008333 -10.005 115.009167 -8.796667 107.106667 C -7.588333 99.300833 -4.591667 92.0025 0.604167 84.39 L 4.495 78.106667 C 5.195833 76.995 5.703333 75.69 5.896667 74.409167 C 7.805833 63.606667 12.905 55.994167 15.200833 52.49 L 15.490833 52.103333 L 15.611667 51.91 C 15.611667 51.789167 15.708333 51.6925 15.708333 51.595833 C 15.805 51.088333 15.998333 50.701667 16.095 50.290833 C 16.699167 45.8925 17.810833 41.494167 19.309167 37.289167 L 19.5025 36.709167 L 19.695833 36.105 C 19.7925 35.911667 19.7925 35.694167 20.01 35.09 C 21.0975 31.803333 23.393333 24.891667 29.410833 17.496667 L 31.61 14.910833 L 33.809167 12.905 C 39.705833 7.491667 46.810833 3.504167 54.399167 1.305 C 58.7975 0 63.195833 -0.7975 67.811667 -0.990833 L 68.8025 -0.990833 C 69.6 -0.990833 70.300833 -1.111667 71.001667 -1.111667 C 74.288333 -1.111667 77.5025 -2.005833 80.6925 -1.401667 C 83.205833 -0.894167 85.695 -1.208333 87.990833 -2.199167 C 92.2925 -4.108333 98.0925 -4.809167 104.69 -5.703333 C 105.1975 -5.8 105.608333 -5.8 105.898333 -5.896667 C 106.7925 -5.993333 108.194167 -6.210833 109.789167 -6.3075 C 112.689167 -6.5975 117.208333 -6.911667 122.09 -6.911667 C 131.2975 -6.911667 139.103333 -5.703333 145.990833 -3.4075 L 146.595 -3.19 L 147.1025 -2.996667 C 162.303333 2.803333 169.795 10.391667 175.691667 17.9075 C 176.005833 18.294167 176.3925 18.705 176.489167 18.898333 L 176.61 18.995 L 177.6975 20.01 L 177.794167 20.203333 C 182.893333 24.094167 187.195 28.903333 190.505833 34.2925 L 191.496667 35.911667 L 192.294167 37.603333 C 199.495833 52.296667 197.296667 65.805833 196.305833 71.509167 L 196.209167 71.799167 C 195.508333 76.004167 194.396667 79.991667 192.898333 84.003333 C 192.390833 87.7975 191.496667 91.591667 190.288333 95.1925 C 188.306667 101.21 185.406667 106.889167 181.709167 112.109167 C 179.195833 115.71 176.199167 118.996667 173.009167 121.896667 C 171.510833 123.298333 170.495833 125.110833 170.3025 127.189167 C 170.109167 128.711667 169.891667 130.089167 169.698333 131.611667 C 167.499167 143.308333 162.496667 151.3075 160.104167 154.908333 L 154.304167 163.294167 C 146.595 173.2025 137.508333 179.606667 126.488333 182.99 L 123.999167 183.811667 L 121.2925 184.295 C 118.1025 184.899167 114.791667 185.189167 111.601667 185.0925 C 111.094167 185.0925 110.610833 185.0925 110.103333 185.0925 L 109.6925 185.0925 C 109.6925 185.0925 109.595833 185.0925 109.4025 185.0925 L 107.106667 185.0925 C 105.608333 185.189167 104.11 185.406667 102.611667 185.89 C 95.289167 188.306667 86.806667 189.394167 76.390833 189.394167 Z M 76.390833 189.394167 " transform="matrix(0.161638,0,0,0.161638,0,0)"/>
</g>
<mask id="mask3">
  <g filter="url(#alpha)">
<rect x="0" y="0" width="30" height="30" style="fill:rgb(0%,0%,0%);fill-opacity:0.8;stroke:none;"/>
  </g>
</mask>
<linearGradient id="linear2" gradientUnits="userSpaceOnUse" x1="3.5765" y1="653.0396" x2="182.9841" y2="843.0211" gradientTransform="matrix(1,0,0,1,0,-656)">
<stop offset="0.2057" style="stop-color:rgb(53.72549%,81.568627%,100%);stop-opacity:1;"/>
<stop offset="0.3984" style="stop-color:rgb(92.156863%,74.901961%,60.392157%);stop-opacity:1;"/>
<stop offset="0.6015" style="stop-color:rgb(92.156863%,50.980392%,50.196078%);stop-opacity:1;"/>
<stop offset="0.8411" style="stop-color:rgb(63.529412%,50.588235%,100%);stop-opacity:1;"/>
</linearGradient>
<clipPath id="clip5">
  <rect x="0" y="0" width="30" height="30"/>
</clipPath>
<g id="surface12" clip-path="url(#clip5)">
<path style="fill:none;stroke-width:0.9894;stroke-linecap:butt;stroke-linejoin:miter;stroke:url(#linear2);stroke-miterlimit:10;" d="M 76.390833 181.105 C 70.204167 181.105 64.09 180.694167 58.990833 180.3075 L 58 180.210833 L 57.009167 180.09 C 56.090833 179.993333 55.1 179.896667 54.109167 179.8 C 49.3 179.2925 42.001667 178.495 33.809167 174.604167 L 32.6975 174.096667 L 31.706667 173.4925 C 15.998333 164.695833 10.198333 151.694167 6.404167 143.090833 C 6.09 142.39 5.703333 141.495833 5.389167 140.795 C 3.6975 137.411667 2.61 134.1975 1.691667 131.200833 L 1.498333 130.693333 L 1.401667 130.21 C -0.894167 121.993333 -1.498333 115.009167 -0.5075 108.411667 C 0.5075 101.693333 3.19 95.41 7.805833 88.691667 L 8.41 87.894167 L 8.99 87.096667 C 9.400833 86.589167 9.690833 86.105833 10.101667 85.695 L 12.3975 81.393333 C 13.195 79.991667 13.7025 78.493333 13.895833 76.898333 C 15.394167 67.304167 20.01 60.3925 22.088333 57.2025 C 22.209167 57.009167 22.4025 56.791667 22.499167 56.695 L 23.006667 55.994167 C 23.2 55.6075 23.393333 55.1 23.610833 54.495833 C 23.804167 53.891667 24.094167 52.9975 24.311667 52.2 C 24.795 48.091667 25.81 44.104167 27.211667 40.189167 L 27.405 39.705833 L 27.598333 39.198333 C 27.695 38.811667 27.888333 38.4975 28.105833 37.796667 C 29.096667 34.703333 31.005833 29 36.105 22.789167 L 37.796667 20.710833 L 39.609167 19.091667 C 44.611667 14.5 50.605 11.189167 57.105833 9.2075 C 60.9 8.095833 64.694167 7.395 68.705833 7.201667 L 69.503333 7.201667 C 70.1075 7.201667 70.711667 7.201667 71.388333 7.201667 C 74.795833 7.201667 78.106667 7.588333 81.393333 8.506667 C 84.196667 9.2075 87.193333 8.893333 89.803333 7.588333 C 94.008333 5.606667 99.590833 3.4075 106.091667 2.61 C 106.5025 2.489167 106.889167 2.489167 107.203333 2.3925 C 108.000833 2.295833 109.305833 2.1025 110.900833 2.005833 C 113.6075 1.691667 117.909167 1.401667 122.404167 1.401667 C 130.596667 1.401667 137.508333 2.3925 143.598333 4.495 L 144.009167 4.688333 L 144.395833 4.905833 C 158.388333 10.198333 164.599167 17.11 169.408333 23.2 C 170.495833 24.505 170.5925 24.698333 171.293333 25.399167 L 172.211667 26.196667 L 172.501667 26.6075 C 174.7975 28.395833 179.51 32.093333 183.594167 38.811667 L 184.391667 40.0925 L 185.0925 41.3975 C 191.206667 53.698333 189.2975 64.911667 188.403333 70.300833 L 188.306667 70.590833 C 187.7025 74.505833 186.590833 78.396667 184.995833 82.094167 L 184.995833 82.408333 C 184.609167 85.888333 183.811667 89.3925 182.7 92.703333 C 181.008333 97.995833 178.495 102.901667 175.208333 107.396667 C 172.501667 111.311667 169.190833 114.791667 165.493333 117.788333 C 164.599167 118.489167 163.898333 119.4075 163.390833 120.398333 C 162.9075 121.389167 162.593333 122.500833 162.496667 123.588333 C 162.4 125.811667 162.11 128.010833 161.699167 130.21 C 159.79 140.311667 155.391667 147.295833 153.1925 150.8 L 148.6975 157.3975 C 142.003333 166.411667 134.004167 172.211667 124.289167 175.208333 L 122.3075 175.788333 L 120.108333 176.199167 C 117.401667 176.706667 114.598333 176.9 111.795 176.9 C 111.408333 176.9 110.900833 176.9 110.393333 176.9 L 109.789167 176.9 C 109.6925 176.9 109.499167 176.9 108.991667 176.9 L 108.0975 176.9 L 105.801667 176.996667 C 104.206667 177.093333 102.611667 177.310833 101.089167 177.890833 C 94.201667 180.09 86.299167 181.105 76.390833 181.105 Z M 76.390833 181.105 " transform="matrix(0.161638,0,0,0.161638,0,0)"/>
</g>
<mask id="mask4">
  <g filter="url(#alpha)">
<rect x="0" y="0" width="30" height="30" style="fill:rgb(0%,0%,0%);fill-opacity:0.8;stroke:none;"/>
  </g>
</mask>
<linearGradient id="linear3" gradientUnits="userSpaceOnUse" x1="11.8926" y1="661.3707" x2="174.6515" y2="834.707" gradientTransform="matrix(1,0,0,1,0,-656)">
<stop offset="0.2057" style="stop-color:rgb(53.72549%,81.568627%,100%);stop-opacity:1;"/>
<stop offset="0.3984" style="stop-color:rgb(92.156863%,74.901961%,60.392157%);stop-opacity:1;"/>
<stop offset="0.6015" style="stop-color:rgb(92.156863%,50.196078%,90.588235%);stop-opacity:1;"/>
<stop offset="0.8411" style="stop-color:rgb(63.529412%,50.588235%,100%);stop-opacity:1;"/>
</linearGradient>
<clipPath id="clip6">
  <rect x="0" y="0" width="30" height="30"/>
</clipPath>
<g id="surface15" clip-path="url(#clip6)">
<path style="fill:none;stroke-width:0.9235;stroke-linecap:butt;stroke-linejoin:miter;stroke:url(#linear3);stroke-miterlimit:10;" d="M 76.390833 172.791667 C 70.494167 172.791667 64.5975 172.405 59.691667 171.994167 L 58.29 171.800833 C 57.299167 171.704167 56.211667 171.510833 55.196667 171.39 C 50.701667 170.906667 44.490833 170.205833 37.506667 166.991667 L 36.709167 166.605 L 35.911667 166.194167 C 22.595833 158.7025 17.69 147.706667 14.089167 139.7075 C 13.7025 138.91 13.291667 137.991667 13.001667 137.194167 C 11.503333 134.100833 10.488333 131.200833 9.690833 128.711667 L 9.594167 128.300833 L 9.304167 128.010833 C 5.389167 114.211667 6.911667 104.496667 14.5 93.404167 L 14.910833 92.8 L 15.2975 92.195833 C 15.805 91.591667 16.288333 90.890833 16.795833 90.310833 C 17.496667 89.3925 18.1975 88.401667 18.995 87.5075 C 19.5025 86.903333 19.889167 86.2025 20.203333 85.501667 L 21.0975 83.3025 C 21.508333 82.311667 21.701667 81.296667 21.798333 80.305833 C 22.595833 71.388333 26.8975 65.008333 29 61.794167 C 29.193333 61.600833 29.410833 61.19 29.5075 61.093333 L 29.990833 60.295833 L 30.208333 60.1025 C 30.498333 59.595 31.005833 58.410833 31.3925 57.2025 C 31.61 56.405 31.996667 55.1 32.4075 53.988333 L 32.4075 53.891667 C 32.794167 50.194167 33.688333 46.496667 34.993333 42.9925 L 35.09 42.7025 L 35.210833 42.388333 C 35.404167 41.808333 35.5975 41.300833 35.790833 40.6 C 36.709167 37.893333 38.2075 33.301667 42.291667 28.2025 L 43.596667 26.6075 L 44.901667 25.399167 C 54.5925 16.6025 65.395 15.901667 68.995833 15.611667 L 69.6 15.611667 C 70.1075 15.611667 70.590833 15.611667 71.098333 15.611667 C 75.4 15.611667 79.605 16.505833 83.5925 18.1975 C 84.293333 18.511667 85.090833 18.608333 85.791667 18.608333 C 86.589167 18.608333 87.29 18.390833 87.990833 18.004167 C 91.688333 15.901667 98.406667 12.010833 107.01 10.995833 C 107.396667 10.899167 107.8075 10.899167 108.0975 10.899167 C 108.895 10.8025 110.103333 10.705833 111.505 10.488333 C 114.090833 10.295 118.005833 10.005 122.210833 10.005 C 129.509167 10.005 135.5025 10.899167 140.601667 12.590833 L 140.891667 12.711667 L 141.205833 12.808333 C 153.1925 17.303333 158.291667 23.006667 162.593333 28.395833 C 163.705 29.894167 164.309167 30.498333 165.493333 31.706667 L 166.194167 32.310833 L 166.701667 32.890833 L 167.088333 33.205 C 169.094167 34.8 172.888333 37.7 176.295833 43.21 L 176.9 44.200833 L 177.4075 45.191667 C 182.289167 55.196667 180.694167 64.210833 179.896667 68.995833 L 179.896667 69.31 C 179.2925 72.79 178.301667 76.294167 176.9 79.605 L 176.803333 79.895 C 176.803333 79.991667 176.803333 79.991667 176.706667 80.209167 C 176.61 80.499167 176.61 80.789167 176.61 81.103333 L 176.489167 81.49 C 176.199167 84.510833 175.498333 87.410833 174.5075 90.19 C 173.009167 94.709167 170.906667 98.89 168.103333 102.708333 C 165.396667 106.599167 162.303333 109.789167 158.895833 112.3025 C 157.3975 113.39 156.189167 114.791667 155.295 116.5075 C 154.400833 118.199167 153.99 120.011667 153.99 121.896667 C 153.99 124.1925 153.7 126.609167 153.289167 128.905 C 151.694167 137.508333 148.093333 143.308333 145.7975 146.788333 L 142.510833 151.694167 C 136.710833 159.79 129.799167 165.01 121.51 167.595833 L 121.099167 167.6925 C 120.398333 167.91 119.6975 168.103333 118.996667 168.2 L 118.489167 168.296667 C 116.193333 168.7075 113.8975 168.900833 111.601667 168.900833 C 111.190833 168.900833 110.804167 168.900833 110.393333 168.900833 L 110.296667 168.900833 C 110.103333 168.900833 109.91 168.900833 109.6925 168.900833 C 109.499167 168.900833 109.088333 168.900833 108.290833 168.900833 L 107.710833 168.900833 C 106.599167 168.900833 105.1975 168.9975 103.989167 168.9975 C 102.2975 169.094167 100.7025 169.408333 99.1075 169.988333 C 93.09 171.800833 85.791667 172.791667 76.390833 172.791667 Z M 76.390833 172.791667 " transform="matrix(0.161638,0,0,0.161638,0,0)"/>
</g>
<mask id="mask5">
  <g filter="url(#alpha)">
<rect x="0" y="0" width="30" height="30" style="fill:rgb(0%,0%,0%);fill-opacity:0.8;stroke:none;"/>
  </g>
</mask>
<linearGradient id="linear4" gradientUnits="userSpaceOnUse" x1="20.1602" y1="669.7178" x2="166.3016" y2="826.3961" gradientTransform="matrix(1,0,0,1,0,-656)">
<stop offset="0.2057" style="stop-color:rgb(53.72549%,81.568627%,100%);stop-opacity:1;"/>
<stop offset="0.3984" style="stop-color:rgb(92.156863%,74.901961%,60.392157%);stop-opacity:1;"/>
<stop offset="0.6015" style="stop-color:rgb(92.156863%,50.196078%,82.745098%);stop-opacity:1;"/>
<stop offset="0.8411" style="stop-color:rgb(63.529412%,50.588235%,100%);stop-opacity:1;"/>
</linearGradient>
<clipPath id="clip7">
  <rect x="0" y="0" width="30" height="30"/>
</clipPath>
<g id="surface18" clip-path="url(#clip7)">
<path style="fill:none;stroke-width:0.8575;stroke-linecap:butt;stroke-linejoin:miter;stroke:url(#linear4);stroke-miterlimit:10;" d="M 76.390833 164.5025 C 70.711667 164.5025 65.105 164.091667 60.295833 163.705 L 59.788333 163.705 L 59.305 163.608333 C 58.193333 163.390833 57.009167 163.294167 55.8975 163.1975 C 51.6925 162.69 46.496667 162.206667 40.89 159.5 L 40.31 159.21 L 39.8025 158.895833 C 28.903333 152.805833 24.795 143.598333 21.605 136.203333 C 21.194167 135.309167 20.8075 134.390833 20.396667 133.4 C 19.091667 130.79 18.1975 128.204167 17.496667 126.005 L 17.4 125.690833 L 17.303333 125.400833 C 14.089167 113.994167 15.200833 106.7925 21.411667 97.8025 L 21.701667 97.391667 L 21.991667 97.005 C 22.499167 96.304167 23.006667 95.7 23.49 94.999167 C 25.109167 92.896667 26.704167 90.794167 29 88.305 C 29.5075 87.7975 29.7975 87 29.894167 86.299167 L 29.990833 84.003333 L 29.894167 83.109167 L 29.894167 82.190833 C 30.111667 74.795833 33.809167 69.31 35.790833 66.289167 C 36.008333 65.999167 36.298333 65.588333 36.395 65.395 L 36.709167 64.911667 L 36.999167 64.500833 C 37.41 63.896667 38.304167 61.794167 39.101667 59.909167 C 39.391667 59.111667 39.8025 57.4925 40.31 56.211667 C 40.406667 55.800833 40.406667 55.704167 40.503333 54.81 C 40.793333 51.6925 41.590833 48.599167 42.605833 45.699167 L 42.7025 45.505833 L 42.799167 45.288333 C 43.089167 44.490833 43.306667 43.910833 43.596667 43.089167 C 44.394167 40.696667 45.6025 37.1925 48.695833 33.301667 L 49.59 32.19 L 50.508333 31.3925 C 57.299167 25.3025 64.5975 24.094167 69.6 23.804167 L 70.010833 23.804167 C 70.3975 23.804167 70.711667 23.804167 71.098333 23.804167 C 75.303333 23.804167 80.4025 25.81 83.109167 27.090833 C 83.689167 27.405 84.39 27.598333 85.090833 27.598333 C 85.791667 27.598333 86.4925 27.501667 87.193333 27.308333 C 88.909167 26.704167 90.504167 26.003333 92.0025 25.205833 C 95.41 23.2 100.9925 20.01 108.000833 19.188333 C 108.411667 19.091667 108.701667 19.091667 108.991667 19.091667 C 109.6925 18.995 110.804167 18.898333 112.205833 18.705 C 114.598333 18.511667 118.199167 18.1975 122.09 18.1975 C 128.3975 18.1975 133.593333 18.898333 137.798333 20.396667 L 137.991667 20.493333 L 138.209167 20.59 C 148.19 24.408333 152.201667 28.71 155.995833 33.591667 C 157.204167 35.210833 158.098333 36.298333 159.910833 37.893333 L 160.2975 38.304167 L 160.708333 38.690833 C 161.095 39.101667 161.505833 39.391667 161.8925 39.705833 C 163.608333 41.010833 166.508333 43.306667 168.9975 47.511667 L 169.408333 48.091667 L 169.698333 48.7925 C 173.395833 56.308333 172.211667 63.389167 171.510833 67.594167 L 171.510833 67.908333 C 171.003333 70.808333 170.205833 73.611667 168.9975 76.294167 C 168.7075 76.995 168.49 77.695833 168.296667 78.493333 C 168.2 79.000833 168.103333 79.508333 168.103333 79.895 L 168.006667 80.305833 C 167.6925 82.698333 167.209167 85.090833 166.411667 87.410833 C 165.203333 91.108333 163.390833 94.588333 161.191667 97.705833 C 157.808333 102.490833 153.893333 105.898333 149.205 108.0975 C 148.093333 108.605 147.1025 109.4025 146.401667 110.49 C 145.700833 111.505 145.29 112.81 145.193333 113.994167 C 145.193333 114.501667 145.193333 114.888333 145.193333 115.2025 C 145.410833 118.803333 145.700833 122.911667 144.903333 127.189167 C 143.598333 134.1975 140.601667 138.91 138.4025 142.39 C 138.4025 142.39 128.204167 156.6 118.9 159.5 L 117.909167 159.79 L 116.7975 160.0075 C 115.009167 160.2975 113.196667 160.490833 111.311667 160.490833 C 110.9975 160.490833 110.610833 160.490833 110.2 160.490833 C 110.006667 160.490833 109.6925 160.490833 109.4025 160.490833 C 108.991667 160.490833 108.411667 160.490833 107.493333 160.611667 L 107.106667 160.611667 C 103.505833 160.708333 100.195 160.805 99.204167 160.998333 C 98.696667 161.095 98.189167 161.191667 97.705833 161.409167 C 92.8 163.511667 85.888333 164.5025 76.390833 164.5025 Z M 76.390833 164.5025 " transform="matrix(0.161638,0,0,0.161638,0,0)"/>
</g>
<mask id="mask6">
  <g filter="url(#alpha)">
<rect x="0" y="0" width="30" height="30" style="fill:rgb(0%,0%,0%);fill-opacity:0.8;stroke:none;"/>
  </g>
</mask>
<linearGradient id="linear5" gradientUnits="userSpaceOnUse" x1="28.5352" y1="677.9645" x2="158.045" y2="818.0479" gradientTransform="matrix(1,0,0,1,0,-656)">
<stop offset="0.2057" style="stop-color:rgb(53.72549%,81.568627%,100%);stop-opacity:1;"/>
<stop offset="0.3984" style="stop-color:rgb(92.156863%,74.901961%,60.392157%);stop-opacity:1;"/>
<stop offset="0.6015" style="stop-color:rgb(63.529412%,50.196078%,92.156863%);stop-opacity:1;"/>
<stop offset="0.8411" style="stop-color:rgb(63.529412%,50.588235%,100%);stop-opacity:1;"/>
</linearGradient>
<clipPath id="clip8">
  <rect x="0" y="0" width="30" height="30"/>
</clipPath>
<g id="surface21" clip-path="url(#clip8)">
<path style="fill:none;stroke-width:0.8575;stroke-linecap:butt;stroke-linejoin:miter;stroke:url(#linear5);stroke-miterlimit:10;" d="M 76.390833 156.31 C 71.001667 156.31 65.588333 155.899167 60.996667 155.609167 L 60.61 155.609167 C 59.305 155.391667 58.096667 155.295 57.009167 155.198333 C 53.094167 154.811667 49.01 154.304167 44.611667 152.298333 L 44.2975 152.201667 L 44.0075 152.105 C 35.500833 147.295833 32.310833 140.190833 29.29 133.303333 C 28.903333 132.288333 28.395833 131.2975 27.888333 130.306667 C 26.8975 128.300833 26.1 126.101667 25.495833 123.999167 L 25.495833 123.805833 C 22.91 114.695 23.610833 110.103333 28.395833 103.095 L 28.589167 102.708333 C 29.193333 102.0075 29.700833 101.306667 30.208333 100.7025 C 32.504167 97.705833 34.51 95.095833 39.005 90.890833 C 39.295 90.600833 39.609167 90.19 39.705833 89.706667 C 39.8025 89.295833 39.8025 88.788333 39.609167 88.401667 L 38.811667 86.105833 C 38.594167 85.405 38.4975 84.6075 38.4975 83.906667 L 38.4975 82.795 C 38.690833 77.7925 41.300833 73.901667 42.9925 71.291667 C 43.306667 70.905 43.5 70.494167 43.693333 70.204167 L 43.910833 69.89 L 44.104167 69.6 C 44.998333 68.391667 46.496667 64.911667 47.294167 62.809167 C 47.511667 62.108333 47.995 60.3925 48.5025 59.111667 C 48.7925 58.096667 49.01 57.105833 49.106667 56.090833 C 49.396667 53.601667 49.904167 51.088333 50.798333 48.7925 L 50.798333 48.599167 C 51.209167 47.608333 51.499167 46.810833 51.6925 45.989167 C 52.393333 43.910833 53.190833 41.494167 55.39 38.811667 L 55.800833 38.304167 L 56.211667 37.893333 C 60.996667 33.495 66.289167 32.6975 70.300833 32.4075 L 70.494167 32.4075 C 70.711667 32.4075 71.001667 32.4075 71.195 32.4075 C 75.206667 32.4075 78.203333 34.0025 80.209167 35.09 L 80.6925 35.3075 L 80.789167 35.3075 C 81.393333 35.5975 81.804167 35.911667 82.311667 36.105 C 83.495833 36.709167 84.994167 36.9025 86.299167 36.491667 C 89.1025 35.790833 93.404167 34.099167 96.2075 32.504167 L 96.304167 32.504167 C 99.300833 30.691667 103.8925 28.105833 109.305833 27.501667 C 109.595833 27.405 110.006667 27.405 110.296667 27.405 C 110.900833 27.308333 111.988333 27.211667 113.196667 27.090833 C 115.395833 26.8975 118.803333 26.6075 122.3075 26.6075 C 127.696667 26.6075 131.998333 27.211667 135.309167 28.299167 L 135.5025 28.299167 C 143.501667 31.295833 146.498333 34.51 149.688333 38.690833 C 150.993333 40.406667 152.298333 42.001667 154.690833 44.104167 L 154.908333 44.2975 L 155.101667 44.490833 C 155.705833 45.095 156.406667 45.699167 157.204167 46.303333 C 158.605833 47.390833 160.611667 48.889167 162.303333 51.789167 L 162.496667 52.103333 L 162.69 52.393333 C 165.203333 57.589167 164.405833 62.495 163.801667 66.1925 L 163.801667 66.506667 C 163.390833 68.8025 162.810833 71.001667 161.795833 73.200833 C 161.288333 74.409167 160.901667 75.69 160.708333 76.995 C 160.611667 77.7925 160.490833 78.396667 160.394167 78.904167 L 160.2975 79.290833 C 160.104167 81.2 159.693333 82.988333 159.089167 84.800833 C 158.195 87.700833 156.793333 90.4075 155.005 92.896667 C 152.008333 97.295 148.600833 100.001667 144.105833 101.403333 C 141.906667 102.104167 140.094167 103.505833 138.91 105.390833 L 138.088333 106.405833 C 137.000833 107.710833 137.290833 112.689167 137.508333 115.71 C 137.701667 118.996667 137.895 122.404167 137.290833 125.594167 C 136.3 131.104167 133.9075 134.801667 131.805 137.991667 C 131.805 137.991667 123.999167 149.301667 116.894167 151.404167 L 116.410833 151.5975 L 115.903333 151.694167 C 114.598333 151.911667 113.196667 152.105 111.795 152.105 C 111.505 152.105 111.190833 152.105 110.804167 152.105 C 110.49 152.105 110.2 152.105 109.789167 152.105 C 109.305833 152.105 108.605 152.105 107.396667 152.201667 L 107.203333 152.201667 C 102.490833 152.395 99.590833 152.491667 97.995833 152.805833 C 96.908333 152.999167 95.893333 153.289167 94.9025 153.7 C 90.600833 155.391667 84.800833 156.31 76.390833 156.31 Z M 76.390833 156.31 " transform="matrix(0.161638,0,0,0.161638,0,0)"/>
</g>
<clipPath id="clip2">
  <rect x="0" y="0" width="30" height="30"/>
</clipPath>
<g id="surface23" clip-path="url(#clip2)">
<use xlink:href="#surface6" mask="url(#mask1)"/>
<use xlink:href="#surface9" mask="url(#mask2)"/>
<use xlink:href="#surface12" mask="url(#mask3)"/>
<use xlink:href="#surface15" mask="url(#mask4)"/>
<use xlink:href="#surface18" mask="url(#mask5)"/>
<use xlink:href="#surface21" mask="url(#mask6)"/>
</g>
</defs>
<g id="surface1">
<path style=" stroke:none;fill-rule:nonzero;fill:url(#radial0);" d="M 30 15 C 30 6.707031 23.277344 0 15 0 C 6.707031 0 0 6.707031 0 15 C 0 23.277344 6.707031 30 15 30 C 23.277344 30 30 23.277344 30 15 Z M 30 15 "/>
<path style=" stroke:none;fill-rule:nonzero;fill:rgb(100%,100%,100%);fill-opacity:1;" d="M 25.199219 10.3125 C 25.132812 10.683594 25.070312 10.863281 24.972656 11.054688 C 24.875 11.28125 24.777344 11.523438 24.683594 12.042969 C 24.648438 12.234375 24.617188 12.398438 24.601562 12.527344 L 24.601562 12.542969 C 24.570312 12.753906 24.554688 12.898438 24.472656 13.140625 C 24.40625 13.351562 24.292969 13.691406 24.019531 14.046875 C 23.792969 14.335938 23.421875 14.839844 22.921875 14.902344 C 22.871094 14.902344 22.789062 14.902344 22.742188 14.886719 C 21.320312 14.160156 20.109375 13.625 19.6875 13.511719 C 19.203125 13.367188 19.265625 12.300781 19.316406 11.363281 C 19.347656 10.941406 19.363281 10.539062 19.347656 10.199219 C 19.285156 9.003906 19.074219 7.710938 18.039062 7.078125 C 17.425781 6.707031 16.617188 6.59375 15.855469 6.59375 C 16.003906 6.53125 16.148438 6.433594 16.324219 6.335938 C 16.777344 6.078125 17.328125 5.753906 17.894531 5.691406 C 18.070312 5.671875 18.25 5.65625 18.425781 5.625 C 19.542969 5.496094 20.511719 5.382812 21.53125 5.738281 C 22 5.898438 22.9375 6.417969 23.179688 6.917969 C 23.355469 7.257812 23.648438 7.53125 24.214844 8.066406 C 24.519531 8.339844 24.714844 8.503906 24.859375 8.632812 C 25.070312 8.792969 25.101562 8.839844 25.167969 8.953125 C 25.359375 9.34375 25.296875 9.746094 25.199219 10.3125 Z M 25.199219 10.3125 "/>
<path style=" stroke:none;fill-rule:nonzero;fill:rgb(100%,100%,100%);fill-opacity:1;" d="M 20.042969 15.210938 C 20.109375 15.226562 20.140625 15.308594 20.089844 15.371094 C 19.945312 15.597656 19.769531 15.921875 19.558594 16.292969 C 19.460938 16.472656 19.363281 16.648438 19.285156 16.777344 C 19.007812 17.246094 18.992188 17.652344 18.976562 17.957031 C 18.960938 18.296875 18.945312 18.441406 18.734375 18.570312 C 18.570312 18.683594 18.394531 18.71875 17.230469 18.894531 C 17.019531 18.929688 16.941406 18.960938 16.859375 19.007812 C 16.84375 19.023438 16.808594 19.023438 16.792969 19.039062 C 16.730469 19.074219 16.664062 19.007812 16.664062 18.945312 C 16.679688 18.78125 16.679688 18.570312 16.679688 18.296875 L 16.679688 18.25 C 16.679688 18.023438 16.679688 17.828125 16.664062 17.683594 C 16.648438 17.390625 16.648438 17.261719 16.730469 17.132812 C 16.828125 16.972656 16.90625 16.921875 17.019531 16.84375 C 17.199219 16.730469 17.441406 16.585938 17.78125 16.097656 C 17.972656 15.839844 18.007812 15.695312 18.039062 15.582031 C 18.054688 15.535156 18.054688 15.515625 18.199219 15.402344 C 18.347656 15.289062 18.816406 14.933594 19.414062 15.03125 C 19.605469 15.066406 19.816406 15.128906 20.042969 15.210938 Z M 20.042969 15.210938 "/>
<path style=" stroke:none;fill-rule:nonzero;fill:rgb(100%,100%,100%);fill-opacity:1;" d="M 15.402344 20.578125 C 15.371094 20.609375 15.355469 20.625 15.308594 20.625 C 15.179688 20.625 15.097656 20.59375 15.046875 20.527344 C 14.933594 20.382812 14.953125 20.089844 14.96875 19.914062 L 15.46875 19.785156 C 15.5 20.058594 15.515625 20.429688 15.402344 20.578125 Z M 15.402344 20.578125 "/>
<path style=" stroke:none;fill-rule:nonzero;fill:rgb(100%,100%,100%);fill-opacity:1;" d="M 15.4375 18.796875 C 15.421875 18.863281 15.421875 18.945312 15.421875 19.039062 C 15.421875 19.074219 15.421875 19.105469 15.421875 19.136719 C 15.421875 19.21875 15.421875 19.347656 15.421875 19.414062 C 15.257812 19.460938 15.128906 19.460938 14.96875 19.460938 C 14.96875 19.414062 14.96875 19.332031 14.96875 19.285156 C 14.96875 19.25 14.96875 19.203125 14.96875 19.171875 C 14.96875 19.121094 14.96875 19.089844 14.96875 19.039062 C 14.96875 18.945312 14.96875 18.796875 14.984375 18.75 C 15.03125 18.75 15.082031 18.734375 15.128906 18.71875 C 15.226562 18.703125 15.371094 18.667969 15.453125 18.683594 C 15.453125 18.71875 15.453125 18.765625 15.4375 18.796875 Z M 15.4375 18.796875 "/>
<path style=" stroke:none;fill-rule:nonzero;fill:rgb(100%,100%,100%);fill-opacity:1;" d="M 14.53125 20.429688 C 14.515625 20.691406 14.433594 20.996094 14.191406 21.046875 C 14.078125 21.0625 14.03125 21.027344 13.996094 20.996094 C 13.835938 20.851562 13.820312 20.398438 13.835938 20.074219 C 13.949219 20.074219 14.078125 20.058594 14.242188 20.027344 C 14.335938 20.011719 14.433594 19.976562 14.515625 19.960938 C 14.53125 20.089844 14.546875 20.253906 14.53125 20.429688 Z M 14.53125 20.429688 "/>
<path style=" stroke:none;fill-rule:nonzero;fill:rgb(100%,100%,100%);fill-opacity:1;" d="M 14.417969 19.527344 L 13.882812 19.71875 C 13.917969 19.507812 13.949219 19.21875 13.964844 19.023438 C 13.980469 18.894531 14.015625 18.847656 14.03125 18.832031 C 14.03125 18.832031 14.046875 18.816406 14.0625 18.816406 C 14.0625 18.816406 14.0625 18.816406 14.078125 18.816406 L 14.09375 18.816406 L 14.433594 18.796875 C 14.417969 18.960938 14.417969 19.316406 14.417969 19.527344 Z M 14.417969 19.527344 "/>
<path style=" stroke:none;fill-rule:nonzero;fill:rgb(100%,100%,100%);fill-opacity:1;" d="M 13.546875 19.363281 C 13.511719 19.445312 13.480469 19.671875 13.464844 19.832031 L 12.800781 19.816406 C 12.835938 19.605469 12.898438 19.398438 12.945312 19.234375 C 13.011719 19.074219 13.058594 18.945312 13.125 18.910156 C 13.191406 18.878906 13.335938 18.863281 13.433594 18.945312 C 13.578125 19.039062 13.609375 19.1875 13.546875 19.363281 Z M 13.546875 19.363281 "/>
<path style=" stroke:none;fill-rule:nonzero;fill:rgb(100%,100%,100%);fill-opacity:1;" d="M 13.304688 21.417969 C 13.253906 21.480469 13.191406 21.53125 13.125 21.53125 C 13.042969 21.546875 12.996094 21.515625 12.945312 21.480469 C 12.738281 21.289062 12.753906 20.65625 12.769531 20.351562 C 13.042969 20.285156 13.351562 20.238281 13.496094 20.222656 C 13.496094 20.464844 13.511719 21.125 13.304688 21.417969 Z M 13.304688 21.417969 "/>
<path style=" stroke:none;fill-rule:nonzero;fill:rgb(100%,100%,100%);fill-opacity:1;" d="M 12.429688 19.785156 C 12.398438 19.867188 12.367188 19.945312 12.347656 20.027344 C 12.269531 20.058594 12.027344 20.027344 11.785156 19.976562 L 11.945312 18.929688 C 12.21875 18.847656 12.542969 18.832031 12.609375 18.910156 C 12.722656 19.023438 12.511719 19.558594 12.429688 19.785156 Z M 12.429688 19.785156 "/>
<path style=" stroke:none;fill-rule:nonzero;fill:rgb(100%,100%,100%);fill-opacity:1;" d="M 12.121094 21.5625 C 11.992188 21.722656 11.800781 21.804688 11.523438 21.789062 C 11.332031 21.789062 11.265625 21.707031 11.234375 21.660156 C 11.089844 21.417969 11.234375 20.851562 11.378906 20.496094 L 12.285156 20.542969 C 12.300781 20.609375 12.300781 20.691406 12.300781 20.769531 C 12.316406 21.046875 12.285156 21.367188 12.121094 21.5625 Z M 12.121094 21.5625 "/>
<path style=" stroke:none;fill-rule:nonzero;fill:rgb(100%,100%,100%);fill-opacity:1;" d="M 19.621094 13.917969 C 18.796875 13.691406 18.878906 12.496094 18.945312 11.332031 C 18.960938 10.925781 18.992188 10.539062 18.976562 10.214844 C 18.910156 9.132812 18.734375 7.953125 17.859375 7.417969 C 16.921875 6.851562 15.386719 6.984375 14.449219 7.097656 C 14.109375 7.191406 13.789062 7.273438 13.527344 7.257812 C 12.980469 7.226562 12.542969 7 12.15625 6.789062 C 11.863281 6.628906 11.605469 6.480469 11.347656 6.480469 C 11.332031 6.480469 11.316406 6.480469 11.316406 6.480469 C 10.585938 6.53125 10.246094 6.707031 9.941406 6.984375 C 9.859375 7.046875 9.761719 7.242188 9.457031 8.128906 C 9.292969 8.582031 9.277344 8.824219 9.246094 9.050781 C 9.214844 9.261719 9.195312 9.488281 9.085938 9.828125 C 9.003906 10.054688 8.9375 10.246094 8.890625 10.441406 C 8.746094 10.941406 8.617188 11.347656 8.257812 11.832031 C 8.210938 11.878906 8.164062 11.976562 8.097656 12.058594 C 8.015625 12.1875 7.921875 12.347656 7.773438 12.527344 C 7.679688 12.65625 7.46875 13.140625 7.484375 13.285156 C 7.5 13.527344 7.582031 13.675781 7.660156 13.835938 C 7.742188 13.996094 7.855469 14.191406 7.871094 14.464844 L 7.871094 14.515625 C 7.902344 14.933594 7.839844 15.144531 7.046875 15.855469 C 6.546875 16.308594 6.175781 16.746094 5.933594 17.070312 C 5.914062 17.101562 5.933594 17.132812 5.980469 17.132812 C 5.996094 17.132812 5.996094 17.132812 5.996094 17.132812 C 6.011719 17.132812 6.027344 17.132812 6.046875 17.132812 C 6.0625 17.132812 6.078125 17.132812 6.09375 17.132812 C 6.109375 17.132812 6.125 17.132812 6.140625 17.132812 C 6.335938 17.148438 6.53125 17.230469 6.660156 17.375 C 6.675781 17.410156 6.722656 17.410156 6.757812 17.390625 C 6.886719 17.34375 7.03125 17.34375 7.160156 17.359375 C 7.320312 17.375 7.5 17.425781 7.613281 17.539062 C 7.644531 17.570312 7.695312 17.585938 7.742188 17.570312 C 7.871094 17.539062 8.015625 17.539062 8.148438 17.585938 C 8.242188 17.617188 8.339844 17.683594 8.40625 17.765625 C 8.453125 17.8125 8.535156 17.828125 8.597656 17.796875 C 8.632812 17.78125 8.679688 17.746094 8.726562 17.730469 C 8.90625 17.667969 9.101562 17.699219 9.261719 17.765625 C 9.34375 17.796875 9.421875 17.8125 9.503906 17.878906 C 9.632812 17.972656 9.730469 18.101562 9.777344 18.25 C 9.8125 18.328125 9.925781 18.363281 9.988281 18.296875 C 10.117188 18.199219 10.214844 18.183594 10.3125 18.214844 C 10.359375 18.234375 10.394531 18.265625 10.425781 18.3125 C 10.472656 18.378906 10.554688 18.441406 10.621094 18.410156 C 10.894531 18.328125 11.21875 18.378906 11.460938 18.507812 C 11.539062 18.554688 11.636719 18.621094 11.6875 18.71875 L 11.6875 18.667969 C 11.6875 18.652344 11.703125 18.636719 11.71875 18.621094 L 11.765625 18.605469 C 11.898438 18.554688 12.574219 18.363281 12.835938 18.636719 C 12.851562 18.652344 12.867188 18.652344 12.882812 18.636719 C 12.914062 18.605469 12.945312 18.570312 12.964844 18.570312 C 13.140625 18.476562 13.433594 18.460938 13.625 18.636719 C 13.660156 18.667969 13.722656 18.652344 13.753906 18.621094 C 13.773438 18.589844 13.789062 18.570312 13.820312 18.554688 C 13.882812 18.492188 13.980469 18.476562 14.078125 18.476562 L 14.449219 18.460938 C 14.546875 18.460938 14.839844 18.425781 14.917969 18.410156 L 14.933594 18.410156 C 14.96875 18.410156 15.015625 18.394531 15.066406 18.378906 C 15.242188 18.347656 15.453125 18.296875 15.613281 18.378906 C 15.777344 18.460938 15.757812 18.636719 15.742188 18.796875 C 15.742188 18.863281 15.726562 18.929688 15.726562 18.992188 C 15.726562 19.023438 15.726562 19.058594 15.726562 19.089844 C 15.726562 19.234375 15.726562 19.363281 15.710938 19.460938 L 15.726562 19.542969 C 15.726562 19.542969 15.726562 19.542969 15.726562 19.558594 C 15.742188 19.621094 15.824219 19.671875 15.871094 19.621094 C 16.003906 19.542969 16.132812 19.445312 16.179688 19.378906 L 16.179688 19.363281 C 16.179688 19.347656 16.195312 19.316406 16.210938 19.25 C 16.226562 19.105469 16.261719 18.832031 16.261719 18.265625 C 16.261719 18.234375 16.261719 18.214844 16.261719 18.199219 C 16.261719 17.992188 16.261719 17.8125 16.246094 17.667969 C 16.226562 17.359375 16.210938 17.117188 16.375 16.875 C 16.519531 16.632812 16.664062 16.550781 16.808594 16.453125 C 16.972656 16.359375 17.148438 16.246094 17.457031 15.824219 C 17.601562 15.613281 17.617188 15.535156 17.632812 15.46875 C 17.667969 15.308594 17.714844 15.210938 17.957031 15.046875 C 18.152344 14.902344 18.71875 14.464844 19.492188 14.597656 C 19.753906 14.644531 20.15625 14.773438 20.578125 14.933594 C 20.59375 14.933594 20.609375 14.953125 20.625 14.953125 L 20.640625 14.953125 C 21.011719 15.097656 21.351562 15.257812 21.59375 15.386719 C 21.644531 15.421875 21.707031 15.402344 21.757812 15.355469 C 21.835938 15.257812 21.917969 15.210938 22 15.144531 C 22.03125 15.128906 22.0625 15.113281 22.078125 15.097656 C 22.097656 15.097656 22.097656 15.082031 22.097656 15.082031 C 22.160156 15.03125 22.160156 14.902344 22.078125 14.871094 C 20.996094 14.335938 19.960938 14.015625 19.621094 13.917969 Z M 11.832031 14.160156 C 11.574219 15.257812 9.859375 16.488281 9.085938 16.488281 L 9.066406 16.488281 C 9.050781 16.488281 9.035156 16.488281 9.035156 16.488281 C 9.019531 16.488281 9.003906 16.488281 8.988281 16.472656 C 8.972656 16.472656 8.972656 16.472656 8.953125 16.472656 C 8.808594 16.421875 8.617188 16.324219 8.46875 16.179688 C 8.371094 16.082031 8.292969 15.953125 8.257812 15.839844 C 8.257812 15.824219 8.242188 15.792969 8.242188 15.777344 C 8.195312 15.582031 8.148438 15.355469 8.308594 14.96875 C 8.324219 14.917969 8.355469 14.871094 8.371094 14.820312 C 8.371094 14.804688 8.390625 14.789062 8.390625 14.773438 C 8.40625 14.726562 8.421875 14.691406 8.4375 14.660156 C 8.453125 14.597656 8.484375 14.546875 8.503906 14.515625 C 8.503906 14.5 8.519531 14.484375 8.519531 14.464844 C 8.566406 14.335938 8.566406 14.289062 8.582031 14.242188 C 8.582031 14.207031 8.597656 14.144531 8.617188 14.078125 C 8.664062 13.867188 8.695312 13.691406 8.710938 13.546875 C 8.746094 13.269531 8.792969 13.027344 8.9375 12.800781 C 8.972656 12.769531 8.988281 12.738281 9.019531 12.703125 C 9.035156 12.6875 9.035156 12.6875 9.050781 12.671875 C 9.066406 12.65625 9.066406 12.65625 9.085938 12.640625 C 9.117188 12.609375 9.164062 12.589844 9.195312 12.574219 C 9.214844 12.574219 9.230469 12.558594 9.246094 12.558594 C 9.277344 12.542969 9.308594 12.542969 9.34375 12.527344 C 9.488281 12.496094 9.648438 12.496094 9.84375 12.511719 C 10.054688 12.527344 10.246094 12.558594 10.410156 12.609375 C 10.554688 12.640625 10.683594 12.6875 10.78125 12.738281 C 10.796875 12.738281 10.796875 12.753906 10.8125 12.753906 C 10.828125 12.769531 10.847656 12.769531 10.878906 12.785156 C 10.910156 12.800781 10.925781 12.800781 10.960938 12.816406 C 10.992188 12.835938 11.023438 12.851562 11.054688 12.867188 L 11.089844 12.882812 C 11.203125 12.929688 11.316406 12.996094 11.394531 13.058594 C 11.445312 13.09375 11.476562 13.125 11.507812 13.15625 C 11.523438 13.171875 11.539062 13.171875 11.539062 13.191406 C 11.558594 13.207031 11.558594 13.207031 11.574219 13.222656 C 11.914062 13.511719 11.898438 13.917969 11.832031 14.160156 Z M 12.640625 9.972656 L 12.609375 10.167969 C 12.527344 10.621094 12.347656 11.234375 11.703125 11.394531 C 11.070312 11.539062 10.925781 11.574219 10.492188 11.605469 C 10.472656 11.605469 10.472656 11.605469 10.457031 11.605469 C 10.132812 11.605469 9.503906 11.394531 9.390625 10.894531 C 9.328125 10.570312 9.472656 10.328125 9.699219 9.941406 C 9.730469 9.875 9.777344 9.8125 9.828125 9.730469 C 10.152344 9.195312 10.265625 8.808594 10.359375 8.503906 C 10.457031 8.195312 10.539062 7.953125 10.75 7.742188 C 10.796875 7.695312 10.847656 7.644531 10.910156 7.613281 C 10.941406 7.582031 10.992188 7.566406 11.039062 7.53125 C 11.105469 7.5 11.167969 7.484375 11.234375 7.453125 C 11.378906 7.402344 11.539062 7.386719 11.6875 7.386719 C 11.992188 7.386719 12.300781 7.46875 12.511719 7.644531 C 12.609375 7.726562 12.753906 7.871094 12.835938 8.339844 C 12.867188 8.582031 12.800781 9.019531 12.640625 9.972656 Z M 17.277344 11.265625 C 17.054688 11.652344 16.941406 11.863281 16.746094 12.027344 C 16.359375 12.347656 15.921875 12.414062 15.550781 12.414062 C 15.289062 12.414062 15.066406 12.367188 14.917969 12.347656 C 14.53125 12.285156 13.835938 12.15625 13.59375 11.589844 C 13.546875 11.476562 13.546875 11.410156 13.546875 11.316406 C 13.546875 11.234375 13.546875 11.070312 13.496094 10.734375 L 13.496094 10.714844 C 13.480469 10.554688 13.464844 10.378906 13.496094 10.152344 L 13.496094 10.117188 C 13.625 9.441406 13.675781 9.34375 13.691406 9.277344 C 13.753906 9.148438 13.917969 9.085938 14.0625 9.164062 C 14.191406 9.230469 14.242188 9.390625 14.191406 9.519531 C 14.175781 9.554688 14.144531 9.699219 14.03125 10.230469 L 14.03125 10.265625 C 13.996094 10.410156 14.015625 10.523438 14.03125 10.667969 L 14.03125 10.683594 C 14.078125 11.070312 14.078125 11.234375 14.078125 11.332031 C 14.078125 11.347656 14.078125 11.363281 14.078125 11.378906 L 14.078125 11.394531 C 14.128906 11.507812 14.222656 11.574219 14.335938 11.636719 C 14.417969 11.671875 14.5 11.605469 14.484375 11.523438 C 14.371094 10.925781 14.371094 10.230469 14.597656 9.796875 C 14.675781 9.648438 14.804688 9.421875 14.933594 9.195312 C 14.953125 9.179688 14.96875 9.148438 14.96875 9.132812 C 14.984375 9.117188 14.984375 9.101562 15 9.085938 C 15.066406 8.988281 15.113281 8.90625 15.160156 8.824219 C 15.160156 8.808594 15.179688 8.808594 15.179688 8.792969 L 15.195312 8.777344 C 15.210938 8.761719 15.210938 8.746094 15.226562 8.726562 C 15.226562 8.726562 15.226562 8.710938 15.242188 8.710938 L 15.257812 8.695312 C 15.257812 8.679688 15.273438 8.679688 15.273438 8.664062 C 15.324219 8.597656 15.371094 8.535156 15.402344 8.46875 C 15.46875 8.390625 15.386719 8.292969 15.308594 8.324219 C 15.082031 8.421875 14.933594 8.535156 14.902344 8.550781 C 14.789062 8.648438 14.613281 8.632812 14.515625 8.503906 C 14.417969 8.390625 14.433594 8.210938 14.5625 8.113281 C 14.710938 8 15.453125 7.46875 16.339844 7.710938 C 16.988281 7.886719 17.3125 8.390625 17.441406 8.566406 C 17.539062 8.710938 17.859375 9.164062 17.84375 9.8125 C 17.84375 10.28125 17.652344 10.636719 17.277344 11.265625 Z M 17.277344 11.265625 "/>
<path style=" stroke:none;fill-rule:nonzero;fill:rgb(100%,100%,100%);fill-opacity:1;" d="M 11.492188 7.953125 C 11.445312 8.066406 11.394531 8.195312 11.332031 8.339844 C 11.203125 8.679688 11.039062 9.066406 10.960938 9.214844 C 10.828125 9.457031 10.734375 9.617188 10.652344 9.730469 C 10.554688 9.875 10.492188 9.988281 10.425781 10.152344 C 10.328125 10.425781 10.3125 10.734375 10.378906 11.070312 C 10.199219 11.054688 9.925781 10.941406 9.890625 10.78125 C 9.875 10.667969 9.941406 10.554688 10.132812 10.214844 C 10.167969 10.152344 10.214844 10.070312 10.265625 10.003906 C 10.601562 9.421875 10.75 8.988281 10.847656 8.664062 C 10.960938 8.324219 11.007812 8.179688 11.183594 8.050781 C 11.296875 8 11.394531 7.96875 11.492188 7.953125 Z M 11.492188 7.953125 "/>
<path style=" stroke:none;fill-rule:nonzero;fill:rgb(100%,100%,100%);fill-opacity:1;" d="M 11.152344 20.171875 C 10.960938 20.558594 10.734375 20.914062 10.585938 21.09375 C 10.457031 20.769531 10.246094 20.011719 10.3125 19.414062 C 10.3125 19.398438 10.3125 19.378906 10.3125 19.363281 C 10.328125 19.171875 10.378906 19.007812 10.472656 18.863281 C 10.539062 18.765625 10.699219 18.71875 10.878906 18.71875 C 11.007812 18.71875 11.152344 18.75 11.28125 18.816406 C 11.347656 18.847656 11.445312 18.929688 11.445312 19.136719 C 11.476562 19.429688 11.332031 19.816406 11.152344 20.171875 Z M 11.152344 20.171875 "/>
<path style=" stroke:none;fill-rule:nonzero;fill:rgb(100%,100%,100%);fill-opacity:1;" d="M 21.496094 15.855469 C 21.515625 15.871094 21.515625 15.890625 21.515625 15.90625 C 21.464844 16.019531 21.382812 16.097656 21.304688 16.195312 C 21.207031 16.308594 21.09375 16.4375 20.996094 16.648438 C 20.851562 16.941406 20.804688 17.199219 20.785156 17.878906 C 20.753906 18.667969 20.785156 19.105469 20.820312 19.429688 C 20.835938 19.734375 20.851562 19.929688 20.804688 20.238281 C 20.691406 20.851562 20.429688 21.253906 20.089844 21.773438 C 19.671875 22.417969 19.25 23.082031 18.539062 23.292969 C 18.476562 23.308594 18.476562 23.308594 18.28125 23.308594 C 18.121094 23.308594 17.84375 23.308594 17.34375 23.324219 C 16.40625 23.355469 15.9375 23.371094 15.550781 23.453125 C 15.128906 23.535156 14.917969 23.632812 14.691406 23.710938 C 14.5 23.792969 14.320312 23.859375 13.980469 23.9375 C 13.773438 23.988281 13.464844 24.019531 12.414062 24.035156 C 11.316406 24.035156 10.652344 24.035156 9.796875 23.9375 C 8.597656 23.808594 8 23.726562 7.597656 23.519531 C 6.660156 23.015625 6.253906 22.113281 5.609375 20.625 C 5.609375 20.609375 5.625 20.59375 5.640625 20.59375 C 5.671875 20.609375 5.707031 20.625 5.738281 20.640625 C 5.769531 20.65625 5.804688 20.65625 5.820312 20.65625 C 5.882812 20.671875 5.949219 20.671875 6.011719 20.65625 C 6.027344 20.65625 6.027344 20.65625 6.046875 20.640625 C 6.0625 20.640625 6.078125 20.640625 6.078125 20.65625 C 6.125 20.769531 6.191406 20.867188 6.304688 20.933594 C 6.417969 20.996094 6.546875 20.996094 6.660156 20.996094 C 6.789062 20.996094 6.917969 20.980469 7.046875 20.964844 C 7.113281 20.964844 7.175781 20.996094 7.210938 21.046875 C 7.320312 21.335938 7.46875 21.53125 7.695312 21.5625 C 7.710938 21.5625 7.726562 21.5625 7.742188 21.5625 C 7.789062 21.5625 7.871094 21.546875 7.96875 21.480469 C 8.050781 21.417969 8.179688 21.464844 8.242188 21.546875 C 8.292969 21.628906 8.355469 21.675781 8.421875 21.722656 C 8.648438 21.949219 9.195312 22.0625 9.648438 22.0625 C 9.890625 22.0625 10.117188 22.03125 10.246094 21.964844 C 10.441406 21.871094 10.441406 21.742188 10.425781 21.675781 C 10.410156 21.578125 10.394531 21.464844 10.378906 21.367188 C 10.378906 21.351562 10.394531 21.351562 10.394531 21.367188 C 10.425781 21.433594 10.457031 21.496094 10.539062 21.515625 C 10.554688 21.515625 10.554688 21.515625 10.570312 21.515625 C 10.699219 21.515625 10.894531 21.5625 10.925781 21.675781 C 10.941406 21.742188 10.976562 21.789062 11.007812 21.851562 C 11.089844 21.964844 11.234375 22.113281 11.539062 22.128906 L 11.558594 22.128906 C 11.914062 22.128906 12.1875 22.015625 12.367188 21.789062 C 12.382812 21.773438 12.382812 21.757812 12.398438 21.742188 C 12.460938 21.644531 12.65625 21.644531 12.738281 21.722656 C 12.835938 21.804688 12.945312 21.851562 13.078125 21.851562 C 13.09375 21.851562 13.125 21.851562 13.140625 21.851562 C 13.304688 21.835938 13.433594 21.757812 13.546875 21.609375 C 13.609375 21.515625 13.660156 21.402344 13.691406 21.273438 C 13.707031 21.238281 13.753906 21.222656 13.789062 21.253906 C 13.851562 21.320312 13.964844 21.382812 14.128906 21.382812 C 14.160156 21.382812 14.207031 21.382812 14.257812 21.367188 C 14.5625 21.304688 14.726562 21.046875 14.789062 20.769531 C 14.789062 20.753906 14.804688 20.753906 14.804688 20.769531 C 14.886719 20.867188 15.03125 20.980469 15.273438 20.980469 C 15.289062 20.980469 15.308594 20.980469 15.308594 20.980469 C 15.4375 20.980469 15.550781 20.914062 15.628906 20.820312 C 15.726562 20.691406 15.757812 20.496094 15.777344 20.316406 C 15.777344 20.269531 15.808594 20.222656 15.871094 20.1875 C 16.132812 20.074219 16.453125 19.832031 16.550781 19.671875 C 16.550781 19.671875 16.550781 19.65625 16.566406 19.65625 C 16.585938 19.605469 16.632812 19.574219 16.664062 19.574219 C 16.875 19.542969 16.957031 19.492188 17.035156 19.460938 C 17.101562 19.429688 17.148438 19.414062 17.3125 19.378906 C 18.492188 19.203125 18.71875 19.152344 18.976562 18.992188 C 19.363281 18.734375 19.378906 18.378906 19.398438 18.039062 C 19.414062 17.746094 19.429688 17.425781 19.65625 17.035156 C 19.734375 16.890625 19.832031 16.730469 19.929688 16.535156 C 20.109375 16.210938 20.351562 15.757812 20.527344 15.515625 C 20.558594 15.46875 20.625 15.453125 20.671875 15.484375 C 21.078125 15.628906 21.433594 15.792969 21.496094 15.855469 Z M 21.496094 15.855469 "/>
<path style=" stroke:none;fill-rule:nonzero;fill:rgb(100%,100%,100%);fill-opacity:1;" d="M 10.023438 19.378906 C 9.972656 19.785156 9.941406 20.335938 10.003906 21.046875 C 10.023438 21.238281 10.054688 21.449219 10.085938 21.660156 C 10.039062 21.691406 9.859375 21.742188 9.570312 21.722656 C 9.148438 21.707031 8.726562 21.609375 8.597656 21.464844 L 8.582031 21.449219 C 8.484375 21.367188 8.40625 21.304688 8.40625 21.160156 C 8.40625 21.109375 8.421875 21.0625 8.46875 20.980469 C 8.503906 20.949219 8.535156 20.898438 8.566406 20.835938 C 8.632812 20.738281 8.726562 20.625 8.824219 20.464844 C 9.101562 20.011719 9.195312 19.867188 9.328125 19.6875 C 9.34375 19.671875 9.34375 19.65625 9.359375 19.640625 C 9.441406 19.542969 9.519531 19.414062 9.664062 19.203125 C 9.761719 19.058594 9.84375 18.929688 9.925781 18.832031 C 10.039062 18.667969 10.117188 18.589844 10.167969 18.539062 C 10.167969 18.605469 10.152344 18.703125 10.132812 18.796875 C 10.070312 18.992188 10.039062 19.171875 10.023438 19.378906 Z M 10.023438 19.378906 "/>
<path style=" stroke:none;fill-rule:nonzero;fill:rgb(100%,100%,100%);fill-opacity:1;" d="M 9.8125 13.011719 C 9.8125 13.027344 9.8125 13.027344 9.8125 13.011719 C 9.746094 13.09375 9.683594 13.191406 9.601562 13.351562 C 9.390625 13.804688 9.390625 14.0625 9.390625 14.273438 C 9.390625 14.386719 9.390625 14.464844 9.359375 14.5625 C 9.34375 14.628906 9.308594 14.710938 9.261719 14.789062 C 9.148438 15.066406 8.988281 15.421875 9.050781 15.90625 C 8.953125 15.855469 8.808594 15.742188 8.777344 15.695312 C 8.777344 15.664062 8.761719 15.648438 8.761719 15.613281 C 8.726562 15.46875 8.710938 15.371094 8.792969 15.144531 C 9.050781 14.5625 9.085938 14.417969 9.101562 14.257812 C 9.101562 14.222656 9.117188 14.191406 9.117188 14.144531 C 9.164062 13.917969 9.195312 13.722656 9.214844 13.5625 C 9.246094 13.320312 9.277344 13.15625 9.359375 13.042969 C 9.390625 12.996094 9.472656 12.980469 9.585938 12.980469 C 9.632812 12.980469 9.683594 12.980469 9.746094 12.996094 L 9.761719 12.996094 C 9.8125 13.011719 9.8125 13.011719 9.8125 13.011719 Z M 9.8125 13.011719 "/>
<path style=" stroke:none;fill-rule:nonzero;fill:rgb(100%,100%,100%);fill-opacity:1;" d="M 9.488281 18.78125 C 9.472656 18.636719 9.457031 18.507812 9.390625 18.363281 C 9.390625 18.363281 9.375 18.328125 9.375 18.3125 C 9.359375 18.296875 9.359375 18.28125 9.34375 18.265625 L 9.328125 18.25 C 9.308594 18.234375 9.308594 18.234375 9.292969 18.234375 L 9.277344 18.214844 C 9.261719 18.214844 9.261719 18.199219 9.246094 18.199219 L 9.230469 18.199219 C 9.148438 18.167969 9.066406 18.136719 8.972656 18.121094 C 8.953125 18.121094 8.9375 18.121094 8.9375 18.121094 C 8.921875 18.121094 8.921875 18.121094 8.90625 18.121094 L 8.890625 18.121094 C 8.875 18.121094 8.859375 18.136719 8.824219 18.136719 C 8.808594 18.136719 8.808594 18.152344 8.792969 18.152344 L 8.777344 18.167969 C 8.761719 18.183594 8.761719 18.183594 8.746094 18.199219 L 8.726562 18.214844 L 8.726562 18.234375 C 8.695312 18.28125 8.664062 18.328125 8.632812 18.378906 C 8.550781 18.492188 8.46875 18.621094 8.390625 18.734375 C 8.308594 18.847656 8.242188 18.945312 8.164062 19.058594 C 8.113281 19.121094 8.082031 19.171875 8.035156 19.234375 C 8.035156 19.25 8.015625 19.25 8.015625 19.265625 C 8.066406 19.285156 8.113281 19.285156 8.164062 19.300781 C 8.277344 19.316406 8.390625 19.332031 8.484375 19.347656 C 8.710938 19.378906 8.953125 19.398438 9.179688 19.378906 C 9.195312 19.378906 9.195312 19.378906 9.214844 19.378906 C 9.261719 19.300781 9.34375 19.203125 9.421875 19.074219 C 9.472656 19.007812 9.519531 18.945312 9.554688 18.878906 C 9.503906 18.863281 9.488281 18.816406 9.488281 18.78125 Z M 9.488281 18.78125 "/>
<path style=" stroke:none;fill-rule:nonzero;fill:rgb(100%,100%,100%);fill-opacity:1;" d="M 8.664062 19.734375 C 8.648438 19.914062 8.453125 20.367188 8.148438 20.804688 C 7.886719 21.160156 7.726562 21.253906 7.695312 21.253906 C 7.566406 21.238281 7.453125 20.933594 7.355469 20.625 C 7.320312 20.496094 7.273438 20.382812 7.257812 20.269531 C 7.191406 20.042969 7.175781 19.71875 7.191406 19.527344 C 7.453125 19.671875 7.902344 19.703125 8.550781 19.703125 C 8.582031 19.71875 8.632812 19.71875 8.664062 19.734375 Z M 8.664062 19.734375 "/>
<path style=" stroke:none;fill-rule:nonzero;fill:rgb(100%,100%,100%);fill-opacity:1;" d="M 8.210938 18.28125 C 8.097656 18.460938 7.984375 18.621094 7.871094 18.78125 C 7.808594 18.863281 7.757812 18.945312 7.695312 19.023438 C 7.660156 19.074219 7.613281 19.121094 7.582031 19.171875 C 7.484375 19.152344 7.402344 19.121094 7.304688 19.105469 C 7.226562 19.089844 7.160156 19.058594 7.078125 19.023438 C 7.0625 19.023438 7.046875 19.007812 7.03125 19.007812 C 7.015625 18.992188 7 18.960938 6.984375 18.945312 C 7.015625 18.894531 7.03125 18.832031 7.0625 18.78125 C 7.113281 18.683594 7.160156 18.589844 7.226562 18.492188 C 7.320312 18.328125 7.433594 18.152344 7.613281 18.039062 C 7.628906 18.039062 7.628906 18.023438 7.644531 18.023438 C 7.710938 17.992188 7.773438 17.957031 7.855469 17.941406 C 7.871094 17.941406 7.921875 17.941406 7.953125 17.941406 L 7.96875 17.941406 C 7.96875 17.941406 7.96875 17.941406 7.984375 17.941406 C 8 17.941406 8.015625 17.957031 8.050781 17.957031 C 8.050781 17.957031 8.066406 17.957031 8.066406 17.972656 C 8.082031 17.992188 8.097656 17.992188 8.113281 18.007812 C 8.082031 17.992188 8.148438 18.054688 8.148438 18.039062 C 8.179688 18.136719 8.195312 18.183594 8.210938 18.28125 Z M 8.210938 18.28125 "/>
<path style=" stroke:none;fill-rule:nonzero;fill:rgb(100%,100%,100%);fill-opacity:1;" d="M 7.339844 17.8125 C 7.128906 17.972656 6.984375 18.199219 6.871094 18.441406 C 6.804688 18.570312 6.742188 18.703125 6.675781 18.832031 C 6.675781 18.847656 6.660156 18.863281 6.660156 18.863281 C 6.59375 18.847656 6.53125 18.832031 6.480469 18.816406 C 6.417969 18.796875 6.351562 18.765625 6.289062 18.75 C 6.253906 18.734375 6.238281 18.71875 6.207031 18.703125 C 6.273438 18.589844 6.335938 18.476562 6.417969 18.363281 C 6.515625 18.214844 6.628906 18.054688 6.742188 17.925781 C 6.789062 17.878906 6.835938 17.8125 6.886719 17.78125 C 6.949219 17.746094 7.015625 17.746094 7.097656 17.765625 C 7.175781 17.765625 7.257812 17.765625 7.320312 17.796875 C 7.304688 17.796875 7.320312 17.8125 7.339844 17.8125 Z M 7.339844 17.8125 "/>
<path style=" stroke:none;fill-rule:nonzero;fill:rgb(100%,100%,100%);fill-opacity:1;" d="M 7.015625 20.558594 C 7 20.578125 7 20.578125 6.984375 20.59375 L 6.964844 20.59375 C 6.917969 20.59375 6.871094 20.609375 6.820312 20.609375 C 6.722656 20.609375 6.628906 20.625 6.53125 20.609375 C 6.480469 20.609375 6.433594 20.59375 6.402344 20.558594 C 6.367188 20.511719 6.351562 20.414062 6.335938 20.351562 C 6.273438 19.996094 6.273438 19.640625 6.304688 19.285156 C 6.480469 19.347656 6.675781 19.398438 6.871094 19.429688 C 6.820312 19.753906 6.902344 20.222656 6.933594 20.351562 C 6.984375 20.414062 7 20.496094 7.015625 20.558594 Z M 7.015625 20.558594 "/>
<path style=" stroke:none;fill-rule:nonzero;fill:rgb(100%,100%,100%);fill-opacity:1;" d="M 6.433594 17.699219 C 6.273438 17.894531 6.125 18.101562 5.996094 18.328125 C 5.949219 18.410156 5.882812 18.507812 5.835938 18.605469 C 5.769531 18.589844 5.707031 18.554688 5.65625 18.523438 C 5.609375 18.492188 5.558594 18.460938 5.527344 18.425781 C 5.511719 18.410156 5.480469 18.394531 5.464844 18.378906 C 5.464844 18.378906 5.445312 18.378906 5.445312 18.363281 C 5.464844 18.3125 5.496094 18.28125 5.496094 18.25 C 5.527344 18.167969 5.558594 18.101562 5.609375 18.039062 C 5.691406 17.910156 5.769531 17.78125 5.867188 17.652344 C 5.898438 17.601562 5.933594 17.554688 5.996094 17.539062 C 6.046875 17.523438 6.109375 17.539062 6.160156 17.539062 C 6.253906 17.554688 6.351562 17.617188 6.433594 17.699219 Z M 6.433594 17.699219 "/>
<path style=" stroke:none;fill-rule:nonzero;fill:rgb(100%,100%,100%);fill-opacity:1;" d="M 5.1875 18.554688 C 5.1875 18.539062 5.203125 18.539062 5.1875 18.554688 C 5.253906 18.621094 5.300781 18.667969 5.367188 18.71875 C 5.398438 18.734375 5.414062 18.765625 5.445312 18.78125 C 5.445312 18.78125 5.445312 18.78125 5.445312 18.796875 C 5.382812 19.074219 5.335938 19.363281 5.335938 19.65625 C 5.335938 19.671875 5.316406 19.671875 5.316406 19.65625 C 5.238281 19.316406 5.140625 18.765625 5.1875 18.554688 Z M 5.1875 18.554688 "/>
<path style=" stroke:none;fill-rule:nonzero;fill:rgb(100%,100%,100%);fill-opacity:1;" d="M 5.980469 19.152344 C 5.949219 19.398438 5.933594 19.640625 5.949219 19.882812 C 5.949219 20.011719 5.964844 20.140625 5.980469 20.285156 C 5.949219 20.285156 5.914062 20.285156 5.882812 20.285156 L 5.851562 20.285156 C 5.820312 20.269531 5.820312 20.269531 5.785156 20.253906 C 5.753906 20.238281 5.722656 20.1875 5.691406 20.140625 C 5.625 20.027344 5.609375 19.898438 5.609375 19.769531 C 5.59375 19.527344 5.625 19.265625 5.671875 19.023438 C 5.707031 19.039062 5.753906 19.058594 5.804688 19.074219 C 5.867188 19.105469 5.914062 19.136719 5.980469 19.152344 Z M 5.980469 19.152344 "/>
<g clip-path="url(#clip1)" clip-rule="nonzero">
<use xlink:href="#surface23" mask="url(#mask0)"/>
</g>
</g>
</svg>
