<?xml version="1.0" encoding="UTF-8"?>
<svg xmlns="http://www.w3.org/2000/svg" xmlns:xlink="http://www.w3.org/1999/xlink" width="40px" height="40px" viewBox="0 0 40 40" version="1.1">
<defs>
<radialGradient id="radial0" gradientUnits="userSpaceOnUse" cx="-109.7066" cy="-1.1131" fx="-109.7066" fy="-1.1131" r="1.0001" gradientTransform="matrix(0.000000000000001376,22.46444,-22.46444,0.000000000000001376,-5.004397,2486.586789)">
<stop offset="0.1667" style="stop-color:rgb(2.745098%,19.215686%,51.372549%);stop-opacity:1;"/>
<stop offset="1" style="stop-color:rgb(0%,32.941176%,97.647059%);stop-opacity:1;"/>
</radialGradient>
<clipPath id="clip1">
  <path d="M 40 20 C 40 8.945312 31.035156 0 20 0 C 8.945312 0 0 8.945312 0 20 C 0 31.035156 8.945312 40 20 40 C 31.035156 40 40 31.035156 40 20 Z M 40 20 "/>
</clipPath>
<filter id="alpha" filterUnits="objectBoundingBox" x="0%" y="0%" width="100%" height="100%">
  <feColorMatrix type="matrix" in="SourceGraphic" values="0 0 0 0 1 0 0 0 0 1 0 0 0 0 1 0 0 0 1 0"/>
</filter>
<mask id="mask0">
  <g filter="url(#alpha)">
<rect x="0" y="0" width="40" height="40" style="fill:rgb(0%,0%,0%);fill-opacity:0.8;stroke:none;"/>
  </g>
</mask>
<mask id="mask1">
  <g filter="url(#alpha)">
<rect x="0" y="0" width="40" height="40" style="fill:rgb(0%,0%,0%);fill-opacity:0.8;stroke:none;"/>
  </g>
</mask>
<linearGradient id="linear0" gradientUnits="userSpaceOnUse" x1="-12.9962" y1="635.1351" x2="199.6316" y2="858.3003" gradientTransform="matrix(1,0,0,1,0,-656)">
<stop offset="0.2057" style="stop-color:rgb(53.72549%,81.568627%,100%);stop-opacity:1;"/>
<stop offset="0.3984" style="stop-color:rgb(92.156863%,74.901961%,60.392157%);stop-opacity:1;"/>
<stop offset="0.6015" style="stop-color:rgb(92.156863%,50.980392%,50.196078%);stop-opacity:1;"/>
<stop offset="0.8411" style="stop-color:rgb(63.529412%,50.588235%,100%);stop-opacity:1;"/>
</linearGradient>
<clipPath id="clip3">
  <rect x="0" y="0" width="40" height="40"/>
</clipPath>
<g id="surface6" clip-path="url(#clip3)">
<path style="fill:none;stroke-width:1.0554;stroke-linecap:butt;stroke-linejoin:miter;stroke:url(#linear0);stroke-miterlimit:10;" d="M 76.396875 196.493125 C 69.6 196.493125 63.201875 196.094375 57.800625 195.695625 L 56.29625 195.605 L 54.791875 195.405625 C 54.103125 195.296875 53.305625 195.20625 52.399375 195.0975 C 47.1975 194.499375 37.500625 193.5025 26.806875 188.5 L 25.103125 187.7025 L 23.59875 186.79625 C 3.00875 175.19625 -4.60375 157.905 -8.80875 148.606875 C -9.09875 148.00875 -9.406875 147.301875 -9.696875 146.595 C -11.799375 142.299375 -13.104375 138.493125 -14.191875 134.904375 L -14.39125 134.106875 L -14.60875 133.29125 C -17.599375 122.70625 -18.30625 113.6075 -17.00125 104.50875 C -15.605625 95.391875 -12.306875 87.199375 -6.398125 78.499375 L -3.4075 73.605625 C -2.79125 72.60875 -2.3925 71.503125 -2.1025 70.3975 C 0.199375 58.996875 5.40125 50.895 7.993125 46.998125 C 8.7 42.30375 9.89625 37.7 11.49125 33.205 L 11.70875 32.498125 L 11.99875 31.79125 C 11.99875 31.700625 12.1075 31.50125 12.198125 31.193125 C 13.394375 27.695 16.095 19.593125 23.000625 11.001875 L 25.5925 7.993125 L 28.293125 5.600625 C 35.108125 -0.598125 43.300625 -5.201875 52.09125 -7.79375 C 57.003125 -9.298125 62.09625 -10.204375 67.298125 -10.494375 L 68.494375 -10.494375 C 69.400625 -10.494375 70.306875 -10.603125 71.104375 -10.603125 C 74.294375 -10.603125 77.5025 -10.295 80.6925 -9.805625 C 82.704375 -9.4975 84.698125 -9.696875 86.60125 -10.494375 C 92.093125 -12.79625 97.8025 -14.300625 103.693125 -15.098125 C 104.200625 -15.206875 104.599375 -15.206875 104.998125 -15.2975 C 105.904375 -15.40625 107.40875 -15.605625 109.203125 -15.805 C 112.3025 -16.095 117.105625 -16.49375 122.19875 -16.49375 C 132.294375 -16.49375 140.994375 -15.206875 148.80625 -12.50625 L 149.495 -12.306875 L 150.093125 -12.1075 C 167.29375 -5.600625 175.99375 3.498125 182.30125 11.400625 L 182.59125 11.799375 L 183.4975 12.596875 C 189.206875 17.00125 193.991875 22.493125 197.798125 28.60125 L 198.994375 30.504375 L 199.99125 32.498125 C 208.40125 49.608125 205.700625 65.50375 204.70375 71.394375 L 204.595 71.7025 C 203.90625 76.106875 202.691875 80.4025 201.205625 84.6075 C 200.6075 88.595 199.70125 92.600625 198.39625 96.406875 C 196.203125 103.20375 192.904375 109.6925 188.699375 115.4925 C 186.306875 118.9 183.4975 122.19875 180.506875 125.09875 C 179.40125 126.095625 178.694375 127.49125 178.495 128.995625 C 178.404375 129.901875 178.205 130.808125 178.09625 131.69625 C 175.595 144.89125 169.90375 154.09875 167.493125 157.79625 L 160.40625 168.000625 C 151.796875 178.694375 141.5925 185.70875 129.30375 189.496875 L 126.295 190.403125 L 123.105 191.00125 C 119.4075 191.708125 115.691875 191.998125 111.90375 191.998125 C 111.39625 191.998125 110.906875 191.998125 110.30875 191.998125 L 108.804375 191.998125 C 107.40875 191.998125 105.995 192.30625 104.599375 192.705 C 96.406875 195.296875 87.39875 196.493125 76.396875 196.493125 Z M 76.396875 196.493125 " transform="matrix(0.215517,0,0,0.215517,0,0)"/>
</g>
<mask id="mask2">
  <g filter="url(#alpha)">
<rect x="0" y="0" width="40" height="40" style="fill:rgb(0%,0%,0%);fill-opacity:0.8;stroke:none;"/>
  </g>
</mask>
<linearGradient id="linear1" gradientUnits="userSpaceOnUse" x1="-4.751" y1="644.7373" x2="191.2685" y2="851.3126" gradientTransform="matrix(1,0,0,1,0,-656)">
<stop offset="0.2057" style="stop-color:rgb(53.72549%,81.568627%,100%);stop-opacity:1;"/>
<stop offset="0.3984" style="stop-color:rgb(92.156863%,74.901961%,60.392157%);stop-opacity:1;"/>
<stop offset="0.6015" style="stop-color:rgb(92.156863%,50.196078%,85.490196%);stop-opacity:1;"/>
<stop offset="0.8411" style="stop-color:rgb(63.529412%,50.588235%,100%);stop-opacity:1;"/>
</linearGradient>
<clipPath id="clip4">
  <rect x="0" y="0" width="40" height="40"/>
</clipPath>
<g id="surface9" clip-path="url(#clip4)">
<path style="fill:none;stroke-width:1.0554;stroke-linecap:butt;stroke-linejoin:miter;stroke:url(#linear1);stroke-miterlimit:10;" d="M 76.396875 189.40625 C 69.908125 189.40625 63.600625 189.0075 58.39875 188.60875 L 57.2025 188.5 L 56.00625 188.300625 C 55.20875 188.191875 54.3025 188.10125 53.39625 187.9925 C 48.303125 187.503125 39.893125 186.50625 30.504375 182.101875 L 29.10875 181.395 L 27.80375 180.70625 C 9.4975 170.5925 2.79125 155.494375 -1.19625 146.504375 C -1.504375 145.90625 -1.794375 145.10875 -2.193125 144.401875 C -4.09625 140.595625 -5.2925 137.006875 -6.3075 133.79875 L -6.506875 133.091875 L -6.70625 132.49375 C -9.298125 122.99625 -10.005 115.003125 -8.80875 107.100625 C -7.594375 99.306875 -4.60375 92.0025 0.598125 84.408125 L 4.495 78.100625 C 5.201875 76.995 5.69125 75.708125 5.90875 74.403125 C 7.79375 63.600625 12.905 56.00625 15.206875 52.508125 L 15.496875 52.09125 L 15.605625 51.891875 C 15.605625 51.80125 15.69625 51.6925 15.69625 51.601875 C 15.805 51.094375 16.004375 50.695625 16.095 50.296875 C 16.693125 45.8925 17.79875 41.50625 19.303125 37.30125 L 19.701875 36.105 C 19.7925 35.905625 19.7925 35.70625 19.991875 35.108125 C 21.0975 31.79125 23.399375 24.90375 29.39875 17.50875 L 31.591875 14.89875 L 33.803125 12.905 C 39.69375 7.50375 46.79875 3.498125 54.393125 1.305 C 58.7975 0 63.201875 -0.7975 67.805625 -0.996875 L 68.8025 -0.996875 C 69.6 -0.996875 70.306875 -1.105625 70.995625 -1.105625 C 74.294375 -1.105625 77.5025 -1.99375 80.6925 -1.395625 C 83.19375 -0.90625 85.695 -1.19625 87.996875 -2.193125 C 92.2925 -4.09625 98.0925 -4.803125 104.708125 -5.69125 C 105.1975 -5.8 105.59625 -5.8 105.904375 -5.90875 C 106.7925 -5.999375 108.20625 -6.19875 109.80125 -6.3075 C 112.70125 -6.5975 117.19625 -6.905625 122.108125 -6.905625 C 131.2975 -6.905625 139.09125 -5.69125 145.996875 -3.4075 L 146.595 -3.208125 L 147.1025 -3.00875 C 162.29125 2.79125 169.795 10.40375 175.70375 17.9075 C 175.99375 18.30625 176.3925 18.705 176.50125 18.904375 L 176.591875 18.995 L 177.6975 19.991875 L 177.80625 20.19125 C 182.899375 24.10625 187.195 28.89125 190.49375 34.2925 L 191.50875 35.905625 L 192.30625 37.59125 C 199.501875 52.30875 197.30875 65.79375 196.29375 71.503125 L 196.203125 71.793125 C 195.49625 75.998125 194.40875 80.00375 192.904375 83.99125 C 192.396875 87.7975 191.50875 91.60375 190.294375 95.1925 C 188.300625 101.191875 185.400625 106.90125 181.703125 112.103125 C 179.201875 115.691875 176.193125 119.00875 173.003125 121.90875 C 171.49875 123.304375 170.501875 125.09875 170.3025 127.20125 C 170.103125 128.705625 169.90375 130.10125 169.704375 131.605625 C 167.493125 143.29625 162.50875 151.3075 160.098125 154.89625 L 154.298125 163.30625 C 146.595 173.2025 137.49625 179.600625 126.494375 183.008125 L 123.993125 183.805625 L 121.2925 184.295 C 118.1025 184.893125 114.80375 185.20125 111.595625 185.0925 C 111.10625 185.0925 110.59875 185.0925 110.09125 185.0925 L 109.6925 185.0925 C 109.6925 185.0925 109.601875 185.0925 109.4025 185.0925 L 107.100625 185.0925 C 105.59625 185.20125 104.091875 185.400625 102.605625 185.908125 C 95.30125 188.300625 86.800625 189.40625 76.396875 189.40625 Z M 76.396875 189.40625 " transform="matrix(0.215517,0,0,0.215517,0,0)"/>
</g>
<mask id="mask3">
  <g filter="url(#alpha)">
<rect x="0" y="0" width="40" height="40" style="fill:rgb(0%,0%,0%);fill-opacity:0.8;stroke:none;"/>
  </g>
</mask>
<linearGradient id="linear2" gradientUnits="userSpaceOnUse" x1="3.5765" y1="653.0396" x2="182.9841" y2="843.0211" gradientTransform="matrix(1,0,0,1,0,-656)">
<stop offset="0.2057" style="stop-color:rgb(53.72549%,81.568627%,100%);stop-opacity:1;"/>
<stop offset="0.3984" style="stop-color:rgb(92.156863%,74.901961%,60.392157%);stop-opacity:1;"/>
<stop offset="0.6015" style="stop-color:rgb(92.156863%,50.980392%,50.196078%);stop-opacity:1;"/>
<stop offset="0.8411" style="stop-color:rgb(63.529412%,50.588235%,100%);stop-opacity:1;"/>
</linearGradient>
<clipPath id="clip5">
  <rect x="0" y="0" width="40" height="40"/>
</clipPath>
<g id="surface12" clip-path="url(#clip5)">
<path style="fill:none;stroke-width:0.9894;stroke-linecap:butt;stroke-linejoin:miter;stroke:url(#linear2);stroke-miterlimit:10;" d="M 76.396875 181.105 C 70.198125 181.105 64.108125 180.70625 58.996875 180.3075 L 58 180.19875 L 57.003125 180.108125 C 56.096875 179.999375 55.1 179.90875 54.103125 179.8 C 49.3 179.2925 41.995625 178.495 33.803125 174.598125 L 32.6975 174.10875 L 31.700625 173.4925 C 16.004375 164.701875 10.204375 151.70625 6.398125 143.096875 C 6.108125 142.408125 5.69125 141.501875 5.40125 140.795 C 3.6975 137.405625 2.591875 134.1975 1.70375 131.206875 L 1.504375 130.699375 L 1.395625 130.191875 C -0.90625 121.999375 -1.504375 115.003125 -0.5075 108.405625 C 0.5075 101.699375 3.208125 95.391875 7.79375 88.70375 L 8.391875 87.90625 L 9.008125 87.10875 C 9.406875 86.60125 9.696875 86.09375 10.095625 85.695 L 12.3975 81.399375 C 13.195 80.00375 13.7025 78.499375 13.901875 76.904375 C 15.40625 67.298125 19.991875 60.3925 22.094375 57.2025 C 22.203125 57.003125 22.4025 56.80375 22.493125 56.695 L 23.000625 56.00625 C 23.2 55.6075 23.399375 55.1 23.59875 54.501875 C 23.798125 53.90375 24.10625 52.9975 24.305625 52.2 C 24.795 48.10375 25.791875 44.098125 27.205625 40.20125 L 27.405 39.69375 L 27.604375 39.204375 C 27.695 38.805625 27.894375 38.4975 28.09375 37.80875 C 29.10875 34.69125 30.99375 29 36.105 22.80125 L 37.80875 20.69875 L 39.603125 19.10375 C 44.605625 14.5 50.605 11.20125 57.09375 9.2075 C 60.9 8.101875 64.70625 7.395 68.69375 7.195625 L 69.49125 7.195625 C 70.1075 7.195625 70.705625 7.195625 71.394375 7.195625 C 74.801875 7.195625 78.100625 7.594375 81.399375 8.500625 C 84.20875 9.2075 87.199375 8.899375 89.79125 7.594375 C 93.99625 5.600625 99.596875 3.4075 106.10375 2.591875 C 106.5025 2.50125 106.90125 2.50125 107.19125 2.3925 C 108.006875 2.301875 109.29375 2.1025 110.906875 1.99375 C 113.6075 1.70375 117.903125 1.395625 122.398125 1.395625 C 130.60875 1.395625 137.49625 2.3925 143.604375 4.495 L 144.401875 4.89375 C 158.394375 10.204375 164.593125 17.091875 169.39625 23.2 C 170.501875 24.505 170.5925 24.704375 171.299375 25.393125 L 172.205625 26.20875 L 172.495625 26.6075 C 174.7975 28.401875 179.491875 32.099375 183.60625 38.805625 L 184.40375 40.0925 L 185.0925 41.3975 C 191.200625 53.704375 189.2975 64.905625 188.39125 70.306875 L 188.300625 70.596875 C 187.7025 74.49375 186.596875 78.40875 185.001875 82.10625 L 185.001875 82.39625 C 184.603125 85.894375 183.805625 89.3925 182.7 92.69125 C 180.99625 98.001875 178.495 102.895625 175.19625 107.40875 C 172.495625 111.305625 169.196875 114.80375 165.499375 117.794375 C 164.593125 118.50125 163.904375 119.4075 163.396875 120.404375 C 162.9075 121.40125 162.599375 122.506875 162.50875 123.594375 C 162.4 125.805625 162.091875 127.99875 161.693125 130.191875 C 159.808125 140.305625 155.40375 147.301875 153.1925 150.8 L 148.6975 157.3975 C 141.99125 166.405625 133.998125 172.205625 124.30125 175.19625 L 122.3075 175.794375 L 120.09625 176.193125 C 117.395625 176.700625 114.604375 176.9 111.795 176.9 C 111.39625 176.9 110.906875 176.9 110.399375 176.9 L 109.80125 176.9 C 109.6925 176.9 109.493125 176.9 109.00375 176.9 L 108.0975 176.9 L 105.795625 177.00875 C 104.200625 177.099375 102.605625 177.29875 101.10125 177.896875 C 94.195625 180.108125 86.293125 181.105 76.396875 181.105 Z M 76.396875 181.105 " transform="matrix(0.215517,0,0,0.215517,0,0)"/>
</g>
<mask id="mask4">
  <g filter="url(#alpha)">
<rect x="0" y="0" width="40" height="40" style="fill:rgb(0%,0%,0%);fill-opacity:0.8;stroke:none;"/>
  </g>
</mask>
<linearGradient id="linear3" gradientUnits="userSpaceOnUse" x1="11.8926" y1="661.3707" x2="174.6515" y2="834.707" gradientTransform="matrix(1,0,0,1,0,-656)">
<stop offset="0.2057" style="stop-color:rgb(53.72549%,81.568627%,100%);stop-opacity:1;"/>
<stop offset="0.3984" style="stop-color:rgb(92.156863%,74.901961%,60.392157%);stop-opacity:1;"/>
<stop offset="0.6015" style="stop-color:rgb(92.156863%,50.196078%,90.588235%);stop-opacity:1;"/>
<stop offset="0.8411" style="stop-color:rgb(63.529412%,50.588235%,100%);stop-opacity:1;"/>
</linearGradient>
<clipPath id="clip6">
  <rect x="0" y="0" width="40" height="40"/>
</clipPath>
<g id="surface15" clip-path="url(#clip6)">
<path style="fill:none;stroke-width:0.9235;stroke-linecap:butt;stroke-linejoin:miter;stroke:url(#linear3);stroke-miterlimit:10;" d="M 76.396875 172.80375 C 70.50625 172.80375 64.5975 172.405 59.70375 172.00625 L 58.996875 171.8975 L 58.308125 171.806875 C 57.293125 171.698125 56.205625 171.49875 55.20875 171.408125 C 50.695625 170.900625 44.496875 170.19375 37.500625 167.00375 L 35.905625 166.20625 C 22.601875 158.7025 17.708125 147.700625 14.10125 139.7075 C 13.7025 138.891875 13.30375 138.00375 12.995625 137.20625 C 11.49125 134.106875 10.494375 131.206875 9.696875 128.705625 L 9.60625 128.306875 L 9.298125 127.99875 C 5.40125 114.205625 6.905625 104.50875 14.5 93.398125 L 15.2975 92.201875 C 15.805 91.60375 16.294375 90.896875 16.801875 90.29875 C 17.50875 89.3925 18.1975 88.395625 18.995 87.5075 C 19.5025 86.89125 19.90125 86.2025 20.19125 85.495625 L 21.0975 83.3025 C 21.49625 82.305625 21.695625 81.30875 21.804375 80.29375 C 22.601875 71.394375 26.8975 64.99625 29 61.80625 C 29.199375 61.606875 29.39875 61.208125 29.5075 61.099375 L 29.996875 60.301875 L 30.19625 60.1025 C 30.504375 59.595 30.99375 58.39875 31.3925 57.2025 C 31.591875 56.405 32.00875 55.1 32.4075 53.994375 L 32.4075 53.90375 C 32.80625 50.20625 33.694375 46.50875 34.999375 42.9925 L 35.108125 42.7025 L 35.19875 42.394375 C 35.398125 41.79625 35.5975 41.306875 35.796875 40.6 C 36.703125 37.899375 38.2075 33.295625 42.30375 28.2025 L 43.60875 26.6075 L 44.895625 25.393125 C 54.5925 16.6025 65.395 15.895625 69.001875 15.605625 L 69.6 15.605625 C 70.1075 15.605625 70.596875 15.605625 71.104375 15.605625 C 75.4 15.605625 79.605 16.49375 83.5925 18.1975 C 84.299375 18.505625 85.096875 18.59625 85.80375 18.59625 C 86.60125 18.59625 87.308125 18.396875 87.996875 17.998125 C 91.694375 15.895625 98.400625 11.99875 106.991875 11.001875 C 107.40875 10.893125 107.8075 10.893125 108.0975 10.893125 C 108.895 10.8025 110.09125 10.69375 111.505 10.494375 C 114.096875 10.295 117.99375 10.005 122.19875 10.005 C 129.503125 10.005 135.5025 10.893125 140.595625 12.596875 L 140.90375 12.705625 L 141.19375 12.79625 C 153.1925 17.29125 158.30375 23.000625 162.599375 28.401875 C 163.705 29.90625 164.303125 30.504375 165.499375 31.700625 L 166.20625 32.29875 L 166.695625 32.896875 L 167.094375 33.205 C 169.10625 34.8 172.894375 37.7 176.301875 43.191875 L 176.9 44.206875 L 177.4075 45.20375 C 182.30125 55.20875 180.70625 64.19875 179.90875 69.001875 L 179.90875 69.291875 C 179.2925 72.808125 178.295625 76.30625 176.9 79.605 L 176.79125 79.895 C 176.79125 80.00375 176.79125 80.00375 176.700625 80.203125 C 176.591875 80.493125 176.591875 80.80125 176.591875 81.09125 L 176.50125 81.508125 C 176.193125 84.49875 175.504375 87.39875 174.5075 90.208125 C 173.003125 94.703125 170.900625 98.908125 168.09125 102.69625 C 165.40875 106.593125 162.29125 109.80125 158.901875 112.3025 C 157.3975 113.408125 156.20125 114.80375 155.295 116.5075 C 154.406875 118.193125 154.008125 120.005625 154.008125 121.90875 C 154.008125 124.1925 153.7 126.603125 153.30125 128.905 C 151.70625 137.49625 148.099375 143.29625 145.7975 146.794375 L 142.49875 151.70625 C 136.69875 159.808125 129.793125 164.991875 121.491875 167.601875 L 121.093125 167.6925 C 120.404375 167.891875 119.6975 168.09125 119.00875 168.2 L 118.50125 168.30875 C 116.199375 168.7075 113.8975 168.906875 111.595625 168.906875 C 111.196875 168.906875 110.798125 168.906875 110.399375 168.906875 L 110.30875 168.906875 C 110.09125 168.906875 109.891875 168.906875 109.6925 168.906875 C 109.493125 168.906875 109.094375 168.906875 108.296875 168.906875 L 107.69875 168.906875 C 106.593125 168.906875 105.1975 168.9975 104.00125 168.9975 C 102.2975 169.10625 100.7025 169.39625 99.1075 169.994375 C 93.108125 171.806875 85.80375 172.80375 76.396875 172.80375 Z M 76.396875 172.80375 " transform="matrix(0.215517,0,0,0.215517,0,0)"/>
</g>
<mask id="mask5">
  <g filter="url(#alpha)">
<rect x="0" y="0" width="40" height="40" style="fill:rgb(0%,0%,0%);fill-opacity:0.8;stroke:none;"/>
  </g>
</mask>
<linearGradient id="linear4" gradientUnits="userSpaceOnUse" x1="20.1602" y1="669.7178" x2="166.3016" y2="826.3961" gradientTransform="matrix(1,0,0,1,0,-656)">
<stop offset="0.2057" style="stop-color:rgb(53.72549%,81.568627%,100%);stop-opacity:1;"/>
<stop offset="0.3984" style="stop-color:rgb(92.156863%,74.901961%,60.392157%);stop-opacity:1;"/>
<stop offset="0.6015" style="stop-color:rgb(92.156863%,50.196078%,82.745098%);stop-opacity:1;"/>
<stop offset="0.8411" style="stop-color:rgb(63.529412%,50.588235%,100%);stop-opacity:1;"/>
</linearGradient>
<clipPath id="clip7">
  <rect x="0" y="0" width="40" height="40"/>
</clipPath>
<g id="surface18" clip-path="url(#clip7)">
<path style="fill:none;stroke-width:0.8575;stroke-linecap:butt;stroke-linejoin:miter;stroke:url(#linear4);stroke-miterlimit:10;" d="M 76.396875 164.5025 C 70.705625 164.5025 65.105 164.10375 60.301875 163.705 L 59.794375 163.705 L 59.305 163.59625 C 58.199375 163.396875 57.003125 163.30625 55.8975 163.1975 C 51.6925 162.708125 46.50875 162.200625 40.908125 159.5 L 40.291875 159.191875 L 39.8025 158.901875 C 28.89125 152.79375 24.795 143.604375 21.605 136.19125 C 21.20625 135.303125 20.8075 134.396875 20.40875 133.4 C 19.10375 130.808125 18.1975 128.198125 17.50875 126.005 L 17.4 125.696875 L 17.29125 125.406875 C 14.10125 114.00625 15.206875 106.7925 21.405625 97.8025 L 21.695625 97.40375 L 22.00375 97.005 C 22.493125 96.298125 23.000625 95.7 23.508125 94.993125 C 25.103125 92.90875 26.698125 90.80625 29 88.305 C 29.5075 87.7975 29.7975 87 29.90625 86.293125 L 29.996875 83.99125 L 29.90625 83.103125 L 29.90625 82.196875 C 30.105625 74.801875 33.803125 69.291875 35.796875 66.30125 C 35.99625 65.993125 36.304375 65.594375 36.395 65.395 L 36.703125 64.905625 L 36.993125 64.506875 C 37.391875 63.90875 38.298125 61.80625 39.095625 59.903125 C 39.40375 59.105625 39.8025 57.4925 40.291875 56.205625 C 40.400625 55.806875 40.400625 55.698125 40.49125 54.791875 C 40.799375 51.6925 41.596875 48.593125 42.59375 45.693125 L 42.7025 45.49375 L 42.793125 45.294375 C 43.10125 44.496875 43.300625 43.89875 43.60875 43.10125 C 44.40625 40.70875 45.6025 37.1925 48.701875 33.295625 L 49.608125 32.208125 L 50.49625 31.3925 C 57.293125 25.3025 64.5975 24.10625 69.6 23.798125 L 69.99875 23.798125 C 70.3975 23.798125 70.705625 23.798125 71.104375 23.798125 C 75.29125 23.798125 80.4025 25.791875 83.103125 27.096875 C 83.70125 27.405 84.408125 27.604375 85.096875 27.604375 C 85.80375 27.604375 86.4925 27.495625 87.199375 27.29625 C 88.903125 26.698125 90.498125 25.99125 92.0025 25.19375 C 95.391875 23.2 100.9925 19.991875 108.006875 19.194375 C 108.405625 19.10375 108.695625 19.10375 109.00375 19.10375 C 109.6925 18.995 110.798125 18.904375 112.19375 18.705 C 114.604375 18.505625 118.193125 18.1975 122.108125 18.1975 C 128.3975 18.1975 133.599375 18.904375 137.804375 20.40875 L 138.00375 20.499375 L 138.203125 20.608125 C 148.208125 24.39625 152.195625 28.691875 156.001875 33.60375 C 157.198125 35.19875 158.104375 36.304375 159.89875 37.899375 L 160.69625 38.696875 C 161.095 39.095625 161.49375 39.40375 161.8925 39.69375 C 163.59625 40.99875 166.49625 43.300625 168.9975 47.505625 L 169.39625 48.10375 L 169.704375 48.7925 C 173.401875 56.29625 172.205625 63.40125 171.49875 67.60625 L 171.49875 67.89625 C 170.99125 70.79625 170.19375 73.605625 168.9975 76.30625 C 168.7075 76.995 168.508125 77.701875 168.30875 78.499375 C 168.2 79.006875 168.09125 79.49625 168.09125 79.895 L 168.000625 80.29375 C 167.6925 82.704375 167.203125 85.096875 166.405625 87.39875 C 165.19125 91.09625 163.396875 94.594375 161.20375 97.69375 C 157.79625 102.496875 153.899375 105.904375 149.205 108.0975 C 148.099375 108.605 147.1025 109.4025 146.395625 110.508125 C 145.706875 111.505 145.308125 112.791875 145.199375 114.00625 C 145.199375 114.495625 145.199375 114.894375 145.199375 115.2025 C 145.39875 118.79125 145.706875 122.905625 144.89125 127.20125 C 143.604375 134.1975 140.595625 138.891875 138.4025 142.408125 C 138.4025 142.408125 128.198125 156.6 118.9 159.5 L 117.903125 159.808125 L 116.7975 160.0075 C 115.003125 160.2975 113.20875 160.496875 111.305625 160.496875 C 110.9975 160.496875 110.59875 160.496875 110.2 160.496875 C 110.000625 160.496875 109.6925 160.496875 109.4025 160.496875 C 109.00375 160.496875 108.405625 160.496875 107.499375 160.605625 L 107.100625 160.605625 C 103.49375 160.69625 100.195 160.805 99.198125 161.004375 C 98.70875 161.095 98.20125 161.20375 97.69375 161.403125 C 92.8 163.505625 85.894375 164.5025 76.396875 164.5025 Z M 76.396875 164.5025 " transform="matrix(0.215517,0,0,0.215517,0,0)"/>
</g>
<mask id="mask6">
  <g filter="url(#alpha)">
<rect x="0" y="0" width="40" height="40" style="fill:rgb(0%,0%,0%);fill-opacity:0.8;stroke:none;"/>
  </g>
</mask>
<linearGradient id="linear5" gradientUnits="userSpaceOnUse" x1="28.5352" y1="677.9645" x2="158.045" y2="818.0479" gradientTransform="matrix(1,0,0,1,0,-656)">
<stop offset="0.2057" style="stop-color:rgb(53.72549%,81.568627%,100%);stop-opacity:1;"/>
<stop offset="0.3984" style="stop-color:rgb(92.156863%,74.901961%,60.392157%);stop-opacity:1;"/>
<stop offset="0.6015" style="stop-color:rgb(63.529412%,50.196078%,92.156863%);stop-opacity:1;"/>
<stop offset="0.8411" style="stop-color:rgb(63.529412%,50.588235%,100%);stop-opacity:1;"/>
</linearGradient>
<clipPath id="clip8">
  <rect x="0" y="0" width="40" height="40"/>
</clipPath>
<g id="surface21" clip-path="url(#clip8)">
<path style="fill:none;stroke-width:0.8575;stroke-linecap:butt;stroke-linejoin:miter;stroke:url(#linear5);stroke-miterlimit:10;" d="M 76.396875 156.291875 C 70.995625 156.291875 65.594375 155.893125 61.00875 155.603125 L 60.591875 155.603125 C 59.305 155.40375 58.10875 155.295 57.003125 155.204375 C 53.10625 154.805625 48.991875 154.298125 44.605625 152.304375 L 44.2975 152.195625 L 44.0075 152.105 C 35.506875 147.301875 32.29875 140.196875 29.308125 133.29125 C 28.89125 132.294375 28.401875 131.2975 27.894375 130.300625 C 26.8975 128.306875 26.1 126.095625 25.501875 123.993125 L 25.501875 123.79375 C 22.891875 114.695 23.59875 110.09125 28.401875 103.095 L 28.4925 102.895625 L 28.60125 102.69625 C 29.199375 102.0075 29.706875 101.300625 30.19625 100.7025 C 32.498125 97.69375 34.491875 95.101875 39.005 90.896875 C 39.295 90.606875 39.603125 90.208125 39.69375 89.700625 C 39.8025 89.301875 39.8025 88.794375 39.603125 88.395625 L 38.805625 86.09375 C 38.60625 85.405 38.4975 84.6075 38.4975 83.900625 L 38.4975 82.795 C 38.696875 77.7925 41.306875 73.895625 42.9925 71.30375 C 43.300625 70.905 43.5 70.50625 43.699375 70.198125 L 43.89875 69.908125 L 44.098125 69.6 C 45.004375 68.40375 46.50875 64.905625 47.30625 62.803125 C 47.505625 62.09625 47.995 60.3925 48.5025 59.105625 C 48.7925 58.10875 48.991875 57.09375 49.100625 56.096875 C 49.40875 53.595625 49.898125 51.094375 50.804375 48.7925 L 50.804375 48.593125 C 51.203125 47.59625 51.493125 46.79875 51.6925 46.00125 C 52.399375 43.89875 53.196875 41.50625 55.408125 38.805625 L 55.806875 38.298125 L 56.205625 37.899375 C 61.00875 33.495 66.30125 32.6975 70.306875 32.4075 L 70.50625 32.4075 C 70.705625 32.4075 70.995625 32.4075 71.195 32.4075 C 75.200625 32.4075 78.19125 34.0025 80.203125 35.108125 L 80.6925 35.3075 L 80.80125 35.3075 C 81.399375 35.5975 81.798125 35.905625 82.305625 36.105 C 83.501875 36.703125 85.00625 36.9025 86.293125 36.50375 C 89.1025 35.796875 93.398125 34.093125 96.2075 32.498125 L 96.298125 32.498125 C 99.306875 30.70375 103.8925 28.09375 109.29375 27.495625 C 109.601875 27.405 110.000625 27.405 110.30875 27.405 C 110.906875 27.29625 111.994375 27.205625 113.20875 27.096875 C 115.401875 26.8975 118.79125 26.6075 122.3075 26.6075 C 127.70875 26.6075 132.004375 27.205625 135.303125 28.293125 L 135.5025 28.293125 C 143.495625 31.301875 146.504375 34.491875 149.694375 38.696875 C 150.999375 40.400625 152.304375 41.995625 154.696875 44.098125 L 155.095625 44.496875 C 155.69375 45.095 156.400625 45.693125 157.198125 46.29125 C 158.59375 47.396875 160.605625 48.90125 162.29125 51.80125 L 162.50875 52.09125 L 162.708125 52.399375 C 165.19125 57.60125 164.39375 62.495 163.795625 66.1925 L 163.795625 66.500625 C 163.396875 68.8025 162.79875 70.995625 161.801875 73.206875 C 161.294375 74.403125 160.895625 75.708125 160.69625 76.995 C 160.605625 77.7925 160.496875 78.40875 160.40625 78.898125 L 160.2975 79.296875 C 160.098125 81.2 159.699375 82.994375 159.10125 84.806875 C 158.195 87.706875 156.799375 90.4075 155.005 92.90875 C 151.99625 97.295 148.606875 99.995625 144.09375 101.39125 C 141.900625 102.098125 140.10625 103.49375 138.891875 105.396875 L 138.493125 105.904375 L 138.094375 106.39375 C 137.006875 107.69875 137.296875 112.70125 137.49625 115.691875 C 137.695625 119.00875 137.895 122.398125 137.296875 125.60625 C 136.3 131.098125 133.9075 134.795625 131.805 138.00375 C 131.805 138.00375 123.993125 149.295625 116.90625 151.398125 L 116.39875 151.5975 L 115.89125 151.70625 C 114.604375 151.905625 113.20875 152.105 111.795 152.105 C 111.505 152.105 111.196875 152.105 110.798125 152.105 C 110.508125 152.105 110.2 152.105 109.80125 152.105 C 109.29375 152.105 108.605 152.105 107.40875 152.195625 L 107.19125 152.195625 C 102.496875 152.395 99.596875 152.50375 98.001875 152.79375 C 96.89625 152.993125 95.899375 153.30125 94.9025 153.7 C 90.606875 155.40375 84.806875 156.291875 76.396875 156.291875 Z M 76.396875 156.291875 " transform="matrix(0.215517,0,0,0.215517,0,0)"/>
</g>
<clipPath id="clip2">
  <rect x="0" y="0" width="40" height="40"/>
</clipPath>
<g id="surface23" clip-path="url(#clip2)">
<use xlink:href="#surface6" mask="url(#mask1)"/>
<use xlink:href="#surface9" mask="url(#mask2)"/>
<use xlink:href="#surface12" mask="url(#mask3)"/>
<use xlink:href="#surface15" mask="url(#mask4)"/>
<use xlink:href="#surface18" mask="url(#mask5)"/>
<use xlink:href="#surface21" mask="url(#mask6)"/>
</g>
</defs>
<g id="surface1">
<path style=" stroke:none;fill-rule:nonzero;fill:url(#radial0);" d="M 40 20 C 40 8.945312 31.035156 0 20 0 C 8.945312 0 0 8.945312 0 20 C 0 31.035156 8.945312 40 20 40 C 31.035156 40 40 31.035156 40 20 Z M 40 20 "/>
<path style=" stroke:none;fill-rule:nonzero;fill:rgb(100%,100%,100%);fill-opacity:1;" d="M 33.597656 13.75 C 33.511719 14.246094 33.425781 14.484375 33.296875 14.742188 C 33.167969 15.042969 33.039062 15.367188 32.910156 16.054688 C 32.867188 16.316406 32.824219 16.53125 32.800781 16.703125 L 32.800781 16.722656 C 32.757812 17.003906 32.738281 17.199219 32.628906 17.523438 C 32.542969 17.800781 32.390625 18.253906 32.027344 18.726562 C 31.722656 19.117188 31.226562 19.785156 30.558594 19.871094 C 30.496094 19.871094 30.386719 19.871094 30.324219 19.847656 C 28.425781 18.878906 26.808594 18.167969 26.25 18.015625 C 25.601562 17.824219 25.691406 16.402344 25.753906 15.152344 C 25.796875 14.589844 25.820312 14.050781 25.796875 13.597656 C 25.710938 12.003906 25.429688 10.28125 24.050781 9.441406 C 23.234375 8.945312 22.15625 8.792969 21.140625 8.792969 C 21.335938 8.707031 21.53125 8.578125 21.765625 8.449219 C 22.371094 8.101562 23.101562 7.671875 23.859375 7.585938 C 24.09375 7.566406 24.332031 7.542969 24.570312 7.5 C 26.054688 7.328125 27.347656 7.175781 28.707031 7.652344 C 29.332031 7.867188 30.582031 8.554688 30.90625 9.222656 C 31.140625 9.675781 31.53125 10.042969 32.285156 10.753906 C 32.695312 11.121094 32.953125 11.335938 33.148438 11.507812 C 33.425781 11.722656 33.46875 11.789062 33.554688 11.941406 C 33.816406 12.457031 33.726562 12.996094 33.597656 13.75 Z M 33.597656 13.75 "/>
<path style=" stroke:none;fill-rule:nonzero;fill:rgb(100%,100%,100%);fill-opacity:1;" d="M 26.722656 20.28125 C 26.808594 20.300781 26.851562 20.410156 26.789062 20.496094 C 26.59375 20.796875 26.359375 21.226562 26.078125 21.722656 C 25.949219 21.960938 25.820312 22.199219 25.710938 22.371094 C 25.34375 22.996094 25.324219 23.535156 25.300781 23.945312 C 25.28125 24.398438 25.257812 24.589844 24.976562 24.761719 C 24.761719 24.914062 24.527344 24.957031 22.972656 25.195312 C 22.695312 25.238281 22.585938 25.28125 22.476562 25.34375 C 22.457031 25.367188 22.414062 25.367188 22.390625 25.386719 C 22.304688 25.429688 22.21875 25.34375 22.21875 25.257812 C 22.242188 25.042969 22.242188 24.761719 22.242188 24.398438 L 22.242188 24.332031 C 22.242188 24.03125 22.242188 23.773438 22.21875 23.578125 C 22.199219 23.191406 22.199219 23.015625 22.304688 22.84375 C 22.433594 22.628906 22.542969 22.566406 22.695312 22.457031 C 22.929688 22.304688 23.253906 22.113281 23.707031 21.464844 C 23.964844 21.121094 24.007812 20.925781 24.050781 20.777344 C 24.074219 20.710938 24.074219 20.691406 24.265625 20.539062 C 24.460938 20.386719 25.085938 19.914062 25.882812 20.042969 C 26.140625 20.085938 26.421875 20.171875 26.722656 20.28125 Z M 26.722656 20.28125 "/>
<path style=" stroke:none;fill-rule:nonzero;fill:rgb(100%,100%,100%);fill-opacity:1;" d="M 20.539062 27.433594 C 20.496094 27.476562 20.472656 27.5 20.410156 27.5 C 20.238281 27.5 20.128906 27.457031 20.066406 27.371094 C 19.914062 27.175781 19.933594 26.789062 19.957031 26.550781 L 20.625 26.378906 C 20.667969 26.746094 20.691406 27.242188 20.539062 27.433594 Z M 20.539062 27.433594 "/>
<path style=" stroke:none;fill-rule:nonzero;fill:rgb(100%,100%,100%);fill-opacity:1;" d="M 20.582031 25.066406 C 20.558594 25.152344 20.558594 25.257812 20.558594 25.386719 C 20.558594 25.429688 20.558594 25.472656 20.558594 25.515625 C 20.558594 25.625 20.558594 25.796875 20.558594 25.882812 C 20.34375 25.949219 20.171875 25.949219 19.957031 25.949219 C 19.957031 25.882812 19.957031 25.777344 19.957031 25.710938 C 19.957031 25.667969 19.957031 25.601562 19.957031 25.558594 C 19.957031 25.496094 19.957031 25.453125 19.957031 25.386719 C 19.957031 25.257812 19.957031 25.066406 19.976562 25 C 20.042969 25 20.109375 24.976562 20.171875 24.957031 C 20.300781 24.933594 20.496094 24.890625 20.601562 24.914062 C 20.601562 24.957031 20.601562 25.023438 20.582031 25.066406 Z M 20.582031 25.066406 "/>
<path style=" stroke:none;fill-rule:nonzero;fill:rgb(100%,100%,100%);fill-opacity:1;" d="M 19.375 27.242188 C 19.351562 27.585938 19.246094 27.996094 18.921875 28.058594 C 18.773438 28.082031 18.707031 28.039062 18.664062 27.996094 C 18.449219 27.800781 18.425781 27.199219 18.449219 26.765625 C 18.597656 26.765625 18.773438 26.746094 18.988281 26.703125 C 19.117188 26.679688 19.246094 26.636719 19.351562 26.617188 C 19.375 26.789062 19.398438 27.003906 19.375 27.242188 Z M 19.375 27.242188 "/>
<path style=" stroke:none;fill-rule:nonzero;fill:rgb(100%,100%,100%);fill-opacity:1;" d="M 19.222656 26.035156 L 18.511719 26.292969 C 18.554688 26.011719 18.597656 25.625 18.621094 25.367188 C 18.640625 25.195312 18.683594 25.128906 18.707031 25.109375 C 18.707031 25.109375 18.726562 25.085938 18.75 25.085938 C 18.75 25.085938 18.75 25.085938 18.773438 25.085938 L 18.792969 25.085938 L 19.246094 25.066406 C 19.222656 25.28125 19.222656 25.753906 19.222656 26.035156 Z M 19.222656 26.035156 "/>
<path style=" stroke:none;fill-rule:nonzero;fill:rgb(100%,100%,100%);fill-opacity:1;" d="M 18.058594 25.820312 C 18.015625 25.925781 17.972656 26.226562 17.953125 26.445312 L 17.070312 26.421875 C 17.113281 26.140625 17.199219 25.863281 17.261719 25.648438 C 17.347656 25.429688 17.414062 25.257812 17.5 25.214844 C 17.585938 25.171875 17.78125 25.152344 17.910156 25.257812 C 18.101562 25.386719 18.148438 25.582031 18.058594 25.820312 Z M 18.058594 25.820312 "/>
<path style=" stroke:none;fill-rule:nonzero;fill:rgb(100%,100%,100%);fill-opacity:1;" d="M 17.738281 28.554688 C 17.671875 28.640625 17.585938 28.707031 17.5 28.707031 C 17.390625 28.726562 17.328125 28.683594 17.261719 28.640625 C 16.984375 28.382812 17.003906 27.542969 17.027344 27.132812 C 17.390625 27.046875 17.800781 26.984375 17.996094 26.960938 C 17.996094 27.285156 18.015625 28.167969 17.738281 28.554688 Z M 17.738281 28.554688 "/>
<path style=" stroke:none;fill-rule:nonzero;fill:rgb(100%,100%,100%);fill-opacity:1;" d="M 16.574219 26.378906 C 16.53125 26.488281 16.488281 26.59375 16.464844 26.703125 C 16.359375 26.746094 16.035156 26.703125 15.710938 26.636719 L 15.925781 25.238281 C 16.292969 25.128906 16.722656 25.109375 16.808594 25.214844 C 16.960938 25.367188 16.679688 26.078125 16.574219 26.378906 Z M 16.574219 26.378906 "/>
<path style=" stroke:none;fill-rule:nonzero;fill:rgb(100%,100%,100%);fill-opacity:1;" d="M 16.164062 28.75 C 15.992188 28.964844 15.734375 29.074219 15.367188 29.050781 C 15.109375 29.050781 15.023438 28.945312 14.976562 28.878906 C 14.785156 28.554688 14.976562 27.800781 15.171875 27.328125 L 16.378906 27.390625 C 16.402344 27.476562 16.402344 27.585938 16.402344 27.695312 C 16.421875 28.058594 16.378906 28.492188 16.164062 28.75 Z M 16.164062 28.75 "/>
<path style=" stroke:none;fill-rule:nonzero;fill:rgb(100%,100%,100%);fill-opacity:1;" d="M 26.164062 18.554688 C 25.066406 18.253906 25.171875 16.660156 25.257812 15.109375 C 25.28125 14.570312 25.324219 14.050781 25.300781 13.621094 C 25.214844 12.175781 24.976562 10.601562 23.816406 9.890625 C 22.566406 9.136719 20.515625 9.308594 19.265625 9.460938 C 18.816406 9.589844 18.382812 9.699219 18.039062 9.675781 C 17.304688 9.632812 16.722656 9.332031 16.207031 9.050781 C 15.820312 8.835938 15.472656 8.640625 15.128906 8.640625 C 15.109375 8.640625 15.085938 8.640625 15.085938 8.640625 C 14.117188 8.707031 13.664062 8.945312 13.253906 9.308594 C 13.148438 9.398438 13.015625 9.65625 12.609375 10.839844 C 12.390625 11.445312 12.371094 11.765625 12.328125 12.070312 C 12.285156 12.347656 12.261719 12.652344 12.113281 13.101562 C 12.003906 13.40625 11.917969 13.664062 11.851562 13.921875 C 11.660156 14.589844 11.488281 15.128906 11.011719 15.777344 C 10.949219 15.839844 10.882812 15.96875 10.796875 16.078125 C 10.691406 16.25 10.558594 16.464844 10.367188 16.703125 C 10.238281 16.875 9.957031 17.523438 9.976562 17.714844 C 10 18.039062 10.109375 18.234375 10.214844 18.449219 C 10.324219 18.664062 10.472656 18.921875 10.496094 19.289062 L 10.496094 19.351562 C 10.539062 19.914062 10.453125 20.195312 9.398438 21.140625 C 8.726562 21.746094 8.234375 22.328125 7.910156 22.757812 C 7.886719 22.800781 7.910156 22.84375 7.972656 22.84375 C 7.996094 22.84375 7.996094 22.84375 7.996094 22.84375 C 8.015625 22.84375 8.039062 22.84375 8.058594 22.84375 C 8.082031 22.84375 8.101562 22.84375 8.125 22.84375 C 8.148438 22.84375 8.167969 22.84375 8.191406 22.84375 C 8.449219 22.867188 8.707031 22.972656 8.878906 23.167969 C 8.902344 23.210938 8.964844 23.210938 9.007812 23.191406 C 9.179688 23.125 9.375 23.125 9.546875 23.148438 C 9.761719 23.167969 10 23.234375 10.152344 23.382812 C 10.195312 23.425781 10.257812 23.449219 10.324219 23.425781 C 10.496094 23.382812 10.691406 23.382812 10.863281 23.449219 C 10.992188 23.492188 11.121094 23.578125 11.207031 23.683594 C 11.273438 23.75 11.378906 23.773438 11.464844 23.726562 C 11.507812 23.707031 11.574219 23.664062 11.636719 23.640625 C 11.875 23.554688 12.132812 23.597656 12.347656 23.683594 C 12.457031 23.726562 12.566406 23.75 12.671875 23.835938 C 12.84375 23.964844 12.972656 24.136719 13.039062 24.332031 C 13.082031 24.441406 13.234375 24.484375 13.320312 24.398438 C 13.492188 24.265625 13.621094 24.246094 13.75 24.289062 C 13.816406 24.308594 13.859375 24.351562 13.902344 24.417969 C 13.964844 24.503906 14.074219 24.589844 14.160156 24.546875 C 14.527344 24.441406 14.957031 24.503906 15.28125 24.675781 C 15.386719 24.742188 15.515625 24.828125 15.582031 24.957031 L 15.582031 24.890625 C 15.582031 24.871094 15.601562 24.847656 15.625 24.828125 L 15.691406 24.804688 C 15.863281 24.742188 16.765625 24.484375 17.113281 24.847656 C 17.132812 24.871094 17.15625 24.871094 17.175781 24.847656 C 17.21875 24.804688 17.261719 24.761719 17.285156 24.761719 C 17.523438 24.632812 17.910156 24.613281 18.167969 24.847656 C 18.210938 24.890625 18.296875 24.871094 18.339844 24.828125 C 18.363281 24.785156 18.382812 24.761719 18.425781 24.742188 C 18.511719 24.65625 18.640625 24.632812 18.773438 24.632812 L 19.265625 24.613281 C 19.398438 24.613281 19.785156 24.570312 19.890625 24.546875 L 19.914062 24.546875 C 19.957031 24.546875 20.023438 24.527344 20.085938 24.503906 C 20.324219 24.460938 20.601562 24.398438 20.820312 24.503906 C 21.035156 24.613281 21.011719 24.847656 20.992188 25.066406 C 20.992188 25.152344 20.96875 25.238281 20.96875 25.324219 C 20.96875 25.367188 20.96875 25.410156 20.96875 25.453125 C 20.96875 25.648438 20.96875 25.820312 20.949219 25.949219 L 20.96875 26.054688 C 20.96875 26.054688 20.96875 26.054688 20.96875 26.078125 C 20.992188 26.164062 21.097656 26.226562 21.164062 26.164062 C 21.335938 26.054688 21.507812 25.925781 21.574219 25.839844 L 21.574219 25.820312 C 21.574219 25.796875 21.59375 25.753906 21.617188 25.667969 C 21.636719 25.472656 21.679688 25.109375 21.679688 24.351562 C 21.679688 24.308594 21.679688 24.289062 21.679688 24.265625 C 21.679688 23.988281 21.679688 23.75 21.660156 23.554688 C 21.636719 23.148438 21.617188 22.824219 21.832031 22.5 C 22.027344 22.175781 22.21875 22.070312 22.414062 21.941406 C 22.628906 21.808594 22.867188 21.660156 23.277344 21.097656 C 23.46875 20.820312 23.492188 20.710938 23.511719 20.625 C 23.554688 20.410156 23.621094 20.28125 23.945312 20.066406 C 24.203125 19.871094 24.957031 19.289062 25.992188 19.460938 C 26.335938 19.527344 26.875 19.699219 27.433594 19.914062 C 27.457031 19.914062 27.476562 19.933594 27.5 19.933594 L 27.523438 19.933594 C 28.015625 20.128906 28.46875 20.34375 28.792969 20.515625 C 28.859375 20.558594 28.945312 20.539062 29.007812 20.472656 C 29.117188 20.34375 29.222656 20.28125 29.332031 20.195312 C 29.375 20.171875 29.417969 20.152344 29.441406 20.128906 C 29.460938 20.128906 29.460938 20.109375 29.460938 20.109375 C 29.546875 20.042969 29.546875 19.871094 29.441406 19.828125 C 27.996094 19.117188 26.617188 18.683594 26.164062 18.554688 Z M 15.777344 18.878906 C 15.429688 20.34375 13.148438 21.984375 12.113281 21.984375 L 12.089844 21.984375 C 12.070312 21.984375 12.046875 21.984375 12.046875 21.984375 C 12.027344 21.984375 12.003906 21.984375 11.984375 21.960938 C 11.960938 21.960938 11.960938 21.960938 11.941406 21.960938 C 11.746094 21.898438 11.488281 21.765625 11.292969 21.574219 C 11.164062 21.445312 11.054688 21.273438 11.011719 21.121094 C 11.011719 21.097656 10.992188 21.054688 10.992188 21.035156 C 10.925781 20.777344 10.863281 20.472656 11.078125 19.957031 C 11.097656 19.890625 11.140625 19.828125 11.164062 19.761719 C 11.164062 19.742188 11.183594 19.71875 11.183594 19.699219 C 11.207031 19.632812 11.226562 19.589844 11.25 19.546875 C 11.273438 19.460938 11.316406 19.398438 11.335938 19.351562 C 11.335938 19.332031 11.359375 19.308594 11.359375 19.289062 C 11.421875 19.117188 11.421875 19.050781 11.445312 18.988281 C 11.445312 18.945312 11.464844 18.859375 11.488281 18.773438 C 11.550781 18.492188 11.59375 18.253906 11.617188 18.058594 C 11.660156 17.695312 11.722656 17.371094 11.917969 17.070312 C 11.960938 17.027344 11.984375 16.984375 12.027344 16.941406 C 12.046875 16.917969 12.046875 16.917969 12.070312 16.898438 C 12.089844 16.875 12.089844 16.875 12.113281 16.851562 C 12.15625 16.808594 12.21875 16.789062 12.261719 16.765625 C 12.285156 16.765625 12.304688 16.746094 12.328125 16.746094 C 12.371094 16.722656 12.414062 16.722656 12.457031 16.703125 C 12.652344 16.660156 12.867188 16.660156 13.125 16.679688 C 13.40625 16.703125 13.664062 16.746094 13.878906 16.808594 C 14.074219 16.851562 14.246094 16.917969 14.375 16.984375 C 14.398438 16.984375 14.398438 17.003906 14.417969 17.003906 C 14.441406 17.027344 14.460938 17.027344 14.503906 17.046875 C 14.546875 17.070312 14.570312 17.070312 14.613281 17.089844 C 14.65625 17.113281 14.699219 17.132812 14.742188 17.15625 L 14.785156 17.175781 C 14.933594 17.242188 15.085938 17.328125 15.195312 17.414062 C 15.257812 17.457031 15.300781 17.5 15.34375 17.542969 C 15.367188 17.566406 15.386719 17.566406 15.386719 17.585938 C 15.410156 17.609375 15.410156 17.609375 15.429688 17.628906 C 15.882812 18.015625 15.863281 18.554688 15.777344 18.878906 Z M 16.851562 13.296875 L 16.808594 13.554688 C 16.703125 14.160156 16.464844 14.976562 15.601562 15.195312 C 14.761719 15.386719 14.570312 15.429688 13.988281 15.472656 C 13.964844 15.472656 13.964844 15.472656 13.945312 15.472656 C 13.511719 15.472656 12.671875 15.195312 12.523438 14.527344 C 12.433594 14.09375 12.628906 13.773438 12.929688 13.253906 C 12.972656 13.167969 13.039062 13.082031 13.101562 12.972656 C 13.535156 12.261719 13.683594 11.746094 13.816406 11.335938 C 13.945312 10.925781 14.050781 10.601562 14.332031 10.324219 C 14.398438 10.257812 14.460938 10.195312 14.546875 10.152344 C 14.589844 10.109375 14.65625 10.085938 14.71875 10.042969 C 14.804688 10 14.890625 9.976562 14.976562 9.933594 C 15.171875 9.871094 15.386719 9.847656 15.582031 9.847656 C 15.992188 9.847656 16.402344 9.957031 16.679688 10.195312 C 16.808594 10.300781 17.003906 10.496094 17.113281 11.121094 C 17.15625 11.445312 17.070312 12.027344 16.851562 13.296875 Z M 23.039062 15.023438 C 22.738281 15.539062 22.585938 15.820312 22.328125 16.035156 C 21.808594 16.464844 21.226562 16.550781 20.734375 16.550781 C 20.386719 16.550781 20.085938 16.488281 19.890625 16.464844 C 19.375 16.378906 18.449219 16.207031 18.125 15.453125 C 18.058594 15.300781 18.058594 15.214844 18.058594 15.085938 C 18.058594 14.976562 18.058594 14.761719 17.996094 14.308594 L 17.996094 14.289062 C 17.972656 14.074219 17.953125 13.835938 17.996094 13.535156 L 17.996094 13.492188 C 18.167969 12.585938 18.234375 12.457031 18.253906 12.371094 C 18.339844 12.199219 18.554688 12.113281 18.75 12.21875 C 18.921875 12.304688 18.988281 12.523438 18.921875 12.695312 C 18.902344 12.738281 18.859375 12.929688 18.707031 13.640625 L 18.707031 13.683594 C 18.664062 13.878906 18.683594 14.03125 18.707031 14.222656 L 18.707031 14.246094 C 18.773438 14.761719 18.773438 14.976562 18.773438 15.109375 C 18.773438 15.128906 18.773438 15.152344 18.773438 15.171875 L 18.773438 15.195312 C 18.835938 15.34375 18.964844 15.429688 19.117188 15.515625 C 19.222656 15.558594 19.332031 15.472656 19.308594 15.367188 C 19.160156 14.570312 19.160156 13.640625 19.460938 13.058594 C 19.570312 12.867188 19.742188 12.566406 19.914062 12.261719 C 19.933594 12.242188 19.957031 12.199219 19.957031 12.175781 C 19.976562 12.15625 19.976562 12.132812 20 12.113281 C 20.085938 11.984375 20.152344 11.875 20.214844 11.765625 C 20.214844 11.746094 20.238281 11.746094 20.238281 11.722656 L 20.257812 11.703125 C 20.28125 11.679688 20.28125 11.660156 20.300781 11.636719 C 20.300781 11.636719 20.300781 11.617188 20.324219 11.617188 L 20.34375 11.59375 C 20.34375 11.574219 20.367188 11.574219 20.367188 11.550781 C 20.429688 11.464844 20.496094 11.378906 20.539062 11.292969 C 20.625 11.183594 20.515625 11.054688 20.410156 11.097656 C 20.109375 11.226562 19.914062 11.378906 19.871094 11.402344 C 19.71875 11.53125 19.484375 11.507812 19.351562 11.335938 C 19.222656 11.183594 19.246094 10.949219 19.417969 10.820312 C 19.613281 10.667969 20.601562 9.957031 21.789062 10.28125 C 22.652344 10.515625 23.082031 11.183594 23.253906 11.421875 C 23.382812 11.617188 23.816406 12.21875 23.792969 13.082031 C 23.792969 13.707031 23.535156 14.179688 23.039062 15.023438 Z M 23.039062 15.023438 "/>
<path style=" stroke:none;fill-rule:nonzero;fill:rgb(100%,100%,100%);fill-opacity:1;" d="M 15.324219 10.601562 C 15.257812 10.753906 15.195312 10.925781 15.109375 11.121094 C 14.933594 11.574219 14.71875 12.089844 14.613281 12.285156 C 14.441406 12.609375 14.308594 12.824219 14.203125 12.972656 C 14.074219 13.167969 13.988281 13.320312 13.902344 13.535156 C 13.773438 13.902344 13.75 14.308594 13.835938 14.761719 C 13.597656 14.742188 13.234375 14.589844 13.191406 14.375 C 13.167969 14.222656 13.253906 14.074219 13.511719 13.621094 C 13.554688 13.535156 13.621094 13.425781 13.683594 13.339844 C 14.136719 12.566406 14.332031 11.984375 14.460938 11.550781 C 14.613281 11.097656 14.675781 10.90625 14.914062 10.734375 C 15.066406 10.667969 15.195312 10.625 15.324219 10.601562 Z M 15.324219 10.601562 "/>
<path style=" stroke:none;fill-rule:nonzero;fill:rgb(100%,100%,100%);fill-opacity:1;" d="M 14.871094 26.898438 C 14.613281 27.414062 14.308594 27.886719 14.117188 28.125 C 13.945312 27.695312 13.664062 26.679688 13.75 25.882812 C 13.75 25.863281 13.75 25.839844 13.75 25.820312 C 13.773438 25.558594 13.835938 25.34375 13.964844 25.152344 C 14.050781 25.023438 14.265625 24.957031 14.503906 24.957031 C 14.675781 24.957031 14.871094 25 15.042969 25.085938 C 15.128906 25.128906 15.257812 25.238281 15.257812 25.515625 C 15.300781 25.90625 15.109375 26.421875 14.871094 26.898438 Z M 14.871094 26.898438 "/>
<path style=" stroke:none;fill-rule:nonzero;fill:rgb(100%,100%,100%);fill-opacity:1;" d="M 28.664062 21.140625 C 28.683594 21.164062 28.683594 21.183594 28.683594 21.207031 C 28.621094 21.359375 28.511719 21.464844 28.40625 21.59375 C 28.277344 21.746094 28.125 21.917969 27.996094 22.199219 C 27.800781 22.585938 27.738281 22.929688 27.714844 23.835938 C 27.671875 24.890625 27.714844 25.472656 27.757812 25.90625 C 27.78125 26.316406 27.800781 26.574219 27.738281 26.984375 C 27.585938 27.800781 27.242188 28.339844 26.789062 29.03125 C 26.226562 29.890625 25.667969 30.777344 24.71875 31.054688 C 24.632812 31.078125 24.632812 31.078125 24.375 31.078125 C 24.160156 31.078125 23.792969 31.078125 23.125 31.097656 C 21.875 31.140625 21.25 31.164062 20.734375 31.273438 C 20.171875 31.378906 19.890625 31.507812 19.589844 31.617188 C 19.332031 31.722656 19.09375 31.808594 18.640625 31.917969 C 18.363281 31.984375 17.953125 32.027344 16.550781 32.046875 C 15.085938 32.046875 14.203125 32.046875 13.058594 31.917969 C 11.464844 31.746094 10.667969 31.636719 10.128906 31.359375 C 8.878906 30.691406 8.339844 29.484375 7.476562 27.5 C 7.476562 27.476562 7.5 27.457031 7.523438 27.457031 C 7.566406 27.476562 7.609375 27.5 7.652344 27.523438 C 7.695312 27.542969 7.738281 27.542969 7.757812 27.542969 C 7.84375 27.566406 7.929688 27.566406 8.015625 27.542969 C 8.039062 27.542969 8.039062 27.542969 8.058594 27.523438 C 8.082031 27.523438 8.101562 27.523438 8.101562 27.542969 C 8.167969 27.695312 8.253906 27.824219 8.40625 27.910156 C 8.554688 27.996094 8.726562 27.996094 8.878906 27.996094 C 9.050781 27.996094 9.222656 27.972656 9.398438 27.953125 C 9.484375 27.953125 9.570312 27.996094 9.613281 28.058594 C 9.761719 28.449219 9.957031 28.707031 10.257812 28.75 C 10.28125 28.75 10.300781 28.75 10.324219 28.75 C 10.386719 28.75 10.496094 28.726562 10.625 28.640625 C 10.734375 28.554688 10.90625 28.621094 10.992188 28.726562 C 11.054688 28.835938 11.140625 28.902344 11.226562 28.964844 C 11.53125 29.265625 12.261719 29.417969 12.867188 29.417969 C 13.191406 29.417969 13.492188 29.375 13.664062 29.289062 C 13.921875 29.160156 13.921875 28.988281 13.902344 28.902344 C 13.878906 28.773438 13.859375 28.621094 13.835938 28.492188 C 13.835938 28.46875 13.859375 28.46875 13.859375 28.492188 C 13.902344 28.578125 13.945312 28.664062 14.050781 28.683594 C 14.074219 28.683594 14.074219 28.683594 14.09375 28.683594 C 14.265625 28.683594 14.527344 28.75 14.570312 28.902344 C 14.589844 28.988281 14.632812 29.050781 14.675781 29.136719 C 14.785156 29.289062 14.976562 29.484375 15.386719 29.503906 L 15.410156 29.503906 C 15.882812 29.503906 16.25 29.351562 16.488281 29.050781 C 16.507812 29.03125 16.507812 29.007812 16.53125 28.988281 C 16.617188 28.859375 16.875 28.859375 16.984375 28.964844 C 17.113281 29.074219 17.261719 29.136719 17.433594 29.136719 C 17.457031 29.136719 17.5 29.136719 17.523438 29.136719 C 17.738281 29.117188 17.910156 29.007812 18.058594 28.816406 C 18.148438 28.683594 18.210938 28.535156 18.253906 28.363281 C 18.277344 28.320312 18.339844 28.296875 18.382812 28.339844 C 18.46875 28.425781 18.621094 28.511719 18.835938 28.511719 C 18.878906 28.511719 18.945312 28.511719 19.007812 28.492188 C 19.417969 28.40625 19.632812 28.058594 19.71875 27.695312 C 19.71875 27.671875 19.742188 27.671875 19.742188 27.695312 C 19.847656 27.824219 20.042969 27.972656 20.367188 27.972656 C 20.386719 27.972656 20.410156 27.972656 20.410156 27.972656 C 20.582031 27.972656 20.734375 27.886719 20.839844 27.757812 C 20.96875 27.585938 21.011719 27.328125 21.035156 27.089844 C 21.035156 27.027344 21.078125 26.960938 21.164062 26.917969 C 21.507812 26.765625 21.941406 26.445312 22.070312 26.226562 C 22.070312 26.226562 22.070312 26.207031 22.089844 26.207031 C 22.113281 26.140625 22.175781 26.097656 22.21875 26.097656 C 22.5 26.054688 22.609375 25.992188 22.714844 25.949219 C 22.800781 25.90625 22.867188 25.882812 23.082031 25.839844 C 24.65625 25.601562 24.957031 25.539062 25.300781 25.324219 C 25.820312 24.976562 25.839844 24.503906 25.863281 24.050781 C 25.882812 23.664062 25.90625 23.234375 26.207031 22.714844 C 26.316406 22.523438 26.445312 22.304688 26.574219 22.046875 C 26.808594 21.617188 27.132812 21.011719 27.371094 20.691406 C 27.414062 20.625 27.5 20.601562 27.566406 20.648438 C 28.101562 20.839844 28.578125 21.054688 28.664062 21.140625 Z M 28.664062 21.140625 "/>
<path style=" stroke:none;fill-rule:nonzero;fill:rgb(100%,100%,100%);fill-opacity:1;" d="M 13.363281 25.839844 C 13.296875 26.378906 13.253906 27.113281 13.339844 28.058594 C 13.363281 28.320312 13.40625 28.597656 13.449219 28.878906 C 13.382812 28.921875 13.148438 28.988281 12.757812 28.964844 C 12.199219 28.945312 11.636719 28.816406 11.464844 28.621094 L 11.445312 28.597656 C 11.316406 28.492188 11.207031 28.40625 11.207031 28.210938 C 11.207031 28.148438 11.226562 28.082031 11.292969 27.972656 C 11.335938 27.929688 11.378906 27.867188 11.421875 27.78125 C 11.507812 27.652344 11.636719 27.5 11.765625 27.285156 C 12.132812 26.679688 12.261719 26.488281 12.433594 26.25 C 12.457031 26.226562 12.457031 26.207031 12.476562 26.183594 C 12.585938 26.054688 12.695312 25.882812 12.886719 25.601562 C 13.015625 25.410156 13.125 25.238281 13.234375 25.109375 C 13.382812 24.890625 13.492188 24.785156 13.554688 24.71875 C 13.554688 24.804688 13.535156 24.933594 13.511719 25.066406 C 13.425781 25.324219 13.382812 25.558594 13.363281 25.839844 Z M 13.363281 25.839844 "/>
<path style=" stroke:none;fill-rule:nonzero;fill:rgb(100%,100%,100%);fill-opacity:1;" d="M 13.082031 17.347656 C 13.082031 17.371094 13.082031 17.371094 13.082031 17.347656 C 12.996094 17.457031 12.910156 17.585938 12.800781 17.800781 C 12.523438 18.40625 12.523438 18.75 12.523438 19.03125 C 12.523438 19.179688 12.523438 19.289062 12.476562 19.417969 C 12.457031 19.503906 12.414062 19.613281 12.347656 19.71875 C 12.199219 20.085938 11.984375 20.558594 12.070312 21.207031 C 11.941406 21.140625 11.746094 20.992188 11.703125 20.925781 C 11.703125 20.882812 11.679688 20.863281 11.679688 20.820312 C 11.636719 20.625 11.617188 20.496094 11.722656 20.195312 C 12.070312 19.417969 12.113281 19.222656 12.132812 19.007812 C 12.132812 18.964844 12.15625 18.921875 12.15625 18.859375 C 12.21875 18.554688 12.261719 18.296875 12.285156 18.082031 C 12.328125 17.757812 12.371094 17.542969 12.476562 17.390625 C 12.523438 17.328125 12.628906 17.304688 12.78125 17.304688 C 12.84375 17.304688 12.910156 17.304688 12.996094 17.328125 L 13.015625 17.328125 C 13.082031 17.347656 13.082031 17.347656 13.082031 17.347656 Z M 13.082031 17.347656 "/>
<path style=" stroke:none;fill-rule:nonzero;fill:rgb(100%,100%,100%);fill-opacity:1;" d="M 12.652344 25.042969 C 12.628906 24.847656 12.609375 24.675781 12.523438 24.484375 C 12.523438 24.484375 12.5 24.441406 12.5 24.417969 C 12.476562 24.398438 12.476562 24.375 12.457031 24.351562 L 12.433594 24.332031 C 12.414062 24.308594 12.414062 24.308594 12.390625 24.308594 L 12.371094 24.289062 C 12.347656 24.289062 12.347656 24.265625 12.328125 24.265625 L 12.304688 24.265625 C 12.199219 24.222656 12.089844 24.179688 11.960938 24.160156 C 11.941406 24.160156 11.917969 24.160156 11.917969 24.160156 C 11.898438 24.160156 11.898438 24.160156 11.875 24.160156 L 11.851562 24.160156 C 11.832031 24.160156 11.808594 24.179688 11.765625 24.179688 C 11.746094 24.179688 11.746094 24.203125 11.722656 24.203125 L 11.703125 24.222656 C 11.679688 24.246094 11.679688 24.246094 11.660156 24.265625 L 11.636719 24.289062 L 11.636719 24.308594 C 11.59375 24.375 11.550781 24.441406 11.507812 24.503906 C 11.402344 24.65625 11.292969 24.828125 11.183594 24.976562 C 11.078125 25.128906 10.992188 25.257812 10.882812 25.410156 C 10.820312 25.496094 10.777344 25.558594 10.710938 25.648438 C 10.710938 25.667969 10.691406 25.667969 10.691406 25.691406 C 10.753906 25.710938 10.820312 25.710938 10.882812 25.734375 C 11.035156 25.753906 11.183594 25.777344 11.316406 25.796875 C 11.617188 25.839844 11.941406 25.863281 12.242188 25.839844 C 12.261719 25.839844 12.261719 25.839844 12.285156 25.839844 C 12.347656 25.734375 12.457031 25.601562 12.566406 25.429688 C 12.628906 25.34375 12.695312 25.257812 12.738281 25.171875 C 12.671875 25.152344 12.652344 25.085938 12.652344 25.042969 Z M 12.652344 25.042969 "/>
<path style=" stroke:none;fill-rule:nonzero;fill:rgb(100%,100%,100%);fill-opacity:1;" d="M 11.550781 26.316406 C 11.53125 26.550781 11.273438 27.15625 10.863281 27.738281 C 10.515625 28.210938 10.300781 28.339844 10.257812 28.339844 C 10.085938 28.320312 9.933594 27.910156 9.804688 27.5 C 9.761719 27.328125 9.699219 27.175781 9.675781 27.027344 C 9.589844 26.722656 9.570312 26.292969 9.589844 26.035156 C 9.933594 26.226562 10.539062 26.273438 11.402344 26.273438 C 11.445312 26.292969 11.507812 26.292969 11.550781 26.316406 Z M 11.550781 26.316406 "/>
<path style=" stroke:none;fill-rule:nonzero;fill:rgb(100%,100%,100%);fill-opacity:1;" d="M 10.949219 24.375 C 10.796875 24.613281 10.648438 24.828125 10.496094 25.042969 C 10.410156 25.152344 10.34375 25.257812 10.257812 25.367188 C 10.214844 25.429688 10.152344 25.496094 10.109375 25.558594 C 9.976562 25.539062 9.871094 25.496094 9.742188 25.472656 C 9.632812 25.453125 9.546875 25.410156 9.441406 25.367188 C 9.417969 25.367188 9.398438 25.34375 9.375 25.34375 C 9.351562 25.324219 9.332031 25.28125 9.308594 25.257812 C 9.351562 25.195312 9.375 25.109375 9.417969 25.042969 C 9.484375 24.914062 9.546875 24.785156 9.632812 24.65625 C 9.761719 24.441406 9.914062 24.203125 10.152344 24.050781 C 10.171875 24.050781 10.171875 24.03125 10.195312 24.03125 C 10.28125 23.988281 10.367188 23.945312 10.472656 23.921875 C 10.496094 23.921875 10.558594 23.921875 10.601562 23.921875 L 10.625 23.921875 C 10.625 23.921875 10.625 23.921875 10.648438 23.921875 C 10.667969 23.921875 10.691406 23.945312 10.734375 23.945312 C 10.734375 23.945312 10.753906 23.945312 10.753906 23.964844 C 10.777344 23.988281 10.796875 23.988281 10.820312 24.007812 C 10.777344 23.988281 10.863281 24.074219 10.863281 24.050781 C 10.90625 24.179688 10.925781 24.246094 10.949219 24.375 Z M 10.949219 24.375 "/>
<path style=" stroke:none;fill-rule:nonzero;fill:rgb(100%,100%,100%);fill-opacity:1;" d="M 9.785156 23.75 C 9.503906 23.964844 9.308594 24.265625 9.160156 24.589844 C 9.074219 24.761719 8.988281 24.933594 8.902344 25.109375 C 8.902344 25.128906 8.878906 25.152344 8.878906 25.152344 C 8.792969 25.128906 8.707031 25.109375 8.640625 25.085938 C 8.554688 25.066406 8.46875 25.023438 8.382812 25 C 8.339844 24.976562 8.320312 24.957031 8.277344 24.933594 C 8.363281 24.785156 8.449219 24.632812 8.554688 24.484375 C 8.683594 24.289062 8.835938 24.074219 8.988281 23.902344 C 9.050781 23.835938 9.117188 23.75 9.179688 23.707031 C 9.265625 23.664062 9.351562 23.664062 9.460938 23.683594 C 9.570312 23.683594 9.675781 23.683594 9.761719 23.726562 C 9.742188 23.726562 9.761719 23.75 9.785156 23.75 Z M 9.785156 23.75 "/>
<path style=" stroke:none;fill-rule:nonzero;fill:rgb(100%,100%,100%);fill-opacity:1;" d="M 9.351562 27.414062 C 9.332031 27.433594 9.332031 27.433594 9.308594 27.457031 L 9.289062 27.457031 C 9.222656 27.457031 9.160156 27.476562 9.09375 27.476562 C 8.964844 27.476562 8.835938 27.5 8.707031 27.476562 C 8.640625 27.476562 8.578125 27.457031 8.535156 27.414062 C 8.492188 27.347656 8.46875 27.21875 8.449219 27.132812 C 8.363281 26.660156 8.363281 26.183594 8.40625 25.710938 C 8.640625 25.796875 8.902344 25.863281 9.160156 25.90625 C 9.09375 26.335938 9.203125 26.960938 9.246094 27.132812 C 9.308594 27.21875 9.332031 27.328125 9.351562 27.414062 Z M 9.351562 27.414062 "/>
<path style=" stroke:none;fill-rule:nonzero;fill:rgb(100%,100%,100%);fill-opacity:1;" d="M 8.578125 23.597656 C 8.363281 23.859375 8.167969 24.136719 7.996094 24.441406 C 7.929688 24.546875 7.84375 24.675781 7.78125 24.804688 C 7.695312 24.785156 7.609375 24.742188 7.542969 24.699219 C 7.476562 24.65625 7.414062 24.613281 7.371094 24.570312 C 7.347656 24.546875 7.304688 24.527344 7.285156 24.503906 C 7.285156 24.503906 7.261719 24.503906 7.261719 24.484375 C 7.285156 24.417969 7.328125 24.375 7.328125 24.332031 C 7.371094 24.222656 7.414062 24.136719 7.476562 24.050781 C 7.585938 23.878906 7.695312 23.707031 7.824219 23.535156 C 7.867188 23.46875 7.910156 23.40625 7.996094 23.382812 C 8.058594 23.363281 8.148438 23.382812 8.210938 23.382812 C 8.339844 23.40625 8.46875 23.492188 8.578125 23.597656 Z M 8.578125 23.597656 "/>
<path style=" stroke:none;fill-rule:nonzero;fill:rgb(100%,100%,100%);fill-opacity:1;" d="M 6.917969 24.742188 C 6.917969 24.71875 6.941406 24.71875 6.917969 24.742188 C 7.003906 24.828125 7.070312 24.890625 7.15625 24.957031 C 7.199219 24.976562 7.21875 25.023438 7.261719 25.042969 C 7.261719 25.042969 7.261719 25.042969 7.261719 25.066406 C 7.175781 25.429688 7.113281 25.820312 7.113281 26.207031 C 7.113281 26.226562 7.089844 26.226562 7.089844 26.207031 C 6.984375 25.753906 6.851562 25.023438 6.917969 24.742188 Z M 6.917969 24.742188 "/>
<path style=" stroke:none;fill-rule:nonzero;fill:rgb(100%,100%,100%);fill-opacity:1;" d="M 7.972656 25.539062 C 7.929688 25.863281 7.910156 26.183594 7.929688 26.507812 C 7.929688 26.679688 7.953125 26.851562 7.972656 27.046875 C 7.929688 27.046875 7.886719 27.046875 7.84375 27.046875 L 7.800781 27.046875 C 7.757812 27.027344 7.757812 27.027344 7.714844 27.003906 C 7.671875 26.984375 7.628906 26.917969 7.585938 26.851562 C 7.5 26.703125 7.476562 26.53125 7.476562 26.359375 C 7.457031 26.035156 7.5 25.691406 7.566406 25.367188 C 7.609375 25.386719 7.671875 25.410156 7.738281 25.429688 C 7.824219 25.472656 7.886719 25.515625 7.972656 25.539062 Z M 7.972656 25.539062 "/>
<g clip-path="url(#clip1)" clip-rule="nonzero">
<use xlink:href="#surface23" mask="url(#mask0)"/>
</g>
</g>
</svg>
