<?xml version="1.0" encoding="UTF-8"?>
<svg xmlns="http://www.w3.org/2000/svg" xmlns:xlink="http://www.w3.org/1999/xlink" width="24px" height="24px" viewBox="0 0 24 24" version="1.1">
<defs>
<radialGradient id="radial0" gradientUnits="userSpaceOnUse" cx="-109.7066" cy="-1.1131" fx="-109.7066" fy="-1.1131" r="1.0001" gradientTransform="matrix(0.000000000000000825,13.478664,-13.478664,0.000000000000000825,-3.002638,1491.952073)">
<stop offset="0.1667" style="stop-color:rgb(2.745098%,19.215686%,51.372549%);stop-opacity:1;"/>
<stop offset="1" style="stop-color:rgb(0%,32.941176%,97.647059%);stop-opacity:1;"/>
</radialGradient>
<clipPath id="clip1">
  <path d="M 24 12 C 24 5.367188 18.621094 0 12 0 C 5.367188 0 0 5.367188 0 12 C 0 18.621094 5.367188 24 12 24 C 18.621094 24 24 18.621094 24 12 Z M 24 12 "/>
</clipPath>
<filter id="alpha" filterUnits="objectBoundingBox" x="0%" y="0%" width="100%" height="100%">
  <feColorMatrix type="matrix" in="SourceGraphic" values="0 0 0 0 1 0 0 0 0 1 0 0 0 0 1 0 0 0 1 0"/>
</filter>
<mask id="mask0">
  <g filter="url(#alpha)">
<rect x="0" y="0" width="24" height="24" style="fill:rgb(0%,0%,0%);fill-opacity:0.8;stroke:none;"/>
  </g>
</mask>
<mask id="mask1">
  <g filter="url(#alpha)">
<rect x="0" y="0" width="24" height="24" style="fill:rgb(0%,0%,0%);fill-opacity:0.8;stroke:none;"/>
  </g>
</mask>
<linearGradient id="linear0" gradientUnits="userSpaceOnUse" x1="-12.9962" y1="635.1351" x2="199.6316" y2="858.3003" gradientTransform="matrix(1,0,0,1,0,-656)">
<stop offset="0.2057" style="stop-color:rgb(53.72549%,81.568627%,100%);stop-opacity:1;"/>
<stop offset="0.3984" style="stop-color:rgb(92.156863%,74.901961%,60.392157%);stop-opacity:1;"/>
<stop offset="0.6015" style="stop-color:rgb(92.156863%,50.980392%,50.196078%);stop-opacity:1;"/>
<stop offset="0.8411" style="stop-color:rgb(63.529412%,50.588235%,100%);stop-opacity:1;"/>
</linearGradient>
<clipPath id="clip3">
  <rect x="0" y="0" width="24" height="24"/>
</clipPath>
<g id="surface6" clip-path="url(#clip3)">
<path style="fill:none;stroke-width:1.0554;stroke-linecap:butt;stroke-linejoin:miter;stroke:url(#linear0);stroke-miterlimit:10;" d="M 76.396875 196.505208 C 69.6 196.505208 63.195833 196.1125 57.788542 195.689583 L 56.308333 195.598958 L 54.797917 195.3875 C 54.103125 195.296875 53.2875 195.20625 52.411458 195.085417 C 47.185417 194.511458 37.488542 193.514583 26.794792 188.5 L 25.103125 187.714583 L 23.592708 186.808333 C 2.990625 175.208333 -4.591667 157.898958 -8.790625 148.594792 C -9.092708 147.990625 -9.394792 147.295833 -9.696875 146.601042 C -11.811458 142.311458 -13.110417 138.505208 -14.197917 134.910417 L -14.409375 134.094792 L -14.590625 133.309375 C -17.611458 122.70625 -18.30625 113.613542 -17.007292 104.490625 C -15.5875 95.397917 -12.294792 87.211458 -6.404167 78.511458 L -3.413542 73.5875 C -2.809375 72.590625 -2.386458 71.503125 -2.114583 70.385417 C 0.211458 58.996875 5.407292 50.901042 8.005208 47.004167 C 8.7 42.291667 9.908333 37.7 11.509375 33.198958 L 11.690625 32.504167 L 11.992708 31.809375 C 11.992708 31.688542 12.113542 31.507292 12.204167 31.205208 C 13.4125 27.701042 16.101042 19.605208 22.988542 10.995833 L 25.586458 8.005208 L 28.305208 5.588542 C 35.102083 -0.604167 43.288542 -5.195833 52.109375 -7.79375 C 57.003125 -9.304167 62.108333 -10.210417 67.304167 -10.5125 L 68.5125 -10.5125 C 69.388542 -10.5125 70.294792 -10.603125 71.110417 -10.603125 C 74.3125 -10.603125 77.514583 -10.301042 80.686458 -9.7875 C 82.710417 -9.485417 84.704167 -9.696875 86.607292 -10.5125 C 92.105208 -12.808333 97.814583 -14.288542 103.705208 -15.104167 C 104.188542 -15.194792 104.611458 -15.194792 105.004167 -15.285417 C 105.910417 -15.40625 107.390625 -15.5875 109.203125 -15.798958 C 112.314583 -16.101042 117.0875 -16.49375 122.192708 -16.49375 C 132.3125 -16.49375 141.0125 -15.194792 148.80625 -12.50625 L 149.501042 -12.294792 L 150.105208 -12.113542 C 167.29375 -5.588542 175.99375 3.504167 182.307292 11.388542 L 182.609375 11.811458 L 183.485417 12.596875 C 189.194792 17.007292 193.997917 22.505208 197.804167 28.607292 L 199.0125 30.510417 L 200.009375 32.504167 C 208.407292 49.602083 205.688542 65.491667 204.691667 71.4125 L 204.601042 71.714583 C 203.90625 76.094792 202.697917 80.414583 201.1875 84.613542 C 200.613542 88.601042 199.707292 92.588542 198.408333 96.394792 C 196.203125 103.191667 192.910417 109.686458 188.711458 115.486458 C 186.294792 118.9 183.485417 122.192708 180.494792 125.092708 C 179.407292 126.089583 178.7125 127.509375 178.501042 128.989583 C 178.410417 129.895833 178.198958 130.802083 178.108333 131.708333 C 175.601042 144.909375 169.891667 154.092708 167.505208 157.808333 L 160.40625 167.988542 C 151.796875 178.7125 141.586458 185.690625 129.291667 189.496875 L 126.301042 190.403125 L 123.098958 191.007292 C 119.413542 191.702083 115.697917 192.004167 111.891667 192.004167 C 111.408333 192.004167 110.894792 192.004167 110.290625 192.004167 L 108.810417 192.004167 C 107.390625 192.004167 106.001042 192.30625 104.611458 192.698958 C 96.394792 195.296875 87.392708 196.505208 76.396875 196.505208 Z M 76.396875 196.505208 " transform="matrix(0.12931,0,0,0.12931,0,0)"/>
</g>
<mask id="mask2">
  <g filter="url(#alpha)">
<rect x="0" y="0" width="24" height="24" style="fill:rgb(0%,0%,0%);fill-opacity:0.8;stroke:none;"/>
  </g>
</mask>
<linearGradient id="linear1" gradientUnits="userSpaceOnUse" x1="-4.751" y1="644.7373" x2="191.2685" y2="851.3126" gradientTransform="matrix(1,0,0,1,0,-656)">
<stop offset="0.2057" style="stop-color:rgb(53.72549%,81.568627%,100%);stop-opacity:1;"/>
<stop offset="0.3984" style="stop-color:rgb(92.156863%,74.901961%,60.392157%);stop-opacity:1;"/>
<stop offset="0.6015" style="stop-color:rgb(92.156863%,50.196078%,85.490196%);stop-opacity:1;"/>
<stop offset="0.8411" style="stop-color:rgb(63.529412%,50.588235%,100%);stop-opacity:1;"/>
</linearGradient>
<clipPath id="clip4">
  <rect x="0" y="0" width="24" height="24"/>
</clipPath>
<g id="surface9" clip-path="url(#clip4)">
<path style="fill:none;stroke-width:1.0554;stroke-linecap:butt;stroke-linejoin:miter;stroke:url(#linear1);stroke-miterlimit:10;" d="M 76.396875 189.40625 C 69.902083 189.40625 63.588542 189.013542 58.392708 188.590625 L 57.214583 188.5 L 56.00625 188.288542 C 55.190625 188.197917 54.314583 188.107292 53.408333 187.986458 C 48.303125 187.503125 39.905208 186.50625 30.510417 182.095833 L 29.090625 181.401042 L 27.791667 180.70625 C 9.485417 170.586458 2.809375 155.5125 -1.208333 146.510417 C -1.510417 145.90625 -1.8125 145.090625 -2.205208 144.395833 C -4.108333 140.589583 -5.286458 136.994792 -6.313542 133.792708 L -6.494792 133.097917 L -6.70625 132.49375 C -9.304167 123.008333 -9.998958 115.003125 -8.790625 107.088542 C -7.6125 99.294792 -4.591667 92.014583 0.604167 84.402083 L 4.501042 78.088542 C 5.195833 77.001042 5.709375 75.702083 5.890625 74.403125 C 7.79375 63.588542 12.898958 56.00625 15.194792 52.502083 L 15.496875 52.109375 L 15.5875 51.897917 C 15.5875 51.807292 15.708333 51.686458 15.708333 51.595833 C 15.798958 51.1125 16.010417 50.689583 16.101042 50.296875 C 16.705208 45.886458 17.792708 41.50625 19.303125 37.307292 L 19.514583 36.703125 L 19.695833 36.098958 C 19.786458 35.8875 19.786458 35.70625 19.997917 35.102083 C 21.085417 31.809375 23.411458 24.891667 29.392708 17.490625 L 31.597917 14.892708 L 33.803125 12.898958 C 39.69375 7.491667 46.792708 3.504167 54.405208 1.298958 C 58.785417 0 63.195833 -0.785417 67.7875 -0.996875 L 68.814583 -0.996875 C 69.6 -0.996875 70.294792 -1.0875 70.989583 -1.0875 C 74.3125 -1.0875 77.514583 -1.99375 80.686458 -1.389583 C 83.19375 -0.90625 85.701042 -1.208333 87.996875 -2.205208 C 92.286458 -4.108333 98.086458 -4.803125 104.702083 -5.709375 C 105.185417 -5.8 105.608333 -5.8 105.910417 -5.890625 C 106.786458 -6.011458 108.20625 -6.192708 109.807292 -6.313542 C 112.707292 -6.585417 117.208333 -6.8875 122.102083 -6.8875 C 131.285417 -6.8875 139.109375 -5.709375 145.996875 -3.413542 L 146.601042 -3.202083 L 147.114583 -2.990625 C 162.309375 2.809375 169.801042 10.391667 175.691667 17.913542 C 175.99375 18.30625 176.386458 18.698958 176.507292 18.910417 L 176.597917 19.001042 L 177.685417 19.997917 L 177.80625 20.209375 C 182.911458 24.10625 187.201042 28.909375 190.49375 34.286458 L 191.490625 35.8875 L 192.30625 37.609375 C 199.495833 52.290625 197.290625 65.79375 196.29375 71.503125 L 196.203125 71.805208 C 195.508333 76.004167 194.390625 79.991667 192.910417 84.009375 C 192.396875 87.785417 191.490625 91.591667 190.3125 95.186458 C 188.288542 101.197917 185.388542 106.907292 181.703125 112.103125 C 179.195833 115.697917 176.205208 118.990625 173.003125 121.890625 C 171.492708 123.310417 170.495833 125.092708 170.314583 127.207292 C 170.103125 128.6875 169.891667 130.107292 169.710417 131.5875 C 167.505208 143.308333 162.490625 151.313542 160.104167 154.908333 L 154.304167 163.30625 C 146.601042 173.214583 137.508333 179.588542 126.5125 183.002083 L 124.005208 183.7875 L 121.286458 184.301042 C 118.114583 184.905208 114.791667 185.207292 111.589583 185.086458 C 111.10625 185.086458 110.592708 185.086458 110.109375 185.086458 L 109.686458 185.086458 C 109.686458 185.086458 109.595833 185.086458 109.414583 185.086458 L 107.088542 185.086458 C 105.608333 185.207292 104.097917 185.388542 102.5875 185.902083 C 95.307292 188.288542 86.788542 189.40625 76.396875 189.40625 Z M 76.396875 189.40625 " transform="matrix(0.12931,0,0,0.12931,0,0)"/>
</g>
<mask id="mask3">
  <g filter="url(#alpha)">
<rect x="0" y="0" width="24" height="24" style="fill:rgb(0%,0%,0%);fill-opacity:0.8;stroke:none;"/>
  </g>
</mask>
<linearGradient id="linear2" gradientUnits="userSpaceOnUse" x1="3.5765" y1="653.0396" x2="182.9841" y2="843.0211" gradientTransform="matrix(1,0,0,1,0,-656)">
<stop offset="0.2057" style="stop-color:rgb(53.72549%,81.568627%,100%);stop-opacity:1;"/>
<stop offset="0.3984" style="stop-color:rgb(92.156863%,74.901961%,60.392157%);stop-opacity:1;"/>
<stop offset="0.6015" style="stop-color:rgb(92.156863%,50.980392%,50.196078%);stop-opacity:1;"/>
<stop offset="0.8411" style="stop-color:rgb(63.529412%,50.588235%,100%);stop-opacity:1;"/>
</linearGradient>
<clipPath id="clip5">
  <rect x="0" y="0" width="24" height="24"/>
</clipPath>
<g id="surface12" clip-path="url(#clip5)">
<path style="fill:none;stroke-width:0.9894;stroke-linecap:butt;stroke-linejoin:miter;stroke:url(#linear2);stroke-miterlimit:10;" d="M 76.396875 181.098958 C 70.204167 181.098958 64.102083 180.70625 58.996875 180.313542 L 58 180.192708 L 57.003125 180.102083 C 56.096875 180.011458 55.1 179.890625 54.103125 179.8 C 49.3 179.286458 41.989583 178.501042 33.803125 174.604167 L 32.685417 174.090625 L 31.688542 173.486458 C 16.010417 164.695833 10.210417 151.70625 6.404167 143.096875 C 6.102083 142.402083 5.709375 141.495833 5.407292 140.801042 C 3.685417 137.3875 2.597917 134.185417 1.691667 131.194792 L 1.510417 130.711458 L 1.389583 130.197917 C -0.90625 122.011458 -1.510417 115.003125 -0.513542 108.3875 C 0.513542 101.711458 3.202083 95.397917 7.79375 88.691667 L 8.397917 87.90625 L 9.002083 87.090625 C 9.394792 86.607292 9.696875 86.09375 10.089583 85.701042 L 12.385417 81.411458 C 13.201042 79.991667 13.714583 78.511458 13.895833 76.910417 C 15.40625 67.304167 19.997917 60.386458 22.1125 57.214583 C 22.203125 57.003125 22.414583 56.791667 22.505208 56.701042 L 22.988542 56.00625 C 23.2 55.613542 23.411458 55.1 23.592708 54.495833 C 23.804167 53.891667 24.10625 52.985417 24.2875 52.2 C 24.801042 48.091667 25.797917 44.104167 27.1875 40.207292 L 27.398958 39.69375 L 27.610417 39.210417 C 27.701042 38.7875 27.9125 38.485417 28.09375 37.790625 C 29.090625 34.709375 30.99375 29 36.098958 22.807292 L 37.790625 20.692708 L 39.603125 19.091667 C 44.5875 14.5 50.598958 11.207292 57.09375 9.213542 C 60.9 8.095833 64.70625 7.401042 68.69375 7.189583 L 69.509375 7.189583 C 70.113542 7.189583 70.6875 7.189583 71.4125 7.189583 C 74.795833 7.189583 78.088542 7.6125 81.411458 8.488542 C 84.190625 9.213542 87.211458 8.911458 89.809375 7.6125 C 94.008333 5.588542 99.596875 3.413542 106.091667 2.597917 C 106.514583 2.507292 106.907292 2.507292 107.209375 2.386458 C 107.994792 2.295833 109.29375 2.114583 110.894792 1.99375 C 113.613542 1.691667 117.903125 1.389583 122.404167 1.389583 C 130.590625 1.389583 137.508333 2.386458 143.610417 4.501042 L 144.003125 4.7125 L 144.395833 4.89375 C 158.4125 10.210417 164.605208 17.097917 169.408333 23.2 C 170.495833 24.498958 170.586458 24.710417 171.311458 25.405208 L 172.1875 26.190625 L 172.489583 26.613542 C 174.785417 28.395833 179.497917 32.111458 183.60625 38.7875 L 184.391667 40.086458 L 185.086458 41.385417 C 191.188542 53.710417 189.285417 64.8875 188.409375 70.294792 L 188.288542 70.596875 C 187.714583 74.49375 186.596875 78.390625 184.995833 82.10625 L 184.995833 82.408333 C 184.603125 85.9125 183.7875 89.386458 182.7 92.709375 C 181.008333 97.995833 178.501042 102.889583 175.208333 107.390625 C 172.489583 111.2875 169.196875 114.791667 165.511458 117.8125 C 164.605208 118.507292 163.910417 119.413542 163.396875 120.410417 C 162.913542 121.407292 162.611458 122.494792 162.490625 123.6125 C 162.4 125.7875 162.097917 127.992708 161.705208 130.197917 C 159.802083 140.2875 155.391667 147.295833 153.186458 150.8 L 148.685417 157.385417 C 142.009375 166.3875 134.004167 172.1875 124.307292 175.208333 L 122.313542 175.8125 L 120.108333 176.205208 C 117.389583 176.688542 114.610417 176.9 111.801042 176.9 C 111.408333 176.9 110.894792 176.9 110.411458 176.9 L 109.807292 176.9 C 109.686458 176.9 109.505208 176.9 108.991667 176.9 L 108.085417 176.9 L 105.789583 176.990625 C 104.188542 177.111458 102.5875 177.292708 101.107292 177.896875 C 94.189583 180.102083 86.305208 181.098958 76.396875 181.098958 Z M 76.396875 181.098958 " transform="matrix(0.12931,0,0,0.12931,0,0)"/>
</g>
<mask id="mask4">
  <g filter="url(#alpha)">
<rect x="0" y="0" width="24" height="24" style="fill:rgb(0%,0%,0%);fill-opacity:0.8;stroke:none;"/>
  </g>
</mask>
<linearGradient id="linear3" gradientUnits="userSpaceOnUse" x1="11.8926" y1="661.3707" x2="174.6515" y2="834.707" gradientTransform="matrix(1,0,0,1,0,-656)">
<stop offset="0.2057" style="stop-color:rgb(53.72549%,81.568627%,100%);stop-opacity:1;"/>
<stop offset="0.3984" style="stop-color:rgb(92.156863%,74.901961%,60.392157%);stop-opacity:1;"/>
<stop offset="0.6015" style="stop-color:rgb(92.156863%,50.196078%,90.588235%);stop-opacity:1;"/>
<stop offset="0.8411" style="stop-color:rgb(63.529412%,50.588235%,100%);stop-opacity:1;"/>
</linearGradient>
<clipPath id="clip6">
  <rect x="0" y="0" width="24" height="24"/>
</clipPath>
<g id="surface15" clip-path="url(#clip6)">
<path style="fill:none;stroke-width:0.9235;stroke-linecap:butt;stroke-linejoin:miter;stroke:url(#linear3);stroke-miterlimit:10;" d="M 76.396875 172.791667 C 70.50625 172.791667 64.585417 172.398958 59.691667 172.00625 L 58.996875 171.885417 L 58.302083 171.794792 C 57.305208 171.704167 56.1875 171.492708 55.190625 171.402083 C 50.689583 170.888542 44.496875 170.19375 37.488542 166.991667 L 36.703125 166.598958 L 35.8875 166.20625 C 22.595833 158.714583 17.702083 147.688542 14.107292 139.713542 C 13.714583 138.897917 13.291667 137.991667 12.989583 137.20625 C 11.509375 134.094792 10.5125 131.194792 9.696875 128.6875 L 9.60625 128.294792 L 9.304167 127.992708 C 5.407292 114.1875 6.8875 104.490625 14.5 93.404167 L 15.285417 92.195833 C 15.798958 91.591667 16.3125 90.896875 16.795833 90.292708 C 17.490625 89.386458 18.185417 88.389583 19.001042 87.513542 C 19.514583 86.909375 19.907292 86.214583 20.209375 85.489583 L 21.085417 83.314583 C 21.508333 82.2875 21.689583 81.290625 21.810417 80.29375 C 22.595833 71.4125 26.885417 65.008333 29 61.80625 C 29.211458 61.594792 29.392708 61.202083 29.513542 61.111458 L 29.996875 60.295833 L 30.208333 60.114583 C 30.510417 59.601042 30.99375 58.392708 31.386458 57.214583 C 31.597917 56.398958 31.990625 55.1 32.413542 54.0125 L 32.413542 53.891667 C 32.80625 50.20625 33.7125 46.490625 35.011458 42.986458 L 35.102083 42.714583 L 35.192708 42.4125 C 35.404167 41.808333 35.585417 41.294792 35.796875 40.6 C 36.703125 37.911458 38.213542 33.289583 42.291667 28.214583 L 43.590625 26.613542 L 44.889583 25.405208 C 54.586458 16.614583 65.401042 15.889583 68.995833 15.5875 L 69.6 15.5875 C 70.113542 15.5875 70.596875 15.5875 71.110417 15.5875 C 75.4 15.5875 79.598958 16.49375 83.586458 18.185417 C 84.311458 18.4875 85.096875 18.608333 85.791667 18.608333 C 86.607292 18.608333 87.302083 18.396875 87.996875 18.004167 C 91.7125 15.889583 98.388542 11.992708 106.997917 10.995833 C 107.390625 10.905208 107.813542 10.905208 108.085417 10.905208 C 108.901042 10.814583 110.109375 10.69375 111.498958 10.5125 C 114.096875 10.301042 117.99375 9.998958 122.192708 9.998958 C 129.503125 9.998958 135.514583 10.905208 140.589583 12.596875 L 140.891667 12.6875 L 141.19375 12.808333 C 153.186458 17.309375 158.291667 22.988542 162.611458 28.395833 C 163.698958 29.90625 164.303125 30.510417 165.511458 31.688542 L 166.20625 32.292708 L 166.689583 32.896875 L 167.1125 33.198958 C 169.10625 34.8 172.9125 37.7 176.295833 43.197917 L 176.9 44.194792 L 177.413542 45.191667 C 182.307292 55.190625 180.70625 64.192708 179.890625 68.995833 L 179.890625 69.297917 C 179.286458 72.802083 178.289583 76.30625 176.9 79.598958 L 176.809375 79.901042 C 176.809375 79.991667 176.809375 79.991667 176.688542 80.203125 C 176.597917 80.505208 176.597917 80.807292 176.597917 81.109375 L 176.507292 81.502083 C 176.205208 84.492708 175.510417 87.392708 174.513542 90.202083 C 173.003125 94.703125 170.888542 98.902083 168.109375 102.708333 C 165.390625 106.605208 162.309375 109.807292 158.895833 112.314583 C 157.385417 113.402083 156.207292 114.791667 155.301042 116.513542 C 154.394792 118.205208 154.002083 119.9875 154.002083 121.890625 C 154.002083 124.186458 153.7 126.603125 153.307292 128.898958 C 151.70625 137.508333 148.111458 143.308333 145.785417 146.8125 L 142.492708 151.70625 C 136.692708 159.802083 129.805208 164.997917 121.497917 167.595833 L 121.105208 167.686458 C 120.410417 167.897917 119.685417 168.109375 118.990625 168.2 L 118.507292 168.290625 C 116.211458 168.713542 113.885417 168.894792 111.589583 168.894792 C 111.196875 168.894792 110.804167 168.894792 110.411458 168.894792 L 110.290625 168.894792 C 110.109375 168.894792 109.897917 168.894792 109.686458 168.894792 C 109.505208 168.894792 109.1125 168.894792 108.296875 168.894792 L 107.692708 168.894792 C 106.605208 168.894792 105.185417 168.985417 104.007292 168.985417 C 102.285417 169.10625 100.714583 169.408333 99.113542 170.0125 C 93.102083 171.794792 85.791667 172.791667 76.396875 172.791667 Z M 76.396875 172.791667 " transform="matrix(0.12931,0,0,0.12931,0,0)"/>
</g>
<mask id="mask5">
  <g filter="url(#alpha)">
<rect x="0" y="0" width="24" height="24" style="fill:rgb(0%,0%,0%);fill-opacity:0.8;stroke:none;"/>
  </g>
</mask>
<linearGradient id="linear4" gradientUnits="userSpaceOnUse" x1="20.1602" y1="669.7178" x2="166.3016" y2="826.3961" gradientTransform="matrix(1,0,0,1,0,-656)">
<stop offset="0.2057" style="stop-color:rgb(53.72549%,81.568627%,100%);stop-opacity:1;"/>
<stop offset="0.3984" style="stop-color:rgb(92.156863%,74.901961%,60.392157%);stop-opacity:1;"/>
<stop offset="0.6015" style="stop-color:rgb(92.156863%,50.196078%,82.745098%);stop-opacity:1;"/>
<stop offset="0.8411" style="stop-color:rgb(63.529412%,50.588235%,100%);stop-opacity:1;"/>
</linearGradient>
<clipPath id="clip7">
  <rect x="0" y="0" width="24" height="24"/>
</clipPath>
<g id="surface18" clip-path="url(#clip7)">
<path style="fill:none;stroke-width:0.8575;stroke-linecap:butt;stroke-linejoin:miter;stroke:url(#linear4);stroke-miterlimit:10;" d="M 76.396875 164.514583 C 70.6875 164.514583 65.098958 164.091667 60.295833 163.698958 L 59.8125 163.698958 L 59.298958 163.608333 C 58.211458 163.396875 57.003125 163.30625 55.885417 163.185417 C 51.686458 162.702083 46.490625 162.188542 40.902083 159.5 L 40.297917 159.197917 L 39.814583 158.895833 C 28.909375 152.79375 24.801042 143.610417 21.598958 136.209375 C 21.20625 135.303125 20.813542 134.396875 20.390625 133.4 C 19.091667 130.802083 18.185417 128.204167 17.490625 125.998958 L 17.309375 125.394792 C 14.107292 114.00625 15.194792 106.786458 21.3875 97.814583 L 21.689583 97.391667 L 21.991667 96.998958 C 22.505208 96.304167 22.988542 95.7 23.502083 95.005208 C 25.103125 92.890625 26.704167 90.80625 29 88.298958 C 29.513542 87.785417 29.785417 87 29.90625 86.305208 L 29.996875 84.009375 L 29.90625 83.103125 L 29.90625 82.196875 C 30.0875 74.795833 33.803125 69.297917 35.796875 66.307292 C 36.008333 66.005208 36.310417 65.6125 36.401042 65.401042 L 36.703125 64.8875 L 37.005208 64.494792 C 37.397917 63.890625 38.304167 61.80625 39.089583 59.903125 C 39.391667 59.0875 39.814583 57.486458 40.297917 56.1875 C 40.388542 55.794792 40.388542 55.704167 40.509375 54.797917 C 40.811458 51.686458 41.596875 48.605208 42.59375 45.705208 L 42.714583 45.49375 L 42.805208 45.3125 C 43.107292 44.496875 43.288542 43.892708 43.590625 43.107292 C 44.40625 40.690625 45.614583 37.186458 48.695833 33.289583 L 49.602083 32.202083 L 50.508333 31.386458 C 57.305208 25.314583 64.585417 24.10625 69.6 23.804167 L 69.992708 23.804167 C 70.385417 23.804167 70.6875 23.804167 71.110417 23.804167 C 75.309375 23.804167 80.414583 25.797917 83.103125 27.096875 C 83.707292 27.398958 84.402083 27.610417 85.096875 27.610417 C 85.791667 27.610417 86.486458 27.489583 87.211458 27.308333 C 88.903125 26.704167 90.504167 26.009375 92.014583 25.19375 C 95.397917 23.2 100.986458 19.997917 107.994792 19.2125 C 108.3875 19.091667 108.689583 19.091667 108.991667 19.091667 C 109.686458 19.001042 110.804167 18.910417 112.19375 18.698958 C 114.610417 18.4875 118.205208 18.185417 122.102083 18.185417 C 128.385417 18.185417 133.611458 18.910417 137.810417 20.390625 L 137.991667 20.511458 L 138.203125 20.602083 C 148.202083 24.408333 152.189583 28.697917 155.995833 33.591667 C 157.204167 35.192708 158.110417 36.310417 159.892708 37.911458 L 160.285417 38.304167 L 160.708333 38.696875 C 161.101042 39.089583 161.49375 39.391667 161.886458 39.69375 C 163.608333 40.992708 166.508333 43.288542 168.985417 47.4875 L 169.408333 48.091667 L 169.710417 48.786458 C 173.395833 56.308333 172.1875 63.407292 171.492708 67.60625 L 171.492708 67.908333 C 171.009375 70.808333 170.19375 73.5875 168.985417 76.30625 C 168.713542 77.001042 168.502083 77.695833 168.290625 78.511458 C 168.2 78.994792 168.109375 79.508333 168.109375 79.901042 L 167.988542 80.29375 C 167.686458 82.710417 167.203125 85.096875 166.3875 87.392708 C 165.209375 91.108333 163.396875 94.6125 161.191667 97.69375 C 157.808333 102.496875 153.911458 105.910417 149.198958 108.085417 C 148.111458 108.598958 147.114583 109.414583 146.389583 110.502083 C 145.694792 111.498958 145.302083 112.797917 145.211458 114.00625 C 145.211458 114.489583 145.211458 114.9125 145.211458 115.214583 C 145.392708 118.809375 145.694792 122.8875 144.909375 127.207292 C 143.610417 134.185417 140.589583 138.897917 138.414583 142.402083 C 138.414583 142.402083 128.204167 156.6 118.9 159.5 L 117.903125 159.802083 L 116.785417 160.013542 C 115.003125 160.285417 113.190625 160.496875 111.2875 160.496875 C 110.985417 160.496875 110.592708 160.496875 110.2 160.496875 C 109.988542 160.496875 109.686458 160.496875 109.414583 160.496875 C 108.991667 160.496875 108.3875 160.496875 107.511458 160.5875 L 107.088542 160.5875 C 103.49375 160.708333 100.201042 160.798958 99.204167 161.010417 C 98.690625 161.101042 98.207292 161.191667 97.69375 161.403125 C 92.8 163.4875 85.9125 164.514583 76.396875 164.514583 Z M 76.396875 164.514583 " transform="matrix(0.12931,0,0,0.12931,0,0)"/>
</g>
<mask id="mask6">
  <g filter="url(#alpha)">
<rect x="0" y="0" width="24" height="24" style="fill:rgb(0%,0%,0%);fill-opacity:0.8;stroke:none;"/>
  </g>
</mask>
<linearGradient id="linear5" gradientUnits="userSpaceOnUse" x1="28.5352" y1="677.9645" x2="158.045" y2="818.0479" gradientTransform="matrix(1,0,0,1,0,-656)">
<stop offset="0.2057" style="stop-color:rgb(53.72549%,81.568627%,100%);stop-opacity:1;"/>
<stop offset="0.3984" style="stop-color:rgb(92.156863%,74.901961%,60.392157%);stop-opacity:1;"/>
<stop offset="0.6015" style="stop-color:rgb(63.529412%,50.196078%,92.156863%);stop-opacity:1;"/>
<stop offset="0.8411" style="stop-color:rgb(63.529412%,50.588235%,100%);stop-opacity:1;"/>
</linearGradient>
<clipPath id="clip8">
  <rect x="0" y="0" width="24" height="24"/>
</clipPath>
<g id="surface21" clip-path="url(#clip8)">
<path style="fill:none;stroke-width:0.8575;stroke-linecap:butt;stroke-linejoin:miter;stroke:url(#linear5);stroke-miterlimit:10;" d="M 76.396875 156.297917 C 70.989583 156.297917 65.6125 155.905208 60.990625 155.603125 L 60.597917 155.603125 C 59.298958 155.391667 58.090625 155.301042 57.003125 155.210417 C 53.10625 154.7875 48.997917 154.304167 44.5875 152.310417 L 44.285417 152.189583 L 44.013542 152.098958 C 35.494792 147.295833 32.292708 140.196875 29.302083 133.309375 C 28.909375 132.3125 28.395833 131.285417 27.9125 130.288542 C 26.885417 128.294792 26.1 126.089583 25.495833 124.005208 L 25.495833 123.79375 C 22.897917 114.701042 23.592708 110.109375 28.395833 103.101042 L 28.486458 102.889583 L 28.607292 102.708333 C 29.211458 102.013542 29.694792 101.288542 30.208333 100.714583 C 32.504167 97.69375 34.497917 95.095833 38.998958 90.896875 C 39.301042 90.594792 39.603125 90.202083 39.69375 89.688542 C 39.814583 89.295833 39.814583 88.8125 39.603125 88.389583 L 38.7875 86.09375 C 38.60625 85.398958 38.485417 84.613542 38.485417 83.888542 L 38.485417 82.801042 C 38.696875 77.786458 41.294792 73.889583 42.986458 71.291667 C 43.288542 70.898958 43.5 70.50625 43.711458 70.204167 L 43.892708 69.902083 L 44.104167 69.6 C 45.010417 68.391667 46.490625 64.8875 47.30625 62.803125 C 47.4875 62.108333 48.001042 60.386458 48.514583 59.0875 C 48.786458 58.090625 48.997917 57.09375 49.088542 56.096875 C 49.390625 53.589583 49.904167 51.1125 50.810417 48.786458 L 50.810417 48.605208 C 51.203125 47.608333 51.505208 46.792708 51.686458 46.007292 C 52.411458 43.892708 53.196875 41.50625 55.402083 38.7875 L 55.794792 38.304167 L 56.1875 37.911458 C 60.990625 33.501042 66.307292 32.685417 70.294792 32.413542 L 70.50625 32.413542 C 70.6875 32.413542 70.989583 32.413542 71.201042 32.413542 C 75.188542 32.413542 78.209375 34.014583 80.203125 35.102083 L 80.686458 35.313542 L 80.807292 35.313542 C 81.411458 35.585417 81.804167 35.8875 82.2875 36.098958 C 83.495833 36.703125 85.00625 36.914583 86.305208 36.491667 C 89.114583 35.796875 93.404167 34.105208 96.213542 32.504167 L 96.304167 32.504167 C 99.294792 30.691667 103.886458 28.09375 109.29375 27.489583 C 109.595833 27.398958 109.988542 27.398958 110.290625 27.398958 C 110.894792 27.308333 112.0125 27.1875 113.190625 27.096875 C 115.395833 26.885417 118.809375 26.613542 122.313542 26.613542 C 127.690625 26.613542 132.010417 27.1875 135.303125 28.305208 L 135.514583 28.305208 C 143.489583 31.295833 146.510417 34.497917 149.7125 38.696875 C 151.011458 40.388542 152.310417 41.989583 154.696875 44.104167 L 154.908333 44.285417 L 155.089583 44.496875 C 155.69375 45.101042 156.388542 45.705208 157.204167 46.309375 C 158.59375 47.396875 160.5875 48.907292 162.309375 51.807292 L 162.490625 52.109375 L 162.702083 52.411458 C 165.209375 57.607292 164.39375 62.501042 163.789583 66.186458 L 163.789583 66.488542 C 163.396875 68.814583 162.792708 70.989583 161.795833 73.194792 C 161.3125 74.403125 160.889583 75.702083 160.708333 77.001042 C 160.5875 77.786458 160.496875 78.390625 160.40625 78.904167 L 160.285417 79.296875 C 160.104167 81.2 159.711458 83.0125 159.107292 84.794792 C 158.201042 87.694792 156.811458 90.413542 154.998958 92.890625 C 152.008333 97.301042 148.594792 99.989583 144.09375 101.409375 C 141.888542 102.104167 140.10625 103.49375 138.897917 105.396875 L 138.505208 105.910417 L 138.1125 106.39375 C 136.994792 107.692708 137.296875 112.707292 137.508333 115.697917 C 137.689583 118.990625 137.901042 122.404167 137.296875 125.60625 C 136.3 131.104167 133.913542 134.789583 131.798958 137.991667 C 131.798958 137.991667 124.005208 149.289583 116.90625 151.404167 L 116.392708 151.585417 L 115.909375 151.70625 C 114.610417 151.8875 113.190625 152.098958 111.801042 152.098958 C 111.498958 152.098958 111.196875 152.098958 110.804167 152.098958 C 110.502083 152.098958 110.2 152.098958 109.807292 152.098958 C 109.29375 152.098958 108.598958 152.098958 107.390625 152.189583 L 107.209375 152.189583 C 102.496875 152.401042 99.596875 152.491667 97.995833 152.79375 C 96.908333 153.005208 95.911458 153.307292 94.914583 153.7 C 90.594792 155.391667 84.794792 156.297917 76.396875 156.297917 Z M 76.396875 156.297917 " transform="matrix(0.12931,0,0,0.12931,0,0)"/>
</g>
<clipPath id="clip2">
  <rect x="0" y="0" width="24" height="24"/>
</clipPath>
<g id="surface23" clip-path="url(#clip2)">
<use xlink:href="#surface6" mask="url(#mask1)"/>
<use xlink:href="#surface9" mask="url(#mask2)"/>
<use xlink:href="#surface12" mask="url(#mask3)"/>
<use xlink:href="#surface15" mask="url(#mask4)"/>
<use xlink:href="#surface18" mask="url(#mask5)"/>
<use xlink:href="#surface21" mask="url(#mask6)"/>
</g>
</defs>
<g id="surface1">
<path style=" stroke:none;fill-rule:nonzero;fill:url(#radial0);" d="M 24 12 C 24 5.367188 18.621094 0 12 0 C 5.367188 0 0 5.367188 0 12 C 0 18.621094 5.367188 24 12 24 C 18.621094 24 24 18.621094 24 12 Z M 24 12 "/>
<path style=" stroke:none;fill-rule:nonzero;fill:rgb(100%,100%,100%);fill-opacity:1;" d="M 20.160156 8.25 C 20.109375 8.546875 20.054688 8.691406 19.976562 8.84375 C 19.902344 9.027344 19.824219 9.21875 19.746094 9.632812 C 19.71875 9.789062 19.695312 9.917969 19.679688 10.023438 L 19.679688 10.035156 C 19.65625 10.203125 19.640625 10.320312 19.578125 10.511719 C 19.527344 10.679688 19.433594 10.953125 19.214844 11.238281 C 19.035156 11.46875 18.738281 11.871094 18.335938 11.921875 C 18.296875 11.921875 18.234375 11.921875 18.195312 11.910156 C 17.054688 11.328125 16.085938 10.902344 15.75 10.808594 C 15.363281 10.695312 15.414062 9.839844 15.453125 9.089844 C 15.476562 8.753906 15.492188 8.429688 15.476562 8.160156 C 15.425781 7.203125 15.257812 6.167969 14.429688 5.664062 C 13.941406 5.367188 13.292969 5.277344 12.683594 5.277344 C 12.800781 5.222656 12.917969 5.148438 13.058594 5.070312 C 13.421875 4.863281 13.863281 4.601562 14.316406 4.550781 C 14.457031 4.539062 14.597656 4.527344 14.742188 4.5 C 15.632812 4.398438 16.410156 4.304688 17.222656 4.589844 C 17.597656 4.71875 18.347656 5.132812 18.542969 5.535156 C 18.683594 5.804688 18.917969 6.027344 19.371094 6.453125 C 19.617188 6.671875 19.773438 6.800781 19.886719 6.90625 C 20.054688 7.035156 20.082031 7.074219 20.132812 7.164062 C 20.289062 7.472656 20.238281 7.796875 20.160156 8.25 Z M 20.160156 8.25 "/>
<path style=" stroke:none;fill-rule:nonzero;fill:rgb(100%,100%,100%);fill-opacity:1;" d="M 16.035156 12.167969 C 16.085938 12.179688 16.113281 12.246094 16.074219 12.296875 C 15.957031 12.476562 15.816406 12.738281 15.648438 13.035156 C 15.570312 13.175781 15.492188 13.320312 15.425781 13.421875 C 15.207031 13.796875 15.195312 14.121094 15.179688 14.367188 C 15.167969 14.636719 15.15625 14.753906 14.988281 14.859375 C 14.859375 14.949219 14.714844 14.972656 13.785156 15.117188 C 13.617188 15.140625 13.550781 15.167969 13.488281 15.207031 C 13.472656 15.21875 13.449219 15.21875 13.433594 15.234375 C 13.382812 15.257812 13.332031 15.207031 13.332031 15.15625 C 13.34375 15.027344 13.34375 14.859375 13.34375 14.636719 L 13.34375 14.597656 C 13.34375 14.417969 13.34375 14.261719 13.332031 14.148438 C 13.320312 13.914062 13.320312 13.808594 13.382812 13.707031 C 13.460938 13.578125 13.527344 13.539062 13.617188 13.472656 C 13.757812 13.382812 13.953125 13.265625 14.222656 12.878906 C 14.378906 12.671875 14.40625 12.554688 14.429688 12.464844 C 14.445312 12.425781 14.445312 12.414062 14.558594 12.324219 C 14.675781 12.234375 15.050781 11.949219 15.53125 12.027344 C 15.683594 12.050781 15.851562 12.101562 16.035156 12.167969 Z M 16.035156 12.167969 "/>
<path style=" stroke:none;fill-rule:nonzero;fill:rgb(100%,100%,100%);fill-opacity:1;" d="M 12.324219 16.460938 C 12.296875 16.488281 12.285156 16.5 12.246094 16.5 C 12.140625 16.5 12.078125 16.472656 12.039062 16.421875 C 11.949219 16.304688 11.960938 16.074219 11.972656 15.929688 L 12.375 15.828125 C 12.402344 16.046875 12.414062 16.34375 12.324219 16.460938 Z M 12.324219 16.460938 "/>
<path style=" stroke:none;fill-rule:nonzero;fill:rgb(100%,100%,100%);fill-opacity:1;" d="M 12.347656 15.039062 C 12.335938 15.089844 12.335938 15.15625 12.335938 15.234375 C 12.335938 15.257812 12.335938 15.285156 12.335938 15.308594 C 12.335938 15.375 12.335938 15.476562 12.335938 15.53125 C 12.207031 15.570312 12.101562 15.570312 11.972656 15.570312 C 11.972656 15.53125 11.972656 15.464844 11.972656 15.425781 C 11.972656 15.402344 11.972656 15.363281 11.972656 15.335938 C 11.972656 15.296875 11.972656 15.273438 11.972656 15.234375 C 11.972656 15.15625 11.972656 15.039062 11.988281 15 C 12.027344 15 12.066406 14.988281 12.101562 14.972656 C 12.179688 14.960938 12.296875 14.933594 12.363281 14.949219 C 12.363281 14.972656 12.363281 15.011719 12.347656 15.039062 Z M 12.347656 15.039062 "/>
<path style=" stroke:none;fill-rule:nonzero;fill:rgb(100%,100%,100%);fill-opacity:1;" d="M 11.625 16.34375 C 11.613281 16.550781 11.546875 16.796875 11.351562 16.835938 C 11.261719 16.847656 11.222656 16.824219 11.199219 16.796875 C 11.070312 16.679688 11.054688 16.320312 11.070312 16.058594 C 11.160156 16.058594 11.261719 16.046875 11.390625 16.023438 C 11.46875 16.007812 11.546875 15.984375 11.613281 15.96875 C 11.625 16.074219 11.636719 16.203125 11.625 16.34375 Z M 11.625 16.34375 "/>
<path style=" stroke:none;fill-rule:nonzero;fill:rgb(100%,100%,100%);fill-opacity:1;" d="M 11.535156 15.621094 L 11.109375 15.777344 C 11.132812 15.609375 11.160156 15.375 11.171875 15.21875 C 11.183594 15.117188 11.210938 15.078125 11.222656 15.066406 C 11.222656 15.066406 11.238281 15.050781 11.25 15.050781 C 11.25 15.050781 11.25 15.050781 11.261719 15.050781 L 11.277344 15.050781 L 11.546875 15.039062 C 11.535156 15.167969 11.535156 15.453125 11.535156 15.621094 Z M 11.535156 15.621094 "/>
<path style=" stroke:none;fill-rule:nonzero;fill:rgb(100%,100%,100%);fill-opacity:1;" d="M 10.835938 15.492188 C 10.808594 15.554688 10.785156 15.738281 10.773438 15.867188 L 10.242188 15.851562 C 10.265625 15.683594 10.320312 15.515625 10.359375 15.386719 C 10.410156 15.257812 10.449219 15.15625 10.5 15.128906 C 10.550781 15.101562 10.667969 15.089844 10.746094 15.15625 C 10.863281 15.234375 10.886719 15.347656 10.835938 15.492188 Z M 10.835938 15.492188 "/>
<path style=" stroke:none;fill-rule:nonzero;fill:rgb(100%,100%,100%);fill-opacity:1;" d="M 10.640625 17.132812 C 10.601562 17.183594 10.550781 17.222656 10.5 17.222656 C 10.433594 17.238281 10.398438 17.210938 10.359375 17.183594 C 10.191406 17.03125 10.203125 16.527344 10.214844 16.28125 C 10.433594 16.226562 10.679688 16.191406 10.796875 16.175781 C 10.796875 16.371094 10.808594 16.902344 10.640625 17.132812 Z M 10.640625 17.132812 "/>
<path style=" stroke:none;fill-rule:nonzero;fill:rgb(100%,100%,100%);fill-opacity:1;" d="M 9.945312 15.828125 C 9.917969 15.890625 9.890625 15.957031 9.878906 16.023438 C 9.816406 16.046875 9.621094 16.023438 9.425781 15.984375 L 9.554688 15.140625 C 9.777344 15.078125 10.035156 15.066406 10.085938 15.128906 C 10.175781 15.21875 10.007812 15.648438 9.945312 15.828125 Z M 9.945312 15.828125 "/>
<path style=" stroke:none;fill-rule:nonzero;fill:rgb(100%,100%,100%);fill-opacity:1;" d="M 9.699219 17.25 C 9.59375 17.378906 9.441406 17.445312 9.21875 17.429688 C 9.066406 17.429688 9.011719 17.367188 8.988281 17.328125 C 8.871094 17.132812 8.988281 16.679688 9.101562 16.398438 L 9.828125 16.433594 C 9.839844 16.488281 9.839844 16.550781 9.839844 16.617188 C 9.851562 16.835938 9.828125 17.09375 9.699219 17.25 Z M 9.699219 17.25 "/>
<path style=" stroke:none;fill-rule:nonzero;fill:rgb(100%,100%,100%);fill-opacity:1;" d="M 15.699219 11.132812 C 15.039062 10.953125 15.101562 9.996094 15.15625 9.066406 C 15.167969 8.742188 15.195312 8.429688 15.179688 8.171875 C 15.128906 7.304688 14.988281 6.363281 14.289062 5.933594 C 13.539062 5.484375 12.308594 5.585938 11.558594 5.675781 C 11.289062 5.753906 11.03125 5.820312 10.824219 5.804688 C 10.382812 5.78125 10.035156 5.597656 9.722656 5.429688 C 9.492188 5.300781 9.285156 5.183594 9.078125 5.183594 C 9.066406 5.183594 9.050781 5.183594 9.050781 5.183594 C 8.46875 5.222656 8.199219 5.367188 7.953125 5.585938 C 7.886719 5.636719 7.808594 5.792969 7.566406 6.503906 C 7.433594 6.867188 7.421875 7.058594 7.398438 7.242188 C 7.371094 7.410156 7.359375 7.589844 7.265625 7.863281 C 7.203125 8.042969 7.152344 8.199219 7.113281 8.351562 C 6.996094 8.753906 6.890625 9.078125 6.609375 9.464844 C 6.570312 9.503906 6.53125 9.582031 6.476562 9.648438 C 6.414062 9.75 6.335938 9.878906 6.21875 10.023438 C 6.140625 10.125 5.972656 10.511719 5.988281 10.628906 C 6 10.824219 6.066406 10.941406 6.128906 11.070312 C 6.195312 11.199219 6.285156 11.351562 6.296875 11.574219 L 6.296875 11.613281 C 6.324219 11.949219 6.273438 12.117188 5.636719 12.683594 C 5.238281 13.046875 4.941406 13.398438 4.746094 13.65625 C 4.734375 13.679688 4.746094 13.707031 4.785156 13.707031 C 4.796875 13.707031 4.796875 13.707031 4.796875 13.707031 C 4.808594 13.707031 4.824219 13.707031 4.835938 13.707031 C 4.847656 13.707031 4.863281 13.707031 4.875 13.707031 C 4.886719 13.707031 4.902344 13.707031 4.914062 13.707031 C 5.070312 13.71875 5.222656 13.785156 5.328125 13.902344 C 5.339844 13.925781 5.378906 13.925781 5.40625 13.914062 C 5.507812 13.875 5.625 13.875 5.726562 13.886719 C 5.859375 13.902344 6 13.941406 6.089844 14.03125 C 6.117188 14.054688 6.15625 14.070312 6.195312 14.054688 C 6.296875 14.03125 6.414062 14.03125 6.515625 14.070312 C 6.59375 14.09375 6.671875 14.148438 6.722656 14.210938 C 6.761719 14.25 6.828125 14.261719 6.878906 14.238281 C 6.90625 14.222656 6.945312 14.199219 6.984375 14.183594 C 7.125 14.132812 7.28125 14.160156 7.410156 14.210938 C 7.472656 14.238281 7.539062 14.25 7.601562 14.300781 C 7.707031 14.378906 7.785156 14.484375 7.824219 14.597656 C 7.847656 14.664062 7.941406 14.691406 7.992188 14.636719 C 8.09375 14.558594 8.171875 14.546875 8.25 14.574219 C 8.289062 14.585938 8.316406 14.613281 8.339844 14.652344 C 8.378906 14.703125 8.445312 14.753906 8.496094 14.726562 C 8.714844 14.664062 8.972656 14.703125 9.167969 14.804688 C 9.234375 14.84375 9.308594 14.898438 9.347656 14.972656 L 9.347656 14.933594 C 9.347656 14.921875 9.363281 14.910156 9.375 14.898438 L 9.414062 14.882812 C 9.515625 14.84375 10.058594 14.691406 10.265625 14.910156 C 10.28125 14.921875 10.292969 14.921875 10.304688 14.910156 C 10.332031 14.882812 10.359375 14.859375 10.371094 14.859375 C 10.511719 14.78125 10.746094 14.765625 10.902344 14.910156 C 10.925781 14.933594 10.976562 14.921875 11.003906 14.898438 C 11.015625 14.871094 11.03125 14.859375 11.054688 14.84375 C 11.109375 14.792969 11.183594 14.78125 11.261719 14.78125 L 11.558594 14.765625 C 11.636719 14.765625 11.871094 14.742188 11.933594 14.726562 L 11.949219 14.726562 C 11.972656 14.726562 12.011719 14.714844 12.050781 14.703125 C 12.195312 14.675781 12.363281 14.636719 12.492188 14.703125 C 12.621094 14.765625 12.609375 14.910156 12.59375 15.039062 C 12.59375 15.089844 12.582031 15.140625 12.582031 15.195312 C 12.582031 15.21875 12.582031 15.246094 12.582031 15.273438 C 12.582031 15.386719 12.582031 15.492188 12.570312 15.570312 L 12.582031 15.632812 C 12.582031 15.632812 12.582031 15.632812 12.582031 15.648438 C 12.59375 15.699219 12.660156 15.738281 12.699219 15.699219 C 12.800781 15.632812 12.90625 15.554688 12.945312 15.503906 L 12.945312 15.492188 C 12.945312 15.476562 12.957031 15.453125 12.96875 15.402344 C 12.984375 15.285156 13.007812 15.066406 13.007812 14.613281 C 13.007812 14.585938 13.007812 14.574219 13.007812 14.558594 C 13.007812 14.390625 13.007812 14.25 12.996094 14.132812 C 12.984375 13.886719 12.96875 13.695312 13.097656 13.5 C 13.214844 13.304688 13.332031 13.242188 13.449219 13.164062 C 13.578125 13.085938 13.71875 12.996094 13.964844 12.660156 C 14.082031 12.492188 14.09375 12.425781 14.109375 12.375 C 14.132812 12.246094 14.171875 12.167969 14.367188 12.039062 C 14.523438 11.921875 14.972656 11.574219 15.59375 11.675781 C 15.800781 11.714844 16.125 11.820312 16.460938 11.949219 C 16.472656 11.949219 16.488281 11.960938 16.5 11.960938 L 16.511719 11.960938 C 16.808594 12.078125 17.082031 12.207031 17.277344 12.308594 C 17.316406 12.335938 17.367188 12.324219 17.40625 12.285156 C 17.46875 12.207031 17.535156 12.167969 17.597656 12.117188 C 17.625 12.101562 17.652344 12.089844 17.664062 12.078125 C 17.675781 12.078125 17.675781 12.066406 17.675781 12.066406 C 17.726562 12.027344 17.726562 11.921875 17.664062 11.898438 C 16.796875 11.46875 15.96875 11.210938 15.699219 11.132812 Z M 9.464844 11.328125 C 9.257812 12.207031 7.886719 13.191406 7.265625 13.191406 L 7.253906 13.191406 C 7.242188 13.191406 7.226562 13.191406 7.226562 13.191406 C 7.214844 13.191406 7.203125 13.191406 7.191406 13.175781 C 7.175781 13.175781 7.175781 13.175781 7.164062 13.175781 C 7.046875 13.136719 6.890625 13.058594 6.777344 12.945312 C 6.699219 12.867188 6.632812 12.761719 6.609375 12.671875 C 6.609375 12.660156 6.59375 12.632812 6.59375 12.621094 C 6.554688 12.464844 6.515625 12.285156 6.648438 11.972656 C 6.660156 11.933594 6.683594 11.898438 6.699219 11.859375 C 6.699219 11.84375 6.710938 11.832031 6.710938 11.820312 C 6.722656 11.78125 6.738281 11.753906 6.75 11.726562 C 6.761719 11.675781 6.789062 11.636719 6.800781 11.613281 C 6.800781 11.597656 6.816406 11.585938 6.816406 11.574219 C 6.851562 11.46875 6.851562 11.429688 6.867188 11.390625 C 6.867188 11.367188 6.878906 11.316406 6.890625 11.261719 C 6.929688 11.09375 6.957031 10.953125 6.96875 10.835938 C 6.996094 10.617188 7.035156 10.421875 7.152344 10.242188 C 7.175781 10.214844 7.191406 10.191406 7.214844 10.164062 C 7.226562 10.152344 7.226562 10.152344 7.242188 10.136719 C 7.253906 10.125 7.253906 10.125 7.265625 10.113281 C 7.292969 10.085938 7.332031 10.074219 7.359375 10.058594 C 7.371094 10.058594 7.382812 10.046875 7.398438 10.046875 C 7.421875 10.035156 7.449219 10.035156 7.472656 10.023438 C 7.589844 9.996094 7.71875 9.996094 7.875 10.007812 C 8.042969 10.023438 8.199219 10.046875 8.328125 10.085938 C 8.445312 10.113281 8.546875 10.152344 8.625 10.191406 C 8.636719 10.191406 8.636719 10.203125 8.652344 10.203125 C 8.664062 10.214844 8.675781 10.214844 8.703125 10.226562 C 8.726562 10.242188 8.742188 10.242188 8.765625 10.253906 C 8.792969 10.265625 8.820312 10.28125 8.84375 10.292969 L 8.871094 10.304688 C 8.960938 10.34375 9.050781 10.398438 9.117188 10.449219 C 9.15625 10.472656 9.179688 10.5 9.207031 10.527344 C 9.21875 10.539062 9.234375 10.539062 9.234375 10.550781 C 9.246094 10.566406 9.246094 10.566406 9.257812 10.578125 C 9.53125 10.808594 9.515625 11.132812 9.464844 11.328125 Z M 10.113281 7.976562 L 10.085938 8.132812 C 10.023438 8.496094 9.878906 8.988281 9.363281 9.117188 C 8.859375 9.234375 8.742188 9.257812 8.390625 9.285156 C 8.378906 9.285156 8.378906 9.285156 8.367188 9.285156 C 8.109375 9.285156 7.601562 9.117188 7.511719 8.714844 C 7.460938 8.457031 7.578125 8.261719 7.757812 7.953125 C 7.785156 7.902344 7.824219 7.847656 7.863281 7.785156 C 8.121094 7.359375 8.210938 7.046875 8.289062 6.800781 C 8.367188 6.554688 8.429688 6.363281 8.597656 6.195312 C 8.636719 6.15625 8.675781 6.117188 8.726562 6.089844 C 8.753906 6.066406 8.792969 6.050781 8.832031 6.027344 C 8.882812 6 8.933594 5.988281 8.988281 5.960938 C 9.101562 5.921875 9.234375 5.910156 9.347656 5.910156 C 9.59375 5.910156 9.839844 5.972656 10.007812 6.117188 C 10.085938 6.179688 10.203125 6.296875 10.265625 6.671875 C 10.292969 6.867188 10.242188 7.214844 10.113281 7.976562 Z M 13.824219 9.011719 C 13.640625 9.324219 13.550781 9.492188 13.398438 9.621094 C 13.085938 9.878906 12.738281 9.929688 12.441406 9.929688 C 12.234375 9.929688 12.050781 9.890625 11.933594 9.878906 C 11.625 9.828125 11.070312 9.722656 10.875 9.273438 C 10.835938 9.179688 10.835938 9.128906 10.835938 9.050781 C 10.835938 8.988281 10.835938 8.859375 10.796875 8.585938 L 10.796875 8.574219 C 10.785156 8.445312 10.773438 8.300781 10.796875 8.121094 L 10.796875 8.09375 C 10.902344 7.550781 10.941406 7.472656 10.953125 7.421875 C 11.003906 7.320312 11.132812 7.265625 11.25 7.332031 C 11.351562 7.382812 11.390625 7.511719 11.351562 7.617188 C 11.339844 7.640625 11.316406 7.757812 11.222656 8.183594 L 11.222656 8.210938 C 11.199219 8.328125 11.210938 8.417969 11.222656 8.535156 L 11.222656 8.546875 C 11.261719 8.859375 11.261719 8.988281 11.261719 9.066406 C 11.261719 9.078125 11.261719 9.089844 11.261719 9.101562 L 11.261719 9.117188 C 11.300781 9.207031 11.378906 9.257812 11.46875 9.308594 C 11.535156 9.335938 11.597656 9.285156 11.585938 9.21875 C 11.496094 8.742188 11.496094 8.183594 11.675781 7.835938 C 11.742188 7.71875 11.84375 7.539062 11.949219 7.359375 C 11.960938 7.34375 11.972656 7.320312 11.972656 7.304688 C 11.988281 7.292969 11.988281 7.28125 12 7.265625 C 12.050781 7.191406 12.089844 7.125 12.128906 7.058594 C 12.128906 7.046875 12.140625 7.046875 12.140625 7.035156 L 12.15625 7.023438 C 12.167969 7.007812 12.167969 6.996094 12.179688 6.984375 C 12.179688 6.984375 12.179688 6.96875 12.195312 6.96875 L 12.207031 6.957031 C 12.207031 6.945312 12.21875 6.945312 12.21875 6.929688 C 12.257812 6.878906 12.296875 6.828125 12.324219 6.777344 C 12.375 6.710938 12.308594 6.632812 12.246094 6.660156 C 12.066406 6.738281 11.949219 6.828125 11.921875 6.839844 C 11.832031 6.917969 11.691406 6.90625 11.613281 6.800781 C 11.535156 6.710938 11.546875 6.570312 11.652344 6.492188 C 11.765625 6.402344 12.363281 5.972656 13.074219 6.167969 C 13.589844 6.308594 13.847656 6.710938 13.953125 6.851562 C 14.03125 6.96875 14.289062 7.332031 14.277344 7.847656 C 14.277344 8.222656 14.121094 8.507812 13.824219 9.011719 Z M 13.824219 9.011719 "/>
<path style=" stroke:none;fill-rule:nonzero;fill:rgb(100%,100%,100%);fill-opacity:1;" d="M 9.195312 6.363281 C 9.15625 6.453125 9.117188 6.554688 9.066406 6.671875 C 8.960938 6.945312 8.832031 7.253906 8.765625 7.371094 C 8.664062 7.566406 8.585938 7.695312 8.523438 7.785156 C 8.445312 7.902344 8.390625 7.992188 8.339844 8.121094 C 8.261719 8.339844 8.25 8.585938 8.300781 8.859375 C 8.160156 8.84375 7.941406 8.753906 7.914062 8.625 C 7.902344 8.535156 7.953125 8.445312 8.109375 8.171875 C 8.132812 8.121094 8.171875 8.054688 8.210938 8.003906 C 8.484375 7.539062 8.597656 7.191406 8.675781 6.929688 C 8.765625 6.660156 8.804688 6.542969 8.949219 6.441406 C 9.039062 6.402344 9.117188 6.375 9.195312 6.363281 Z M 9.195312 6.363281 "/>
<path style=" stroke:none;fill-rule:nonzero;fill:rgb(100%,100%,100%);fill-opacity:1;" d="M 8.921875 16.136719 C 8.765625 16.449219 8.585938 16.734375 8.46875 16.875 C 8.367188 16.617188 8.199219 16.007812 8.25 15.53125 C 8.25 15.515625 8.25 15.503906 8.25 15.492188 C 8.261719 15.335938 8.300781 15.207031 8.378906 15.089844 C 8.429688 15.011719 8.558594 14.972656 8.703125 14.972656 C 8.804688 14.972656 8.921875 15 9.027344 15.050781 C 9.078125 15.078125 9.15625 15.140625 9.15625 15.308594 C 9.179688 15.542969 9.066406 15.851562 8.921875 16.136719 Z M 8.921875 16.136719 "/>
<path style=" stroke:none;fill-rule:nonzero;fill:rgb(100%,100%,100%);fill-opacity:1;" d="M 17.199219 12.683594 C 17.210938 12.699219 17.210938 12.710938 17.210938 12.722656 C 17.171875 12.816406 17.109375 12.878906 17.042969 12.957031 C 16.964844 13.046875 16.875 13.152344 16.796875 13.320312 C 16.679688 13.550781 16.640625 13.757812 16.628906 14.300781 C 16.601562 14.933594 16.628906 15.285156 16.65625 15.542969 C 16.667969 15.789062 16.679688 15.945312 16.640625 16.191406 C 16.550781 16.679688 16.34375 17.003906 16.074219 17.417969 C 15.738281 17.933594 15.402344 18.464844 14.832031 18.632812 C 14.78125 18.648438 14.78125 18.648438 14.625 18.648438 C 14.496094 18.648438 14.277344 18.648438 13.875 18.660156 C 13.125 18.683594 12.75 18.699219 12.441406 18.761719 C 12.101562 18.828125 11.933594 18.90625 11.753906 18.96875 C 11.597656 19.035156 11.457031 19.085938 11.183594 19.152344 C 11.015625 19.191406 10.773438 19.214844 9.929688 19.226562 C 9.050781 19.226562 8.523438 19.226562 7.835938 19.152344 C 6.878906 19.046875 6.402344 18.984375 6.078125 18.816406 C 5.328125 18.414062 5.003906 17.691406 4.488281 16.5 C 4.488281 16.488281 4.5 16.472656 4.511719 16.472656 C 4.539062 16.488281 4.566406 16.5 4.589844 16.511719 C 4.617188 16.527344 4.640625 16.527344 4.65625 16.527344 C 4.707031 16.539062 4.757812 16.539062 4.808594 16.527344 C 4.824219 16.527344 4.824219 16.527344 4.835938 16.511719 C 4.847656 16.511719 4.863281 16.511719 4.863281 16.527344 C 4.902344 16.617188 4.953125 16.695312 5.042969 16.746094 C 5.132812 16.796875 5.238281 16.796875 5.328125 16.796875 C 5.429688 16.796875 5.535156 16.785156 5.636719 16.773438 C 5.691406 16.773438 5.742188 16.796875 5.765625 16.835938 C 5.859375 17.070312 5.972656 17.222656 6.15625 17.25 C 6.167969 17.25 6.179688 17.25 6.195312 17.25 C 6.234375 17.25 6.296875 17.238281 6.375 17.183594 C 6.441406 17.132812 6.542969 17.171875 6.59375 17.238281 C 6.632812 17.300781 6.683594 17.339844 6.738281 17.378906 C 6.917969 17.558594 7.359375 17.652344 7.71875 17.652344 C 7.914062 17.652344 8.09375 17.625 8.199219 17.574219 C 8.351562 17.496094 8.351562 17.390625 8.339844 17.339844 C 8.328125 17.261719 8.316406 17.171875 8.300781 17.09375 C 8.300781 17.082031 8.316406 17.082031 8.316406 17.09375 C 8.339844 17.148438 8.367188 17.199219 8.429688 17.210938 C 8.445312 17.210938 8.445312 17.210938 8.457031 17.210938 C 8.558594 17.210938 8.714844 17.25 8.742188 17.339844 C 8.753906 17.390625 8.78125 17.429688 8.804688 17.484375 C 8.871094 17.574219 8.988281 17.691406 9.234375 17.703125 L 9.246094 17.703125 C 9.53125 17.703125 9.75 17.613281 9.890625 17.429688 C 9.90625 17.417969 9.90625 17.40625 9.917969 17.390625 C 9.96875 17.316406 10.125 17.316406 10.191406 17.378906 C 10.265625 17.445312 10.359375 17.484375 10.460938 17.484375 C 10.472656 17.484375 10.5 17.484375 10.511719 17.484375 C 10.640625 17.46875 10.746094 17.40625 10.835938 17.289062 C 10.886719 17.210938 10.925781 17.121094 10.953125 17.015625 C 10.964844 16.992188 11.003906 16.976562 11.03125 17.003906 C 11.082031 17.054688 11.171875 17.109375 11.300781 17.109375 C 11.328125 17.109375 11.367188 17.109375 11.40625 17.09375 C 11.652344 17.042969 11.78125 16.835938 11.832031 16.617188 C 11.832031 16.601562 11.84375 16.601562 11.84375 16.617188 C 11.910156 16.695312 12.027344 16.785156 12.21875 16.785156 C 12.234375 16.785156 12.246094 16.785156 12.246094 16.785156 C 12.347656 16.785156 12.441406 16.734375 12.503906 16.65625 C 12.582031 16.550781 12.609375 16.398438 12.621094 16.253906 C 12.621094 16.214844 12.648438 16.175781 12.699219 16.152344 C 12.90625 16.058594 13.164062 15.867188 13.242188 15.738281 C 13.242188 15.738281 13.242188 15.722656 13.253906 15.722656 C 13.265625 15.683594 13.304688 15.660156 13.332031 15.660156 C 13.5 15.632812 13.566406 15.59375 13.628906 15.570312 C 13.679688 15.542969 13.71875 15.53125 13.847656 15.503906 C 14.792969 15.363281 14.972656 15.324219 15.179688 15.195312 C 15.492188 14.988281 15.503906 14.703125 15.515625 14.429688 C 15.53125 14.199219 15.542969 13.941406 15.722656 13.628906 C 15.789062 13.511719 15.867188 13.382812 15.945312 13.226562 C 16.085938 12.96875 16.28125 12.609375 16.421875 12.414062 C 16.449219 12.375 16.5 12.363281 16.539062 12.386719 C 16.863281 12.503906 17.148438 12.632812 17.199219 12.683594 Z M 17.199219 12.683594 "/>
<path style=" stroke:none;fill-rule:nonzero;fill:rgb(100%,100%,100%);fill-opacity:1;" d="M 8.015625 15.503906 C 7.976562 15.828125 7.953125 16.265625 8.003906 16.835938 C 8.015625 16.992188 8.042969 17.160156 8.070312 17.328125 C 8.03125 17.351562 7.886719 17.390625 7.65625 17.378906 C 7.320312 17.367188 6.984375 17.289062 6.878906 17.171875 L 6.867188 17.160156 C 6.789062 17.09375 6.722656 17.042969 6.722656 16.925781 C 6.722656 16.886719 6.738281 16.847656 6.777344 16.785156 C 6.800781 16.757812 6.828125 16.71875 6.851562 16.667969 C 6.90625 16.589844 6.984375 16.5 7.058594 16.371094 C 7.28125 16.007812 7.359375 15.890625 7.460938 15.75 C 7.472656 15.738281 7.472656 15.722656 7.488281 15.710938 C 7.550781 15.632812 7.617188 15.53125 7.734375 15.363281 C 7.808594 15.246094 7.875 15.140625 7.941406 15.066406 C 8.03125 14.933594 8.09375 14.871094 8.132812 14.832031 C 8.132812 14.882812 8.121094 14.960938 8.109375 15.039062 C 8.054688 15.195312 8.03125 15.335938 8.015625 15.503906 Z M 8.015625 15.503906 "/>
<path style=" stroke:none;fill-rule:nonzero;fill:rgb(100%,100%,100%);fill-opacity:1;" d="M 7.847656 10.410156 C 7.847656 10.421875 7.847656 10.421875 7.847656 10.410156 C 7.796875 10.472656 7.746094 10.550781 7.679688 10.679688 C 7.511719 11.042969 7.511719 11.25 7.511719 11.417969 C 7.511719 11.507812 7.511719 11.574219 7.488281 11.652344 C 7.472656 11.703125 7.449219 11.765625 7.410156 11.832031 C 7.320312 12.050781 7.191406 12.335938 7.242188 12.722656 C 7.164062 12.683594 7.046875 12.59375 7.023438 12.554688 C 7.023438 12.53125 7.007812 12.515625 7.007812 12.492188 C 6.984375 12.375 6.96875 12.296875 7.035156 12.117188 C 7.242188 11.652344 7.265625 11.535156 7.28125 11.40625 C 7.28125 11.378906 7.292969 11.351562 7.292969 11.316406 C 7.332031 11.132812 7.359375 10.976562 7.371094 10.847656 C 7.398438 10.65625 7.421875 10.527344 7.488281 10.433594 C 7.511719 10.398438 7.578125 10.382812 7.667969 10.382812 C 7.707031 10.382812 7.746094 10.382812 7.796875 10.398438 L 7.808594 10.398438 C 7.847656 10.410156 7.847656 10.410156 7.847656 10.410156 Z M 7.847656 10.410156 "/>
<path style=" stroke:none;fill-rule:nonzero;fill:rgb(100%,100%,100%);fill-opacity:1;" d="M 7.589844 15.027344 C 7.578125 14.910156 7.566406 14.804688 7.511719 14.691406 C 7.511719 14.691406 7.5 14.664062 7.5 14.652344 C 7.488281 14.636719 7.488281 14.625 7.472656 14.613281 L 7.460938 14.597656 C 7.449219 14.585938 7.449219 14.585938 7.433594 14.585938 L 7.421875 14.574219 C 7.410156 14.574219 7.410156 14.558594 7.398438 14.558594 L 7.382812 14.558594 C 7.320312 14.535156 7.253906 14.507812 7.175781 14.496094 C 7.164062 14.496094 7.152344 14.496094 7.152344 14.496094 C 7.136719 14.496094 7.136719 14.496094 7.125 14.496094 L 7.113281 14.496094 C 7.097656 14.496094 7.085938 14.507812 7.058594 14.507812 C 7.046875 14.507812 7.046875 14.523438 7.035156 14.523438 L 7.023438 14.535156 C 7.007812 14.546875 7.007812 14.546875 6.996094 14.558594 L 6.984375 14.574219 L 6.984375 14.585938 C 6.957031 14.625 6.929688 14.664062 6.90625 14.703125 C 6.839844 14.792969 6.777344 14.898438 6.710938 14.988281 C 6.648438 15.078125 6.59375 15.15625 6.53125 15.246094 C 6.492188 15.296875 6.464844 15.335938 6.425781 15.386719 C 6.425781 15.402344 6.414062 15.402344 6.414062 15.414062 C 6.453125 15.425781 6.492188 15.425781 6.53125 15.441406 C 6.621094 15.453125 6.710938 15.464844 6.789062 15.476562 C 6.96875 15.503906 7.164062 15.515625 7.34375 15.503906 C 7.359375 15.503906 7.359375 15.503906 7.371094 15.503906 C 7.410156 15.441406 7.472656 15.363281 7.539062 15.257812 C 7.578125 15.207031 7.617188 15.15625 7.640625 15.101562 C 7.601562 15.089844 7.589844 15.050781 7.589844 15.027344 Z M 7.589844 15.027344 "/>
<path style=" stroke:none;fill-rule:nonzero;fill:rgb(100%,100%,100%);fill-opacity:1;" d="M 6.929688 15.789062 C 6.917969 15.929688 6.761719 16.292969 6.515625 16.640625 C 6.308594 16.925781 6.179688 17.003906 6.15625 17.003906 C 6.050781 16.992188 5.960938 16.746094 5.882812 16.5 C 5.859375 16.398438 5.820312 16.304688 5.804688 16.214844 C 5.753906 16.035156 5.742188 15.777344 5.753906 15.621094 C 5.960938 15.738281 6.324219 15.761719 6.839844 15.761719 C 6.867188 15.777344 6.90625 15.777344 6.929688 15.789062 Z M 6.929688 15.789062 "/>
<path style=" stroke:none;fill-rule:nonzero;fill:rgb(100%,100%,100%);fill-opacity:1;" d="M 6.570312 14.625 C 6.476562 14.765625 6.386719 14.898438 6.296875 15.027344 C 6.246094 15.089844 6.207031 15.15625 6.15625 15.21875 C 6.128906 15.257812 6.089844 15.296875 6.066406 15.335938 C 5.988281 15.324219 5.921875 15.296875 5.84375 15.285156 C 5.78125 15.273438 5.726562 15.246094 5.664062 15.21875 C 5.652344 15.21875 5.636719 15.207031 5.625 15.207031 C 5.613281 15.195312 5.597656 15.167969 5.585938 15.15625 C 5.613281 15.117188 5.625 15.066406 5.652344 15.027344 C 5.691406 14.949219 5.726562 14.871094 5.78125 14.792969 C 5.859375 14.664062 5.949219 14.523438 6.089844 14.429688 C 6.101562 14.429688 6.101562 14.417969 6.117188 14.417969 C 6.167969 14.390625 6.21875 14.367188 6.285156 14.351562 C 6.296875 14.351562 6.335938 14.351562 6.363281 14.351562 L 6.375 14.351562 C 6.375 14.351562 6.375 14.351562 6.386719 14.351562 C 6.402344 14.351562 6.414062 14.367188 6.441406 14.367188 C 6.441406 14.367188 6.453125 14.367188 6.453125 14.378906 C 6.464844 14.390625 6.476562 14.390625 6.492188 14.40625 C 6.464844 14.390625 6.515625 14.445312 6.515625 14.429688 C 6.542969 14.507812 6.554688 14.546875 6.570312 14.625 Z M 6.570312 14.625 "/>
<path style=" stroke:none;fill-rule:nonzero;fill:rgb(100%,100%,100%);fill-opacity:1;" d="M 5.871094 14.25 C 5.703125 14.378906 5.585938 14.558594 5.496094 14.753906 C 5.445312 14.859375 5.390625 14.960938 5.339844 15.066406 C 5.339844 15.078125 5.328125 15.089844 5.328125 15.089844 C 5.277344 15.078125 5.222656 15.066406 5.183594 15.050781 C 5.132812 15.039062 5.082031 15.011719 5.03125 15 C 5.003906 14.988281 4.992188 14.972656 4.964844 14.960938 C 5.015625 14.871094 5.070312 14.78125 5.132812 14.691406 C 5.210938 14.574219 5.300781 14.445312 5.390625 14.339844 C 5.429688 14.300781 5.46875 14.25 5.507812 14.222656 C 5.558594 14.199219 5.613281 14.199219 5.675781 14.210938 C 5.742188 14.210938 5.804688 14.210938 5.859375 14.238281 C 5.84375 14.238281 5.859375 14.25 5.871094 14.25 Z M 5.871094 14.25 "/>
<path style=" stroke:none;fill-rule:nonzero;fill:rgb(100%,100%,100%);fill-opacity:1;" d="M 5.613281 16.449219 C 5.597656 16.460938 5.597656 16.460938 5.585938 16.472656 L 5.574219 16.472656 C 5.535156 16.472656 5.496094 16.488281 5.457031 16.488281 C 5.378906 16.488281 5.300781 16.5 5.222656 16.488281 C 5.183594 16.488281 5.148438 16.472656 5.121094 16.449219 C 5.09375 16.410156 5.082031 16.332031 5.070312 16.28125 C 5.015625 15.996094 5.015625 15.710938 5.042969 15.425781 C 5.183594 15.476562 5.339844 15.515625 5.496094 15.542969 C 5.457031 15.800781 5.523438 16.175781 5.546875 16.28125 C 5.585938 16.332031 5.597656 16.398438 5.613281 16.449219 Z M 5.613281 16.449219 "/>
<path style=" stroke:none;fill-rule:nonzero;fill:rgb(100%,100%,100%);fill-opacity:1;" d="M 5.148438 14.160156 C 5.015625 14.316406 4.902344 14.484375 4.796875 14.664062 C 4.757812 14.726562 4.707031 14.804688 4.667969 14.882812 C 4.617188 14.871094 4.566406 14.84375 4.527344 14.820312 C 4.488281 14.792969 4.449219 14.765625 4.421875 14.742188 C 4.410156 14.726562 4.382812 14.714844 4.371094 14.703125 C 4.371094 14.703125 4.359375 14.703125 4.359375 14.691406 C 4.371094 14.652344 4.398438 14.625 4.398438 14.597656 C 4.421875 14.535156 4.449219 14.484375 4.488281 14.429688 C 4.550781 14.328125 4.617188 14.222656 4.695312 14.121094 C 4.71875 14.082031 4.746094 14.042969 4.796875 14.03125 C 4.835938 14.015625 4.886719 14.03125 4.925781 14.03125 C 5.003906 14.042969 5.082031 14.09375 5.148438 14.160156 Z M 5.148438 14.160156 "/>
<path style=" stroke:none;fill-rule:nonzero;fill:rgb(100%,100%,100%);fill-opacity:1;" d="M 4.152344 14.84375 C 4.152344 14.832031 4.164062 14.832031 4.152344 14.84375 C 4.203125 14.898438 4.242188 14.933594 4.292969 14.972656 C 4.320312 14.988281 4.332031 15.011719 4.359375 15.027344 C 4.359375 15.027344 4.359375 15.027344 4.359375 15.039062 C 4.304688 15.257812 4.265625 15.492188 4.265625 15.722656 C 4.265625 15.738281 4.253906 15.738281 4.253906 15.722656 C 4.191406 15.453125 4.113281 15.011719 4.152344 14.84375 Z M 4.152344 14.84375 "/>
<path style=" stroke:none;fill-rule:nonzero;fill:rgb(100%,100%,100%);fill-opacity:1;" d="M 4.785156 15.324219 C 4.757812 15.515625 4.746094 15.710938 4.757812 15.90625 C 4.757812 16.007812 4.773438 16.113281 4.785156 16.226562 C 4.757812 16.226562 4.734375 16.226562 4.707031 16.226562 L 4.679688 16.226562 C 4.65625 16.214844 4.65625 16.214844 4.628906 16.203125 C 4.601562 16.191406 4.578125 16.152344 4.550781 16.113281 C 4.5 16.023438 4.488281 15.917969 4.488281 15.816406 C 4.472656 15.621094 4.5 15.414062 4.539062 15.21875 C 4.566406 15.234375 4.601562 15.246094 4.640625 15.257812 C 4.695312 15.285156 4.734375 15.308594 4.785156 15.324219 Z M 4.785156 15.324219 "/>
<g clip-path="url(#clip1)" clip-rule="nonzero">
<use xlink:href="#surface23" mask="url(#mask0)"/>
</g>
</g>
</svg>
