<svg width="30" height="30" viewBox="0 0 64 64" fill="none" xmlns="http://www.w3.org/2000/svg">
<g clip-path="url(#clip0_127_1004)">
<path d="M32 64C49.6731 64 64 49.6731 64 32C64 14.3269 49.6731 0 32 0C14.3269 0 0 14.3269 0 32C0 49.6731 14.3269 64 32 64Z" fill="#0A0B11"/>
<path d="M26.1467 44.0126C25.0084 46.9177 23.7073 48.6517 22.6655 48.6517H22.6648C22.2562 48.6513 20.7828 48.2901 18.9749 43.6554L14.7886 32.9233H30.4907L26.1467 44.0126Z" fill="#2B9DFE"/>
<path d="M13.4504 32.7002L17.8152 40.9011C19.7 44.4427 21.2361 44.7186 21.6623 44.719H21.6629C22.5499 44.719 23.6172 43.8354 24.6251 42.3025C24.9982 41.7311 25.315 41.1248 25.571 40.4921C26.7588 37.5832 28.5061 34.9359 30.7138 32.7002H13.4504Z" fill="url(#paint0_linear_127_1004)"/>
<path d="M44.8125 20.0072C43.6742 17.1021 42.373 15.3682 41.3312 15.3682H41.3305C40.922 15.3686 39.4485 15.7297 37.6407 20.3644L33.4543 31.0965H49.1565L44.8125 20.0072Z" fill="#A218E0"/>
<path d="M33.2729 31.3195L36.4809 23.1187C38.3657 19.5771 39.9018 19.3011 40.328 19.3008H40.3287C41.4148 19.3008 42.7715 20.6258 43.9582 22.8457L44.2367 23.5277C45.4245 26.4365 47.1718 29.0839 49.3796 31.3195H33.2729Z" fill="url(#paint1_linear_127_1004)"/>
<path d="M51.2841 30.916L50.9659 30.1003L49.0958 30.83L49.1293 30.916H33.4166L34.1222 29.1424L32.2531 28.4102L31.2563 30.916H7.41211V32.9233H12.6339L17.1048 44.3848C18.7511 48.6051 20.569 50.6575 22.6632 50.659H22.6656C24.6779 50.659 26.4781 48.6689 28.0156 44.7449L32.6468 32.9233H56.5117V30.916H51.2841ZM26.1466 44.0126C25.0084 46.9177 23.7072 48.6517 22.6654 48.6517H22.6648C22.2561 48.6513 20.7827 48.2901 18.9749 43.6554L14.7885 32.9233H30.4906L26.1466 44.0126Z" fill="white"/>
<path d="M43.4385 14.2124C42.8082 13.7465 42.1452 13.491 41.4679 13.4531L41.356 15.4574C41.6356 15.4731 41.9349 15.5972 42.2453 15.8268L43.4385 14.2124Z" fill="white"/>
<path d="M47.5618 21.3729L45.6917 22.1025L46.2591 23.557L48.1292 22.8274L47.5618 21.3729Z" fill="white"/>
<path d="M43.9021 17.9264L45.6568 16.9511C45.3828 16.4517 45.0727 15.9729 44.7292 15.5186L43.136 16.7396C43.4198 17.1161 43.6758 17.5128 43.9021 17.9264Z" fill="white"/>
<path d="M44.9433 20.1836L45.1245 20.648L46.9946 19.9183L46.8134 19.4544C46.6758 19.1011 46.5329 18.7567 46.3889 18.4312L44.5532 19.2436C44.6852 19.5419 44.8163 19.8578 44.9433 20.1836Z" fill="white"/>
<path d="M48.6965 24.2821L46.8264 25.0117L47.3939 26.4662L49.264 25.7365L48.6965 24.2821Z" fill="white"/>
<path d="M49.8313 27.1912L47.9612 27.9204L48.5284 29.3749L50.3984 28.6457L49.8313 27.1912Z" fill="white"/>
<path d="M33.3923 25.5029L32.8228 26.9565L34.6915 27.6888L35.2611 26.2351L33.3923 25.5029Z" fill="white"/>
<path d="M34.5314 22.5956L33.9614 24.0493L35.8304 24.782L36.4003 23.3283L34.5314 22.5956Z" fill="white"/>
<path d="M40.4812 15.7273L39.3982 14.0371C38.9243 14.3408 38.4614 14.7666 38.0227 15.3026L39.5757 16.5742C39.8805 16.2017 40.1854 15.9168 40.4812 15.7273Z" fill="white"/>
<path d="M38.7876 17.7305L37.0522 16.7217C36.7945 17.1651 36.5394 17.6609 36.2942 18.1956L38.1187 19.0324C38.337 18.5565 38.562 18.1185 38.7876 17.7305Z" fill="white"/>
<path d="M35.6702 19.6879L35.1006 21.1416L36.9694 21.8739L37.539 20.4202L35.6702 19.6879Z" fill="white"/>
</g>
<defs>
<linearGradient id="paint0_linear_127_1004" x1="22.7727" y1="29.6234" x2="21.3323" y2="42.7793" gradientUnits="userSpaceOnUse">
<stop stop-color="#2B9DFE"/>
<stop offset="1" stop-color="#683BFF"/>
</linearGradient>
<linearGradient id="paint1_linear_127_1004" x1="33.2729" y1="25.3102" x2="49.3796" y2="25.3102" gradientUnits="userSpaceOnUse">
<stop stop-color="#A218E0"/>
<stop offset="1" stop-color="#F8326C"/>
</linearGradient>
<clipPath id="clip0_127_1004">
<rect width="64" height="64" fill="white"/>
</clipPath>
</defs>
</svg>
