<svg width="70" height="50" viewBox="0 0 53 40" fill="none" xmlns="http://www.w3.org/2000/svg">
<g clip-path="url(#clip0_127_1539)">
<path d="M20.2228 32.8547C18.9941 35.978 17.5896 37.8422 16.4649 37.8422H16.4642C16.0232 37.8417 14.4326 37.4535 12.4812 32.4707L7.96216 20.9326H24.912L20.2228 32.8547Z" fill="#2B9DFE"/>
<path d="M6.51782 20.6929L11.2293 29.5096C13.2639 33.3173 14.9222 33.6139 15.382 33.6143H15.3828C16.3402 33.6143 17.4922 32.6644 18.5802 31.0166C18.983 30.4022 19.3249 29.7503 19.6012 29.0701C20.8834 25.9428 22.7695 23.0967 25.1526 20.6931L6.51782 20.6929Z" fill="url(#paint0_linear_127_1539)"/>
<path d="M40.3713 7.04607C39.1426 3.92279 37.738 2.05859 36.6134 2.05859H36.6127C36.1716 2.05907 34.5811 2.4473 32.6297 7.43011L28.1106 18.9682H45.0607L40.3713 7.04607Z" fill="#A218E0"/>
<path d="M27.9153 19.208L31.3781 10.3912C33.4126 6.58366 35.071 6.28694 35.5308 6.28662H35.5315C36.704 6.28662 38.1684 7.71112 39.4494 10.0978L39.75 10.831C41.0322 13.9583 42.9185 16.8045 45.3017 19.208H27.9153Z" fill="url(#paint1_linear_127_1539)"/>
<path d="M47.3571 18.7745L47.0136 17.8975L44.995 18.6821L45.0312 18.7746H28.0702L28.8318 16.8678L26.814 16.0806L25.7381 18.7746H0V20.9327H5.63654L10.4626 33.255C12.2396 37.7922 14.2021 39.9987 16.4627 40.0004H16.4653C18.6375 40.0004 20.5806 37.8608 22.2403 33.6421L27.2393 20.9327H53V18.7745H47.3571ZM20.2228 32.8546C18.9941 35.9779 17.5896 37.8421 16.4649 37.8421H16.4642C16.0232 37.8416 14.4326 37.4534 12.4812 32.4706L7.96213 20.9325H24.9119L20.2228 32.8546Z" fill="white"/>
<path d="M38.8883 0.816418C38.2078 0.315539 37.4922 0.040874 36.7612 0L36.6404 2.15482C36.9422 2.17168 37.2653 2.30516 37.6003 2.55195L38.8883 0.816418Z" fill="white"/>
<path d="M43.339 8.51487L41.3203 9.29932L41.9329 10.863L43.9515 10.0786L43.339 8.51487Z" fill="white"/>
<path d="M39.3889 4.80939L41.2829 3.76077C40.9871 3.2239 40.6524 2.70919 40.2816 2.2207L38.562 3.53344C38.8683 3.93826 39.1446 4.3647 39.3889 4.80939Z" fill="white"/>
<path d="M40.5126 7.23634L40.7083 7.73557L42.7269 6.95096L42.5313 6.45215C42.3827 6.07236 42.2285 5.70216 42.0731 5.35205L40.0916 6.22551C40.234 6.54625 40.3756 6.88602 40.5126 7.23634Z" fill="white"/>
<path d="M44.5641 11.6423L42.5454 12.4268L43.158 13.9905L45.1766 13.206L44.5641 11.6423Z" fill="white"/>
<path d="M45.7889 14.7702L43.7703 15.5542L44.3825 17.1179L46.4012 16.3339L45.7889 14.7702Z" fill="white"/>
<path d="M28.044 12.9548L27.4292 14.5176L29.4465 15.3048L30.0613 13.742L28.044 12.9548Z" fill="white"/>
<path d="M29.2737 9.82917L28.6584 11.3921L30.6758 12.1798L31.2911 10.6169L29.2737 9.82917Z" fill="white"/>
<path d="M35.6958 2.44505L34.5267 0.62793C34.0151 0.954339 33.5154 1.41211 33.042 1.98843L34.7184 3.35546C35.0476 2.95504 35.3765 2.64878 35.6958 2.44505Z" fill="white"/>
<path d="M33.8678 4.59883L31.9942 3.51416C31.7161 3.99092 31.4406 4.52392 31.176 5.09875L33.1455 5.99846C33.3814 5.48677 33.6243 5.01589 33.8678 4.59883Z" fill="white"/>
<path d="M30.5028 6.70332L29.8879 8.26611L31.9052 9.05337L32.52 7.49058L30.5028 6.70332Z" fill="white"/>
<path d="M5.62915 12.7153L7.2121 14.2919V16.3786H5.62915V12.7153Z" fill="url(#paint2_linear_127_1539)"/>
<path d="M14.9121 10.0073V12.3722L13.3291 10.7956V10.0073H14.9121Z" fill="url(#paint3_linear_127_1539)"/>
<path d="M16.2156 12.7153L17.7985 14.2919V16.3786H16.2156V12.7153Z" fill="url(#paint4_linear_127_1539)"/>
<path d="M28.2344 26.0547L29.8271 27.641V29.7404H28.2344V26.0547Z" fill="url(#paint5_linear_127_1539)"/>
<path d="M37.667 25.2339L38.461 26.7642L36.9051 29.741H35.3093L37.667 25.2339Z" fill="url(#paint6_linear_127_1539)"/>
<path d="M45.3311 27.1001L42.6448 29.7409H44.8721L46.4555 28.2199L45.3311 27.1001Z" fill="url(#paint7_linear_127_1539)"/>
<path d="M8.82298 12.9472L5.87127 10.0073H5.61987V11.992L7.20282 13.5686L8.81372 15.1823L10.4246 13.5686V16.3786H12.0076V10.0073H11.7748L8.82298 12.9472Z" fill="white"/>
<path d="M13.3294 16.3786H14.9123V13.0956L13.3293 11.519L13.3294 16.3786Z" fill="white"/>
<path d="M20.5268 11.4077V14.0601L16.5042 10.0537L16.467 10.0166H16.2156V12.0012L17.7985 13.5778L18.8135 14.5887L20.5547 16.323L20.6199 16.3879H22.1097V9.83105L20.5639 11.3705L20.5268 11.4077Z" fill="white"/>
<path d="M31.448 26.2883L28.4778 23.3301H28.2249V25.327L29.8176 26.9134L31.4385 28.537L33.0593 26.9134V29.7408H34.6521V23.3302H34.4179L31.448 26.2883Z" fill="white"/>
<path d="M37.9236 24.7389L40.1932 29.1153L40.522 29.7499H42.118L38.7175 23.2178L37.9236 24.7389Z" fill="white"/>
<path d="M47.9605 26.8516L49.5849 25.243L49.6222 25.2059V22.957L49.3973 23.181L46.821 25.7378L44.2351 23.1903L44.0103 22.9664V25.2153L45.7435 26.9043L46.1635 27.3056L48.6589 29.7411H50.8862L47.9605 26.8516Z" fill="white"/>
</g>
<defs>
<linearGradient id="paint0_linear_127_1539" x1="16.5806" y1="17.385" x2="15.0381" y2="31.5303" gradientUnits="userSpaceOnUse">
<stop stop-color="#2B9DFE"/>
<stop offset="1" stop-color="#683BFF"/>
</linearGradient>
<linearGradient id="paint1_linear_127_1539" x1="27.9153" y1="12.7473" x2="45.3017" y2="12.7473" gradientUnits="userSpaceOnUse">
<stop stop-color="#A218E0"/>
<stop offset="1" stop-color="#F8326C"/>
</linearGradient>
<linearGradient id="paint2_linear_127_1539" x1="5.62915" y1="14.5469" x2="7.2121" y2="14.5469" gradientUnits="userSpaceOnUse">
<stop stop-color="#2B9DFE"/>
<stop offset="1" stop-color="#683BFF"/>
</linearGradient>
<linearGradient id="paint3_linear_127_1539" x1="13.3291" y1="11.1898" x2="14.9121" y2="11.1898" gradientUnits="userSpaceOnUse">
<stop stop-color="#2B9DFE"/>
<stop offset="1" stop-color="#683BFF"/>
</linearGradient>
<linearGradient id="paint4_linear_127_1539" x1="16.2156" y1="14.5469" x2="17.7985" y2="14.5469" gradientUnits="userSpaceOnUse">
<stop stop-color="#2B9DFE"/>
<stop offset="1" stop-color="#683BFF"/>
</linearGradient>
<linearGradient id="paint5_linear_127_1539" x1="28.2344" y1="27.8975" x2="29.8271" y2="27.8975" gradientUnits="userSpaceOnUse">
<stop stop-color="#A218E0"/>
<stop offset="1" stop-color="#F8326C"/>
</linearGradient>
<linearGradient id="paint6_linear_127_1539" x1="35.3093" y1="27.4874" x2="38.461" y2="27.4874" gradientUnits="userSpaceOnUse">
<stop stop-color="#A218E0"/>
<stop offset="1" stop-color="#F8326C"/>
</linearGradient>
<linearGradient id="paint7_linear_127_1539" x1="40.6175" y1="28.4205" x2="46.4555" y2="28.4205" gradientUnits="userSpaceOnUse">
<stop stop-color="#A218E0"/>
<stop offset="1" stop-color="#F8326C"/>
</linearGradient>
<clipPath id="clip0_127_1539">
<rect width="53" height="40" fill="white"/>
</clipPath>
</defs>
</svg>
