<svg width="30" height="30" viewBox="0 0 64 64" fill="none" xmlns="http://www.w3.org/2000/svg">
<g clip-path="url(#clip0_127_1051)">
<path d="M32 64C49.6731 64 64 49.6731 64 32C64 14.3269 49.6731 0 32 0C14.3269 0 0 14.3269 0 32C0 49.6731 14.3269 64 32 64Z" fill="#0A0B11"/>
<path d="M47.2376 43.9441C47.2376 44.8357 47.0264 45.6987 46.6322 46.5162C44.7311 50.4594 38.5664 53.3483 31.2548 53.3483C23.9426 53.3483 17.7778 50.4594 15.8768 46.5162C15.4826 45.6987 15.2715 44.8357 15.2715 43.9441C15.2715 43.0525 15.4826 42.1896 15.8768 41.3721C16.322 42.295 17.0007 43.1601 17.8731 43.9441C20.7275 46.5091 25.6545 48.2037 31.2548 48.2037C36.8545 48.2037 41.7817 46.5091 44.6359 43.9441C45.5083 43.1601 46.187 42.295 46.6322 41.3721C47.0265 42.1896 47.2376 43.0525 47.2376 43.9441Z" fill="url(#paint0_linear_127_1051)"/>
<path d="M31.2547 43.7858C38.5708 43.7858 44.5016 40.5126 44.5016 36.4749C44.5016 32.4372 38.5708 29.1641 31.2547 29.1641C23.9386 29.1641 18.0078 32.4372 18.0078 36.4749C18.0078 40.5126 23.9386 43.7858 31.2547 43.7858Z" fill="url(#paint1_linear_127_1051)"/>
<path d="M37.8548 15.4577C37.8548 14.2404 37.3713 13.0729 36.5105 12.2121C35.6497 11.3513 34.4822 10.8677 33.2648 10.8677C32.0475 10.8677 30.88 11.3513 30.0192 12.2121C29.1584 13.0729 28.6748 14.2404 28.6748 15.4577V26.4139C25.0741 26.7724 21.7638 27.8821 19.2951 29.5676C16.5497 31.442 15.0378 33.8949 15.0378 36.4747C15.0378 39.2706 16.7768 41.8698 19.9341 43.794C22.9701 45.6441 26.9905 46.6629 31.2547 46.6629C35.5188 46.6629 39.5392 45.6441 42.5753 43.794C45.7325 41.8701 47.4715 39.2707 47.4715 36.4747C47.4715 34.8419 46.8539 33.2229 45.6853 31.7928C44.6423 30.5162 43.1467 29.3756 41.35 28.482V15.2414C41.35 14.8446 41.4282 14.4516 41.5801 14.0849C41.7319 13.7183 41.9546 13.3851 42.2352 13.1045C42.5158 12.8239 42.849 12.6013 43.2156 12.4494C43.5823 12.2975 43.9752 12.2194 44.3721 12.2194C44.769 12.2194 45.1619 12.2975 45.5286 12.4494C45.8953 12.6013 46.2284 12.8239 46.509 13.1045C46.7897 13.3851 47.0123 13.7183 47.1641 14.0849C47.316 14.4516 47.3942 14.8446 47.3942 15.2414V16.3363H48.9621V15.2414C48.9621 14.0241 48.4785 12.8566 47.6177 11.9958C46.7569 11.135 45.5894 10.6514 44.372 10.6514C43.1547 10.6514 41.9872 11.135 41.1264 11.9958C40.2656 12.8566 39.782 14.0241 39.782 15.2414V17.0459H30.2428V15.4577C30.2428 14.6562 30.5612 13.8875 31.128 13.3208C31.6947 12.7541 32.4634 12.4357 33.2649 12.4357C34.0664 12.4357 34.835 12.7541 35.4018 13.3208C35.9685 13.8875 36.2869 14.6562 36.2869 15.4577H37.8548ZM30.2428 18.6139H39.782V20.5346H30.2428L30.2428 18.6139ZM30.2428 22.1025H39.782V24.0232H30.2428L30.2428 22.1025ZM45.9034 36.4746C45.9034 38.7026 44.4317 40.8264 41.7593 42.4548C38.9655 44.1572 35.235 45.0947 31.2546 45.0947C27.2743 45.0947 23.5436 44.1572 20.75 42.4548C18.0776 40.8265 16.6058 38.7027 16.6058 36.4747C16.6058 34.4289 17.8749 32.4358 20.1792 30.8626C22.3997 29.3466 25.3932 28.3381 28.6748 27.9902V32.8444H30.2427V25.5914H39.7819V34.2502H41.3498V30.2537C44.2578 31.8881 45.9035 34.1178 45.9035 36.4747L45.9034 36.4746Z" fill="url(#paint2_linear_127_1051)"/>
</g>
<defs>
<linearGradient id="paint0_linear_127_1051" x1="30.1996" y1="33.9827" x2="30.5501" y2="57.6914" gradientUnits="userSpaceOnUse">
<stop stop-color="#2B9DFE"/>
<stop offset="1" stop-color="#683BFF"/>
</linearGradient>
<linearGradient id="paint1_linear_127_1051" x1="30.9898" y1="33.9015" x2="31.7501" y2="57.6295" gradientUnits="userSpaceOnUse">
<stop stop-color="#2B9DFE"/>
<stop offset="1" stop-color="#683BFF"/>
</linearGradient>
<linearGradient id="paint2_linear_127_1051" x1="30.8805" y1="66.5773" x2="32.4858" y2="15.9868" gradientUnits="userSpaceOnUse">
<stop stop-color="#F8326C"/>
<stop offset="1" stop-color="#A218E0"/>
</linearGradient>
<clipPath id="clip0_127_1051">
<rect width="64" height="64" fill="white"/>
</clipPath>
</defs>
</svg>
