<?xml version="1.0" standalone="no"?>
<!DOCTYPE svg PUBLIC "-//W3C//DTD SVG 20010904//EN"
 "http://www.w3.org/TR/2001/REC-SVG-20010904/DTD/svg10.dtd">
<svg version="1.0" xmlns="http://www.w3.org/2000/svg"
 width="40.000000pt" height="40.000000pt" viewBox="0 0 40.000000 40.000000"
 preserveAspectRatio="xMidYMid meet">

<g transform="translate(0.000000,40.000000) scale(0.100000,-0.100000)"
fill="#000000" stroke="none">
<path d="M92 379 c12 -8 4 -13 -15 -10 -5 1 -6 -2 -3 -7 8 -14 -24 -53 -37
-46 -7 4 -9 4 -5 -1 4 -4 -2 -25 -12 -46 -24 -46 -25 -60 -5 -53 9 4 15 0 15
-7 0 -12 2 -12 9 0 5 7 14 10 20 7 6 -4 9 -11 7 -15 -14 -23 76 -91 121 -91
14 0 15 -2 4 -9 -8 -5 -9 -11 -3 -15 6 -4 15 2 21 11 14 24 14 7 0 -18 -7 -15
-7 -24 1 -35 7 -7 10 -21 6 -29 -4 -10 1 -15 14 -15 23 0 24 3 9 33 -9 19 -8
20 3 6 22 -26 54 -39 97 -37 23 1 41 3 41 5 0 14 -34 65 -52 78 -13 10 -16 15
-8 13 8 -3 20 6 27 20 16 30 16 42 3 42 -6 0 -10 -7 -8 -16 2 -10 -2 -19 -9
-21 -9 -3 -9 5 0 32 7 25 7 39 0 46 -7 7 -8 22 -2 42 7 24 5 33 -6 40 -8 4
-15 13 -15 19 0 6 9 3 21 -8 11 -10 18 -26 16 -36 -3 -10 -1 -16 4 -12 5 3 9
14 9 24 0 22 -44 55 -59 46 -9 -6 -24 25 -25 53 -1 8 -7 15 -14 17 -7 1 -8 0
-2 -3 5 -2 10 -9 10 -14 0 -6 -7 -6 -18 0 -20 11 -40 10 -59 -2 -8 -5 -13 -3
-13 7 0 9 -5 16 -11 16 -5 0 -7 -5 -3 -12 5 -7 3 -8 -6 -3 -7 4 -28 9 -47 10
-22 1 -29 -1 -21 -6z m74 -32 c4 -4 -4 -7 -18 -7 -14 0 -33 -9 -43 -20 -10
-11 -13 -20 -7 -20 6 0 14 5 17 10 8 13 65 13 85 0 11 -7 2 -10 -31 -10 -34 0
-51 -6 -65 -21 -17 -19 -18 -21 -1 -30 24 -14 21 -24 -9 -44 -15 -9 -23 -12
-19 -6 4 7 4 19 1 27 -4 11 -10 12 -25 5 -27 -15 -32 -3 -14 33 29 57 66 93
95 92 15 -1 30 -5 34 -9z m51 -2 c0 -8 -4 -15 -9 -15 -10 0 -11 14 -1 23 9 10
10 9 10 -8z m38 -5 c3 -5 -1 -10 -10 -10 -9 0 -13 5 -10 10 3 6 8 10 10 10 2
0 7 -4 10 -10z m31 -42 c5 -7 0 -9 -14 -6 -12 4 -20 2 -17 -2 3 -5 1 -11 -5
-15 -5 -3 -10 -4 -10 -1 0 2 -2 10 -5 18 -7 17 41 23 51 6z m-67 -51 c12 -15
5 -27 -16 -27 -7 0 -13 9 -13 20 0 23 13 26 29 7z m101 -7 c0 -5 -4 -10 -10
-10 -5 0 -10 5 -10 10 0 6 5 10 10 10 6 0 10 -4 10 -10z m-186 -42 c-13 -6 -8
-7 16 -3 25 4 31 2 20 -5 -19 -13 -47 -13 -55 0 -10 16 4 30 22 23 15 -6 14
-7 -3 -15z m127 -4 c7 -8 21 -13 31 -10 12 3 18 0 15 -7 -6 -18 -77 -18 -77 0
0 8 5 11 12 7 7 -5 8 -3 3 6 -6 10 -11 10 -20 -3 -7 -10 -21 -17 -31 -17 -15
0 -12 4 11 19 37 24 40 25 56 5z m-1 -88 c0 -2 -8 -10 -17 -17 -16 -13 -17
-12 -4 4 13 16 21 21 21 13z m40 -20 c0 -2 -9 -6 -20 -9 -11 -3 -18 -1 -14 4
5 9 34 13 34 5z m38 -37 c10 -16 11 -24 2 -33 -8 -8 -9 -6 -4 9 l7 20 -24 -20
c-18 -16 -21 -16 -10 -2 18 23 7 34 -16 16 -15 -11 -15 -10 1 9 24 27 28 27
44 1z"/>
<path d="M94 328 c-33 -38 -56 -78 -43 -78 6 0 13 9 16 19 3 13 11 18 21 14
14 -4 15 -3 2 6 -12 8 -11 14 10 35 13 15 21 26 18 26 -2 0 -13 -10 -24 -22z"/>
<path d="M300 370 c6 -11 12 -20 14 -20 2 0 2 9 -1 20 -3 11 -9 20 -15 20 -5
0 -4 -9 2 -20z"/>
<path d="M360 340 c-12 -7 -12 -10 -1 -10 7 0 11 -6 8 -14 -3 -8 -2 -27 4 -43
l9 -28 -3 32 c-2 18 1 35 7 38 7 3 7 7 -2 11 -6 3 -10 10 -6 15 7 11 3 11 -16
-1z"/>
<path d="M298 333 c7 -3 16 -2 19 1 4 3 -2 6 -13 5 -11 0 -14 -3 -6 -6z"/>
<path d="M330 216 c0 -2 7 -7 16 -10 8 -3 12 -2 9 4 -6 10 -25 14 -25 6z"/>
<path d="M370 175 c0 -8 4 -15 10 -15 5 0 7 7 4 15 -4 8 -8 15 -10 15 -2 0 -4
-7 -4 -15z"/>
<path d="M94 132 c11 -12 16 -25 13 -28 -4 -4 -15 4 -26 17 l-20 24 3 -30 c3
-25 8 -30 27 -27 38 4 41 17 12 43 -25 21 -26 22 -9 1z"/>
<path d="M156 81 c-4 -5 -2 -12 3 -16 6 -3 7 -13 4 -22 -5 -12 -3 -14 6 -8 8
4 17 2 22 -6 4 -7 11 -10 16 -6 4 5 2 11 -4 15 -6 4 -12 16 -14 26 -4 22 -24
32 -33 17z"/>
<path d="M364 78 c1 -7 7 -22 14 -33 9 -17 11 -17 12 -3 0 22 -10 48 -20 48
-5 0 -7 -6 -6 -12z"/>
</g>
</svg>
